
<svg width="17px" height="17px" viewBox="0 0 17 17" version="1.1" xmlns="http://www.w3.org/2000/svg" xmlns:xlink="http://www.w3.org/1999/xlink">
    <g id="Page-1" stroke="none" stroke-width="1" fill="none" fill-rule="evenodd">
        <g id="Posted-Services" transform="translate(-161.000000, -1020.000000)" fill="#000000" fill-rule="nonzero">
            <g id="747410" transform="translate(161.000000, 1020.000000)">
                <path d="M13.419292,6.63605605 C14.271651,5.9477641 14.8155079,4.9092751 14.8155079,3.7493991 C14.8154738,1.68199642 13.087876,0 10.964389,0 C8.84090196,0 7.11333838,1.68199642 7.11333838,3.7493991 C7.11333838,4.01963565 7.14311631,4.28318942 7.19918896,4.53736738 C6.97988411,4.4994651 6.75429584,4.47961628 6.52399501,4.47961628 C4.40050797,4.47961628 2.67294439,6.1616127 2.67294439,8.22901538 C2.67294439,9.38879165 3.21669886,10.4271809 4.06892121,11.1155061 C1.68487733,12.0617995 0,14.3427515 0,17 L1.36626719,17 C1.36626719,14.2310728 3.67999829,11.9784477 6.52396086,11.9784477 C8.6474479,11.9784477 10.3750115,10.2964513 10.3750115,8.22904863 C10.3750115,7.95881208 10.3452335,7.69522506 10.2891609,7.4410471 C10.5084657,7.47894938 10.734054,7.4987982 10.9643549,7.4987982 C12.6403193,7.4987982 14.1315377,8.28157985 15.0741866,9.4908618 L16,8.48724954 C15.3157224,7.67873424 14.4303072,7.0375209 13.419292,6.63605605 Z M6.52399501,10.648211 C5.15390312,10.648211 4.03921159,9.56297586 4.03921159,8.22901538 C4.03921159,6.89505491 5.15390312,5.80981978 6.52399501,5.80981978 C7.89408689,5.80981978 9.00877843,6.89508816 9.00877843,8.22901538 C9.00877843,9.56294261 7.89408689,10.648211 6.52399501,10.648211 Z M10.964389,6.16856145 C9.59429712,6.16856145 8.47960558,5.08332633 8.47960558,3.74936585 C8.47960558,2.41540538 9.59429712,1.33020349 10.964389,1.33020349 C12.3344809,1.33020349 13.4491724,2.41543862 13.4491724,3.7493991 C13.4491724,5.08339282 12.334515,6.16856145 10.964389,6.16856145 Z" id="Shape"></path>
                <polygon id="Path" points="16.0248605 10 11.4725934 15.106391 8.90362643 12.6426696 8 13.5991277 11.5462358 17 17 10.882364"></polygon>
            </g>
        </g>
    </g>
</svg>