
<svg width="20px" height="17px" viewBox="0 0 20 17" version="1.1" xmlns="http://www.w3.org/2000/svg" xmlns:xlink="http://www.w3.org/1999/xlink">
    <g id="Page-1" stroke="none" stroke-width="1" fill="none" fill-rule="evenodd">
        <g id="Promotions-right" transform="translate(-816.000000, -487.000000)" fill="#000" fill-rule="nonzero">
            <g id="860808" transform="translate(816.000000, 487.000000)">
                <path d="M18.3644354,1.59807788 C17.3299538,0.580971004 15.8803813,0.00225178655 14.3616618,0 C12.8417277,0.0017154388 11.3906474,0.580128171 10.3545743,1.5974266 L10.0014685,1.93873532 L9.64836264,1.5974266 C7.59250849,-0.426558236 4.13214665,-0.542792454 1.91952875,1.33775767 C1.82148335,1.42112144 1.72678849,1.50770329 1.6356536,1.5974266 C-0.545217865,3.74917713 -0.545217865,7.07460978 1.6356536,9.22636031 L9.48255242,16.7957977 C9.75403054,17.0579568 10.2064382,17.0691818 10.4930357,16.8208528 C10.5024172,16.812731 10.5115475,16.8043793 10.5204264,16.7957977 L18.3644773,9.22636031 C20.5451812,7.07483964 20.5451812,3.74959855 18.3644354,1.59807788 Z M17.3301632,8.326024 L17.3294512,8.326024 L10.0014685,15.3959301 L2.67281562,8.326024 C1.0067558,6.68188829 1.0067558,4.14124734 2.67281562,2.49711163 C4.18579729,0.997100233 6.74172068,0.903047825 8.38156246,2.28701656 C8.46117985,2.35421327 8.53778174,2.42428327 8.6112425,2.49711163 L9.48255242,3.33795166 C9.76969435,3.59892314 10.2332845,3.59892314 10.5204264,3.33795166 L11.3917363,2.49776291 C12.904718,0.997751512 15.4606414,0.903699104 17.1004832,2.28766784 C17.1801006,2.35486455 17.2567025,2.42493455 17.3301632,2.49776291 C19.0107142,4.14450373 19.0230274,6.68978027 17.3301632,8.326024 Z" id="Shape"></path>
            </g>
        </g>
    </g>
</svg>