
<svg width="18px" height="18px" viewBox="0 0 18 18" version="1.1" xmlns="http://www.w3.org/2000/svg" xmlns:xlink="http://www.w3.org/1999/xlink">
    <g id="Page-1" stroke="none" stroke-width="1" fill="none" fill-rule="evenodd" opacity="0.531436012">
        <g id="Search-services-list" transform="translate(-807.000000, -436.000000)" fill="#000000" fill-rule="nonzero">
            <g id="747327" transform="translate(807.000000, 436.000000)">
                <path d="M6.7420678,0 L2.2579322,0 C1.01291949,0 0,1.01291949 0,2.2579322 L0,6.7420678 C0,7.98708051 1.01291949,9 2.2579322,9 L6.7420678,9 C7.98708051,9 9,7.98708051 9,6.7420678 L9,2.2579322 C9,1.01291949 7.98708051,0 6.7420678,0 Z M7.47457627,6.7420678 C7.47457627,7.14596186 7.14596186,7.47457627 6.7420678,7.47457627 L2.2579322,7.47457627 C1.85403814,7.47457627 1.52542373,7.14596186 1.52542373,6.7420678 L1.52542373,2.2579322 C1.52542373,1.85403814 1.85403814,1.52542373 2.2579322,1.52542373 L6.7420678,1.52542373 C7.14596186,1.52542373 7.47457627,1.85403814 7.47457627,2.2579322 L7.47457627,6.7420678 Z" id="Shape"></path>
                <path d="M15.7118644,0 L11.2881356,0 C10.0264576,0 9,1.02645763 9,2.28813559 L9,6.71186441 C9,7.97354237 10.0264576,9 11.2881356,9 L15.7118644,9 C16.9735424,9 18,7.97354237 18,6.71186441 L18,2.28813559 C18,1.02645763 16.9735424,0 15.7118644,0 Z M16.4745763,6.71186441 C16.4745763,7.13242373 16.1324237,7.47457627 15.7118644,7.47457627 L11.2881356,7.47457627 C10.8675763,7.47457627 10.5254237,7.13242373 10.5254237,6.71186441 L10.5254237,2.28813559 C10.5254237,1.86757627 10.8675763,1.52542373 11.2881356,1.52542373 L15.7118644,1.52542373 C16.1324237,1.52542373 16.4745763,1.86757627 16.4745763,2.28813559 L16.4745763,6.71186441 Z" id="Shape"></path>
                <path d="M6.7420678,9 L2.2579322,9 C1.01291949,9 0,10.0129195 0,11.2579322 L0,15.7420678 C0,16.9870805 1.01291949,18 2.2579322,18 L6.7420678,18 C7.98708051,18 9,16.9870805 9,15.7420678 L9,11.2579322 C9,10.0129195 7.98708051,9 6.7420678,9 Z M7.47457627,15.7420678 C7.47457627,16.1459619 7.14596186,16.4745763 6.7420678,16.4745763 L2.2579322,16.4745763 C1.85403814,16.4745763 1.52542373,16.1459619 1.52542373,15.7420678 L1.52542373,11.2579322 C1.52542373,10.8540381 1.85403814,10.5254237 2.2579322,10.5254237 L6.7420678,10.5254237 C7.14596186,10.5254237 7.47457627,10.8540381 7.47457627,11.2579322 L7.47457627,15.7420678 Z" id="Shape"></path>
                <path d="M15.7118644,9 L11.2881356,9 C10.0264576,9 9,10.0264576 9,11.2881356 L9,15.7118644 C9,16.9735424 10.0264576,18 11.2881356,18 L15.7118644,18 C16.9735424,18 18,16.9735424 18,15.7118644 L18,11.2881356 C18,10.0264576 16.9735424,9 15.7118644,9 Z M16.4745763,15.7118644 C16.4745763,16.1324237 16.1324237,16.4745763 15.7118644,16.4745763 L11.2881356,16.4745763 C10.8675763,16.4745763 10.5254237,16.1324237 10.5254237,15.7118644 L10.5254237,11.2881356 C10.5254237,10.8675763 10.8675763,10.5254237 11.2881356,10.5254237 L15.7118644,10.5254237 C16.1324237,10.5254237 16.4745763,10.8675763 16.4745763,11.2881356 L16.4745763,15.7118644 Z" id="Shape"></path>
            </g>
        </g>
    </g>
</svg>