
<svg width="19px" height="19px" viewBox="0 0 19 19" version="1.1" xmlns="http://www.w3.org/2000/svg" xmlns:xlink="http://www.w3.org/1999/xlink">
    <g id="Page-1" stroke="none" stroke-width="1" fill="none" fill-rule="evenodd">
        <g id="Promotions-list" transform="translate(-1233.000000, -911.000000)" fill="#000000" fill-rule="nonzero">
            <g id="1159633-copy-10" transform="translate(1233.000000, 911.000000)">
                <path d="M17.5270499,11.9852348 C17.2658189,11.9852348 17.0540998,12.19628 17.0540998,12.4566795 L17.0540998,16.6425925 C17.0531761,17.4234228 16.4185731,18.0561899 15.6352496,18.0569265 L2.36475044,18.0569265 C1.58142685,18.0561899 0.946823894,17.4234228 0.945900175,16.6425925 L0.945900175,4.35722333 C0.946823894,3.57657725 1.58142685,2.94381011 2.36475044,2.94288933 L6.5640299,2.94288933 C6.82526095,2.94288933 7.03697999,2.73184416 7.03697999,2.47144467 C7.03697999,2.21122932 6.82526095,2 6.5640299,2 L2.36475044,2 C1.05933432,2.00147326 0.00147796902,3.05596236 0,4.35722333 L0,16.6427767 C0.00147796902,17.9440376 1.05933432,18.9985267 2.36475044,19 L15.6352496,19 C16.9406657,18.9985267 17.998522,17.9440376 18,16.6427767 L18,12.4566795 C18,12.19628 17.7882809,11.9852348 17.5270499,11.9852348 Z" id="Path"></path>
                <path d="M17.8118532,0.629020593 C16.9730847,-0.209673531 15.6132318,-0.209673531 14.7744631,0.629020593 L6.25962883,9.1430992 C6.20127486,9.201448 6.15914065,9.27377819 6.13714141,9.3531922 L5.01741611,13.3952917 C4.97136679,13.5610172 5.0181618,13.738487 5.13971712,13.8602179 C5.2614588,13.9817624 5.4389444,14.0285533 5.60468462,13.9826945 L9.64714286,12.8628821 C9.72656391,12.8408848 9.79890048,12.7987544 9.8572545,12.7404055 L18.3719023,4.22614051 C19.2093659,3.38688712 19.2093659,2.02827342 18.3719023,1.18901998 L17.8118532,0.629020593 Z M7.29956023,9.4532986 L14.2682936,2.48499727 L16.5157609,4.73226514 L9.5468411,11.7005665 L7.29956023,9.4532986 Z M6.85062607,10.3540699 L8.64617629,12.1496472 L6.1624965,12.8377157 L6.85062607,10.3540699 Z M17.6970096,3.55130769 L17.1908401,4.05743232 L14.9431864,1.80997804 L15.4495423,1.30385341 C15.915442,0.837995054 16.6708744,0.837995054 17.1367741,1.30385341 L17.6970096,1.8638528 C18.1621636,2.33027043 18.1621636,3.08507652 17.6970096,3.55130769 L17.6970096,3.55130769 Z" id="Shape"></path>
            </g>
        </g>
    </g>
</svg>