<svg width="18px" height="18px" viewBox="0 0 18 18" version="1.1" xmlns="http://www.w3.org/2000/svg" xmlns:xlink="http://www.w3.org/1999/xlink">
    <g id="Page-1" stroke="none" stroke-width="1" fill="none" fill-rule="evenodd">
        <g id="Home" transform="translate(-144.000000, -1692.000000)" fill="#000000" fill-rule="nonzero">
            <g id="709510-copy-4" transform="translate(144.000000, 1692.000000)">
                <path d="M16.8079487,2.1998098 C16.5512391,1.93381451 16.1347166,1.9333562 15.878007,2.19868165 L7.98814093,10.3383138 L5.14150024,7.14027131 C4.89552666,6.86408747 4.47965168,6.84617818 4.21220611,7.10057473 C3.94496502,7.35500655 3.9278556,7.78539363 4.17382918,8.06182425 L7.48412854,11.7805054 C7.60536008,11.9167994 7.7750229,11.9959457 7.95392207,11.9997885 C7.95872771,12 7.96336293,12 7.96796407,12 C8.14181903,12 8.30906199,11.9285744 8.43227032,11.8015876 L16.8066535,3.16194068 C17.0640107,2.89665048 17.0644538,2.46580509 16.8079487,2.1998098 Z" id="Path"></path>
                <path d="M17.3215898,8.32158984 C16.9468945,8.32158984 16.6432148,8.62526953 16.6432148,9 C16.6432148,13.2146367 13.2146367,16.6432148 9,16.6432148 C4.78560937,16.6432148 1.35678516,13.2146367 1.35678516,9 C1.35678516,4.78560937 4.78560937,1.35678516 9,1.35678516 C9.37469531,1.35678516 9.67841016,1.05310547 9.67841016,0.678410156 C9.67841016,0.303679688 9.37469531,0 9,0 C4.03734375,0 0,4.03734375 0,9 C0,13.9624453 4.03734375,18 9,18 C13.9624453,18 18,13.9624453 18,9 C18,8.62530469 17.6963203,8.32158984 17.3215898,8.32158984 Z" id="Path"></path>
            </g>
        </g>
    </g>
</svg>