
<svg width="20px" height="20px" viewBox="0 0 20 20" version="1.1" xmlns="http://www.w3.org/2000/svg" xmlns:xlink="http://www.w3.org/1999/xlink">
    <g id="Page-1" stroke="none" stroke-width="1" fill="none" fill-rule="evenodd">
        <g id="Posted-Services" transform="translate(-693.000000, -368.000000)" fill="#000" fill-rule="nonzero">
            <g id="710082-copy" transform="translate(693.000000, 368.000000)">
                <path d="M8.99998007,0 C4.03744018,0 0,4.03742278 0,9 C0,13.9625772 4.03748004,18 8.99998007,18 C13.9624801,18 18,13.9625772 18,9 C18,4.03742278 13.96252,0 8.99998007,0 Z M8.99998007,16.5205124 C4.85088374,16.5205124 1.47540788,13.1466266 1.47540788,8.99996003 C1.47540788,4.85305365 4.85088374,1.4794077 8.99998007,1.4794077 C13.1490764,1.4794077 16.5245523,4.85305365 16.5245523,8.99996003 C16.5245523,13.1466266 13.1491163,16.5205124 8.99998007,16.5205124 Z" id="Shape"></path>
                <path d="M19.7936691,18.7983411 L15.1943688,14.2045517 C14.9200526,13.9307998 14.4766732,13.9319776 14.2037573,14.2071354 C13.9310685,14.4825211 13.9322418,14.9275912 14.2063309,15.2016091 L18.8056312,19.7953984 C18.9424486,19.9317995 19.1208223,20 19.2996501,20 C19.4796512,20 19.6594252,19.9308496 19.7962427,19.7928148 C20.0689315,19.5173911 20.0677582,19.072321 19.7936691,18.7983411 Z" id="Path"></path>
            </g>
        </g>
    </g>
</svg>