
<svg width="54px" height="22px" viewBox="0 0 54 22" version="1.1" xmlns="http://www.w3.org/2000/svg" xmlns:xlink="http://www.w3.org/1999/xlink">
    <g id="Page-1" stroke="none" stroke-width="1" fill="none" fill-rule="evenodd">
        <g id="Promotions-right" transform="translate(-727.000000, -1177.000000)" fill-rule="nonzero">
            <g id="196577" transform="translate(727.978417, 1177.584906)">
                <path d="M20.3689699,13.0080937 L20.6223941,13.0080937 C20.8758183,13.0080937 21.0447678,12.9290826 21.1292425,12.7710605 L21.8895151,11.7439167 L23.8324339,11.7439167 L23.4100603,12.3760052 L25.7753528,12.3760052 L25.4374539,13.403149 L22.6497877,13.403149 C22.3118887,13.8772154 21.9739898,14.0352375 21.4671414,14.0352375 L20.031071,14.0352375 L20.3689699,13.0080937 M20.031071,14.4302928 L25.0995549,14.4302928 L24.761656,15.5364476 L22.7342624,15.5364476 L22.3963635,16.6426025 L24.4237571,16.6426025 L24.0858581,17.7487573 L22.0584645,17.7487573 L21.5516162,19.3289785 C21.4671414,19.5660117 21.5516162,19.7240338 21.9739898,19.6450228 L23.5790097,19.6450228 L23.2411108,20.6721666 L20.1155457,20.6721666 C19.5242226,20.6721666 19.3552731,20.3561223 19.5242226,19.7240338 L20.1155457,17.6697463 L18.8484247,17.6697463 L19.1863236,16.5635914 L20.4534446,16.5635914 L20.7913436,15.4574366 L19.6086973,15.4574366 L20.031071,14.4302928 Z M28.22512,11.7439167 L28.1406453,12.3760052 C28.1406453,12.3760052 29.0698674,11.6649057 29.9990894,11.6649057 L33.2091292,11.6649057 L31.9420083,15.9315029 C31.8575335,16.4055693 31.4351599,16.6426025 30.5904125,16.6426025 L26.957999,16.6426025 L26.1132517,19.5660117 C26.028777,19.7240338 26.1132517,19.8030449 26.2822012,19.8030449 L27.0424738,19.8030449 L26.7890496,20.6721666 L24.9306055,20.6721666 C24.2548076,20.6721666 23.9169087,20.5141444 24.0858581,20.0400781 L26.5356254,11.6649057 L28.22512,11.6649057 L28.22512,11.7439167 L28.22512,11.7439167 Z M30.9283115,12.9290826 L28.0561706,12.9290826 L27.7182716,14.0352375 C27.7182716,14.0352375 28.22512,13.7191932 28.9853926,13.7191932 C29.7456652,13.7191932 30.6748873,13.7191932 30.6748873,13.7191932 L30.9283115,12.9290826 Z M29.9146147,15.5364476 C30.1680389,15.5364476 30.2525136,15.4574366 30.2525136,15.2994144 L30.4214631,14.667326 L27.5493222,14.667326 L27.295898,15.5364476 L29.9146147,15.5364476 L29.9146147,15.5364476 Z M27.9716958,16.8796357 L29.6611905,16.8796357 L29.6611905,17.5907352 L30.0835641,17.5907352 C30.3369883,17.5907352 30.4214631,17.5117241 30.4214631,17.353702 L30.5904125,16.8796357 L31.9420083,16.8796357 L31.7730588,17.5117241 C31.6041093,18.0648016 31.1817357,18.3018347 30.5059378,18.3808458 L29.5767157,18.3808458 L29.5767157,19.5660117 C29.5767157,19.7240338 29.7456652,19.882056 30.0835641,19.882056 L30.9283115,19.882056 L30.6748873,20.8301887 L28.6474937,20.8301887 C28.0561706,20.8301887 27.8027464,20.5931555 27.8027464,20.0400781 L27.9716958,16.8796357 Z" id="Shape" fill="#009DA5"></path>
                <g id="Group" transform="translate(20.643513, 11.664906)" fill="#02CCCC">
                    <path d="M2.02275777,1.94415094 C2.10448536,1.87008805 2.26794053,1.72196226 2.34966812,1.64789937 L5.04667849,1.64789937 L5.37358883,0.685081761 L3.0852164,0.685081761 L3.49385434,0.0925786164 L1.61411984,0.0925786164 L0.878571558,0.981333333 C0.796843971,1.12945912 0.633388798,1.20352201 0.388206037,1.20352201 L0.143023277,1.20352201 L0.0612956901,1.42571069 C0.715116385,1.57383648 1.36893708,1.79602516 2.02275777,1.94415094 Z" id="Path"></path>
                    <path d="M7.66196126,0.611018868 L7.74368885,0.0185157233 L6.10913711,0.0185157233 L5.37358883,2.3885283 C5.78222677,2.3885283 6.27259229,2.46259119 6.68123022,2.46259119 C8.56096472,2.46259119 10.277244,2.24040252 11.9935234,1.79602516 L12.5656165,0.0185157233 L9.45996817,0.0185157233 C8.56096472,0.0185157233 7.66196126,0.611018868 7.66196126,0.611018868 Z M10.1137889,1.87008805 C10.1137889,1.87008805 9.21478541,1.87008805 8.47923713,1.87008805 C7.66196126,1.87008805 7.25332333,2.16633962 7.25332333,2.16633962 L7.58023368,1.12945912 L10.3589716,1.12945912 L10.1137889,1.87008805 Z" id="Shape"></path>
                </g>
                <path d="M34.5473835,12.9966134 L34.9773447,11.7432414 L36.9551663,11.7432414 L36.8691741,12.2132559 C36.8691741,12.2132559 37.901081,11.7432414 38.5890189,11.7432414 C39.2769569,11.7432414 41.082794,11.7432414 41.082794,11.7432414 L40.6528328,12.9966134 L40.3088638,12.9966134 L38.4170345,18.9501306 L38.7610034,18.9501306 L38.4170345,20.1251669 L37.9870732,20.1251669 L37.8150888,20.6735172 L35.9232594,20.6735172 L36.0952439,20.1251669 L32.3115852,20.1251669 L32.6555542,18.9501306 L32.9995232,18.9501306 L34.8913525,12.9966134 L34.5473835,12.9966134 M36.6971896,12.9966134 L36.1812361,14.6416642 C36.1812361,14.6416642 37.0411586,14.3283212 37.8150888,14.2499855 C37.9870732,13.7016352 38.1590577,12.9966134 38.1590577,12.9966134 L36.6971896,12.9966134 Z M36.0092517,15.4250218 L35.4932982,17.1484083 C35.4932982,17.1484083 36.4392129,16.7567296 37.1271508,16.6783938 C37.2991353,16.0517078 37.4711198,15.4250218 37.4711198,15.4250218 L36.0092517,15.4250218 L36.0092517,15.4250218 Z M36.3532206,18.9501306 L36.6971896,17.6967586 L35.2353215,17.6967586 L34.8913525,18.9501306 L36.3532206,18.9501306 Z M41.1687862,11.6649057 L43.0606156,11.6649057 L43.1466078,12.2915917 C43.1466078,12.4482632 43.2326,12.5265989 43.4905768,12.5265989 L43.8345457,12.5265989 L43.4905768,13.6232995 L42.1147009,13.6232995 C41.5987474,13.6232995 41.3407707,13.466628 41.2547785,13.0749492 L41.1687862,11.6649057 Z M40.6528328,14.0149782 L46.6722898,14.0149782 L46.3283208,15.1116788 L44.4364914,15.1116788 L44.0925225,16.2083793 L45.9843518,16.2083793 L45.6403828,17.3834156 L43.4905768,17.3834156 L42.9746233,18.0884373 L44.0065302,18.0884373 L44.264507,19.4201451 C44.264507,19.5768166 44.4364914,19.6551524 44.6084759,19.6551524 L44.9524449,19.6551524 L44.6084759,20.7518529 L43.4905768,20.7518529 C42.8886311,20.7518529 42.5446621,20.5951814 42.5446621,20.2035027 L42.2866854,18.9501306 L41.3407707,20.2818384 C41.082794,20.6735172 40.738825,20.8301887 40.3088638,20.8301887 L38.5030267,20.8301887 L38.8469957,19.7334881 L39.3629491,19.7334881 C39.6209258,19.7334881 39.7929103,19.6551524 39.9648948,19.4201451 L41.4267629,17.4617513 L39.5349336,17.4617513 L39.8789026,16.286715 L41.9427164,16.286715 L42.2866854,15.1900145 L40.2228715,15.1900145 L40.6528328,14.0149782 Z" id="Shape" fill="#009DA5"></path>
                <path d="M37.6968494,11.6649057 L37.6968494,11.6649057 L35.4031258,11.6649057 L35.0042173,12.4981132 C35.9017613,12.2417417 36.7993054,11.9853701 37.6968494,11.6649057 Z" id="Path" fill="#02CCCC"></path>
                <path d="M7.58832683,6.00749643 C7.34354209,7.00874584 6.85397262,7.77893769 6.11961841,8.31807198 C5.30366929,8.85720628 4.32453034,9.16528302 3.10060666,9.16528302 C1.95827789,9.16528302 1.06073386,8.85720628 0.571164385,8.31807198 C0.163189824,7.93297606 0,7.39384176 0,6.77768828 C0,6.54663073 0,6.23855399 0.0815949122,5.93047725 L1.38711351,0 L3.3453914,0 L2.0398728,5.85345806 C2.0398728,6.00749643 1.95827789,6.1615348 1.95827789,6.31557317 C1.95827789,6.62364991 2.0398728,6.85470747 2.20306263,7.08576502 C2.44784736,7.39384176 2.85582193,7.54788013 3.3453914,7.54788013 C3.91655578,7.54788013 4.48772017,7.39384176 4.81409982,7.16278421 C5.22207438,6.85470747 5.46685911,6.46961154 5.54845403,5.93047725 L6.85397262,0.077019185 L8.97544034,0.077019185 L7.58832683,6.00749643" id="Path" fill="#FF7F29"></path>
                <g id="Group" fill="#EA2227">
                    <path d="M7.74229288,5.95743396 C7.4925415,6.95033962 6.99303873,7.71411321 6.24378458,8.24875472 C5.41127997,8.78339623 4.41227444,9.08890566 3.16351752,9.08890566 C1.99801107,9.08890566 1.08225599,8.78339623 0.582753228,8.24875472 C0.166500922,7.86686792 5.54559472e-16,7.33222642 5.54559472e-16,6.72120755 C5.54559472e-16,6.49207547 5.54559472e-16,6.18656604 0.0832504611,5.8810566 L2.9970166,0 L3.41326891,0 L2.08126153,5.80467925 C2.08126153,5.95743396 1.99801107,6.11018868 1.99801107,6.2629434 C1.99801107,6.56845283 2.08126153,6.79758491 2.24776245,7.02671698 C2.49751383,7.33222642 2.91376614,7.48498113 3.41326891,7.48498113 C3.99602213,7.48498113 4.57877536,7.33222642 4.9117772,7.10309434 C5.32802951,6.79758491 5.57778089,6.41569811 5.66103135,5.8810566 L8.57479749,0.0763773585 L9.15755072,0.0763773585 L7.74229288,5.95743396" id="Path"></path>
                    <path d="M9.65705349,3.66611321 L11.0723113,3.66611321 L10.9058104,4.42988679 L11.0723113,4.20075472 C11.5718141,3.74249057 12.0713169,3.51335849 12.7373205,3.51335849 C13.3200738,3.51335849 13.7363261,3.66611321 14.0693279,3.97162264 C14.3190793,4.27713208 14.4023298,4.73539623 14.3190793,5.27003774 L13.5698252,8.85977358 L12.0713169,8.85977358 L12.7373205,5.57554717 C12.820571,5.27003774 12.820571,4.9645283 12.6540701,4.81177358 C12.5708196,4.65901887 12.3210682,4.58264151 11.9880664,4.58264151 C11.5718141,4.58264151 11.3220627,4.65901887 11.0723113,4.88815094 C10.8225599,5.11728302 10.656059,5.42279245 10.5728086,5.80467925 L9.90680487,8.85977358 L8.40829657,8.85977358 L9.65705349,3.66611321" id="Path"></path>
                </g>
                <path d="M26.3810989,3.4994717 L27.8987932,3.4994717 L27.720241,4.33267925 L27.8987932,4.08271698 C28.4344501,3.58279245 28.9701069,3.33283019 29.684316,3.33283019 C30.309249,3.33283019 30.7556297,3.4994717 31.1127342,3.83275472 C31.3805626,4.16603774 31.4698388,4.66596226 31.3805626,5.24920755 L30.5770774,9.16528302 L28.9701069,9.16528302 L29.7735921,5.58249057 C29.8628683,5.24920755 29.8628683,4.91592453 29.684316,4.74928302 C29.5950399,4.58264151 29.3272114,4.49932075 28.9701069,4.49932075 C28.5237262,4.49932075 28.2558978,4.58264151 27.9880694,4.83260377 C27.720241,5.08256604 27.5416887,5.41584906 27.4524125,5.83245283 L26.7382034,9.16528302 L25.1312329,9.16528302 L26.3810989,3.4994717" id="Path" fill="#A5002F"></path>
                <g id="Group" transform="translate(15.258249, 1.666415)" fill="#EA2227">
                    <path d="M1.301932,1.96124238 L2.95104588,1.96124238 L1.64911387,7.26813353 L0,7.26813353 L1.301932,1.96124238 M1.82270481,0.0384557329 L3.47181868,0.0384557329 L3.12463681,1.34595065 L1.47552294,1.34595065 L1.82270481,0.0384557329 Z" id="Shape"></path>
                    <path d="M4.42656882,6.8835762 C3.99259148,6.49901887 3.81900055,6.03755007 3.81900055,5.42225835 C3.81900055,5.34534688 3.81900055,5.19152395 3.81900055,5.03770102 C3.81900055,4.88387808 3.81900055,4.80696662 3.90579601,4.65314369 C4.07938695,3.80711756 4.51336428,3.11491437 5.12093255,2.57653411 C5.72850082,2.03815385 6.50966002,1.80741945 7.46441016,1.80741945 C8.24556936,1.80741945 8.76634217,1.96124238 9.2003195,2.34579971 C9.63429684,2.73035704 9.80788777,3.19182583 9.80788777,3.88402903 C9.80788777,3.96094049 9.80788777,4.11476343 9.80788777,4.26858636 C9.80788777,4.42240929 9.80788777,4.49932075 9.7210923,4.65314369 C9.54750137,5.49916981 9.11352403,6.191373 8.50595577,6.6528418 C7.8983875,7.1143106 7.11722829,7.42195646 6.16247816,7.42195646 C5.46811442,7.42195646 4.86054615,7.19122206 4.42656882,6.8835762 M7.55120563,5.80681567 C7.81159203,5.49916981 8.07197843,5.11461248 8.1587739,4.57623222 C8.1587739,4.49932075 8.1587739,4.42240929 8.24556936,4.26858636 C8.24556936,4.19167489 8.24556936,4.11476343 8.24556936,4.03785196 C8.24556936,3.7302061 8.1587739,3.42256023 7.98518296,3.2687373 C7.81159203,3.11491437 7.55120563,2.96109144 7.20402376,2.96109144 C6.77004643,2.96109144 6.33606909,3.11491437 6.07568269,3.42256023 C5.81529629,3.7302061 5.55490989,4.11476343 5.46811442,4.73005515 C5.46811442,4.80696662 5.46811442,4.88387808 5.38131895,4.96078955 C5.38131895,5.03770102 5.38131895,5.11461248 5.38131895,5.19152395 C5.38131895,5.49916981 5.46811442,5.80681567 5.64170535,5.96063861 C5.81529629,6.11446154 6.07568269,6.191373 6.42286456,6.191373 C6.94363736,6.191373 7.29081923,6.11446154 7.55120563,5.80681567" id="Shape"></path>
                </g>
                <path d="M33.3499205,0 L37.7496461,0 C38.6295913,0 39.2455528,0.163665768 39.6855254,0.490997305 C40.125498,0.818328841 40.3894815,1.30932615 40.3894815,2.0458221 L40.3894815,2.0458221 C40.3894815,2.20948787 40.3894815,2.29132075 40.3894815,2.45498652 C40.3894815,2.61865229 40.301487,2.78231806 40.301487,2.94598383 C40.125498,3.84614555 39.6855254,4.50080863 38.9815693,5.07363881 C38.2776132,5.56463612 37.4856626,5.89196765 36.5177229,5.89196765 L34.1418711,5.89196765 L33.437915,9.16528302 L31.4140412,9.16528302 L33.3499205,0 M34.4058546,4.25530997 L36.3417339,4.25530997 C36.869701,4.25530997 37.221679,4.17347709 37.5736571,3.92797844 C37.8376406,3.68247978 38.0136297,3.35514825 38.1896187,2.94598383 C38.1896187,2.86415094 38.1896187,2.78231806 38.1896187,2.70048518 C38.1896187,2.61865229 38.1896187,2.53681941 38.1896187,2.53681941 C38.1896187,2.20948787 38.1016242,1.96398922 37.8376406,1.80032345 C37.5736571,1.63665768 37.221679,1.5548248 36.693712,1.5548248 L35.0218162,1.5548248 L34.4058546,4.25530997 Z" id="Shape" fill="#1398E2"></path>
                <path d="M35.1098107,0 L37.7496461,0 C38.6295913,0 39.2455528,0.163665768 39.6855254,0.490997305 C40.125498,0.818328841 40.3894815,1.30932615 40.3894815,2.0458221 L40.3894815,2.0458221 C40.3894815,2.20948787 40.3894815,2.29132075 40.3894815,2.45498652 C40.3894815,2.61865229 40.301487,2.78231806 40.301487,2.94598383 C40.125498,3.84614555 39.6855254,4.50080863 38.9815693,5.07363881 C38.2776132,5.56463612 37.4856626,5.89196765 36.5177229,5.89196765 L34.1418711,5.89196765 L33.437915,9.16528302 L31.4140412,9.16528302 L35.1098107,0 M34.4938491,4.25530997 L36.4297284,4.25530997 C36.9576955,4.25530997 37.3096736,4.17347709 37.6616516,3.92797844 C37.9256352,3.68247978 38.1016242,3.35514825 38.2776132,2.94598383 C38.2776132,2.86415094 38.2776132,2.78231806 38.2776132,2.70048518 C38.2776132,2.61865229 38.2776132,2.53681941 38.2776132,2.53681941 C38.2776132,2.20948787 38.1896187,1.96398922 37.9256352,1.80032345 C37.6616516,1.63665768 37.3096736,1.5548248 36.7817065,1.5548248 L35.1098107,1.5548248 L34.4938491,4.25530997 Z" id="Shape" fill="#0872B9"></path>
                <path d="M48.4180622,9.9410118 C47.7966856,11.2304131 47.1753089,11.9557013 46.8202366,12.2780516 C46.4651642,12.600402 45.7550195,13.4062778 43.9796577,13.3256902 L44.1571938,12.3586392 C45.5774833,11.9557013 46.3763961,10.102187 46.8202366,9.29631116 L46.287628,3.33283019 L47.4416132,3.33283019 L48.4180622,3.33283019 L48.5068303,7.12044648 L50.2821921,3.33283019 L52.057554,3.33283019 L48.4180622,9.9410118" id="Path" fill="#055093"></path>
                <path d="M44.28918,4.29225755 L43.6289286,4.74910369 C42.9686772,4.21611653 42.3084258,3.91155244 41.0704544,4.4445396 C39.4198259,5.1298088 38.0167916,10.6119625 42.5560201,8.7845779 L42.8036144,9.089142 L44.6193057,9.16528302 L45.7747457,4.21611653 L44.28918,4.29225755 M43.2162715,7.03333438 C42.8861458,7.79474461 42.3084258,8.32773177 41.8132372,8.17544972 C41.3180487,8.02316767 41.1529858,7.26175745 41.4005801,6.50034722 C41.7307058,5.73893699 42.3084258,5.20594983 42.8036144,5.35823187 C43.3813343,5.51051392 43.5463972,6.27192415 43.2162715,7.03333438" id="Shape" fill="#0872B9"></path>
                <path d="M41.2870256,9.08837155 C41.6194493,9.01146009 42.0349789,8.93454862 42.5336145,8.78072569 L42.7829323,9.08837155 L44.6112627,9.16528302 L45.7747457,4.16603774 L45.3592161,4.16603774 C44.5281568,6.08882438 43.0322501,7.78087663 41.2870256,9.08837155 Z" id="Path" fill="#055093"></path>
                <path d="M23.6793235,3.8845487 C23.2833482,3.49046405 22.7289827,3.33283019 22.0954222,3.33283019 C21.9370321,3.33283019 21.8578371,3.33283019 21.6994469,3.33283019 C21.5410568,3.80573177 21.3034716,4.27863335 21.0658864,4.75153493 C21.3034716,4.59390107 21.5410568,4.51508414 21.8578371,4.51508414 C22.1746173,4.51508414 22.4122025,4.59390107 22.5705926,4.83035186 C22.7289827,4.98798572 22.8081778,5.30325344 22.8081778,5.61852116 C22.8081778,5.69733809 22.8081778,5.77615502 22.8081778,5.85497195 C22.8081778,5.93378888 22.8081778,6.01260581 22.7289827,6.17023967 C22.6497877,6.72195818 22.4122025,7.19485977 22.1746173,7.43131056 C21.9370321,7.74657828 21.5410568,7.82539521 21.1450815,7.82539521 C20.8283013,7.82539521 20.5907161,7.74657828 20.4323259,7.58894442 C20.2739358,7.43131056 20.1947408,7.11604284 20.1947408,6.80077511 C20.1947408,6.72195818 20.1947408,6.64314125 20.1947408,6.56432432 C20.1947408,6.48550739 20.1947408,6.40669046 20.2739358,6.32787353 C20.2739358,6.17023967 20.3531309,6.09142274 20.3531309,6.01260581 C19.9571556,6.64314125 19.4027901,7.2736767 18.8484247,7.82539521 C18.9276198,8.14066293 19.0860099,8.37711372 19.3235951,8.61356451 C19.7195704,9.00764916 20.2739358,9.16528302 20.9074963,9.16528302 C21.6994469,9.16528302 22.4122025,8.92883223 23.045763,8.37711372 C23.6001284,7.90421214 23.9961037,7.19485977 24.1544938,6.32787353 C24.1544938,6.17023967 24.2336889,6.09142274 24.2336889,5.93378888 C24.2336889,5.77615502 24.2336889,5.69733809 24.2336889,5.53970423 C24.2336889,4.75153493 24.0752988,4.27863335 23.6793235,3.8845487 Z" id="Path" fill="#A5002F"></path>
            </g>
        </g>
    </g>
</svg>