
<svg width="16px" height="16px" viewBox="0 0 16 16" version="1.1" xmlns="http://www.w3.org/2000/svg" xmlns:xlink="http://www.w3.org/1999/xlink">
    <g id="Page-1" stroke="none" stroke-width="1" fill="none" fill-rule="evenodd">
        <g id="Posted-Services" transform="translate(-162.000000, -1085.000000)" fill="#000000" fill-rule="nonzero">
            <g id="1214428" transform="translate(162.000000, 1085.000000)">
                <path d="M10.5,5.6 C10.2238281,5.6 10,5.77135169 10,5.98277512 L10,13.2172249 C10,13.4284988 10.2238281,13.6 10.5,13.6 C10.7761719,13.6 11,13.4284988 11,13.2172249 L11,5.98277512 C11,5.77135169 10.7761719,5.6 10.5,5.6 Z" id="Path"></path>
                <path d="M5.5,5.6 C5.2238281,5.6 5,5.77135169 5,5.98277512 L5,13.2172249 C5,13.4284988 5.2238281,13.6 5.5,13.6 C5.77617185,13.6 6,13.4284988 6,13.2172249 L6,5.98277512 C6,5.77135169 5.77617185,5.6 5.5,5.6 Z" id="Path"></path>
                <path d="M1.31032823,4.76338779 L1.31032823,13.9953283 C1.31032823,14.5409925 1.55668545,15.0534308 1.98704472,15.4211101 C2.41542159,15.7898139 3.01158097,15.9991218 3.63549377,16 L12.3645063,16 C12.9885993,15.9991218 13.5847586,15.7898139 14.0129553,15.4211101 C14.4433146,15.0534308 14.6896719,14.5409925 14.6896719,13.9953283 L14.6896719,4.76338779 C15.5451641,4.57896268 16.0995129,3.90771381 15.9850749,3.19474973 C15.8704566,2.48193206 15.1227344,1.94870929 14.2375062,1.94856293 L11.8753961,1.94856293 L11.8753961,1.48018169 C11.8780994,1.08630234 11.686348,0.708084489 11.3430338,0.42983677 C10.9997195,0.151735412 10.5333168,-0.00312313434 10.0483516,4.77534944e-05 L5.95164846,4.77534944e-05 C5.46668328,-0.00312313434 5.00028052,0.151735412 4.65696628,0.42983677 C4.31365205,0.708084489 4.12190068,1.08630234 4.12460395,1.48018169 L4.12460395,1.94856293 L1.7624938,1.94856293 C0.877265677,1.94870929 0.12954348,2.48193206 0.0149251346,3.19474973 C-0.0995129127,3.90771381 0.454835969,4.57896268 1.31032823,4.76338779 Z M12.3645063,15.25059 L3.63549377,15.25059 C2.84668199,15.25059 2.23304158,14.7002421 2.23304158,13.9953283 L2.23304158,4.79632084 L13.7669585,4.79632084 L13.7669585,13.9953283 C13.7669585,14.7002421 13.153318,15.25059 12.3645063,15.25059 Z M5.04731731,1.48018169 C5.04425358,1.28507164 5.13868752,1.09728003 5.30917325,0.959546684 C5.47947873,0.821813336 5.71123836,0.746140464 5.95164846,0.749506964 L10.0483516,0.749506964 C10.2887616,0.746140464 10.5205213,0.821813336 10.6908268,0.959546684 C10.8613125,1.09713367 10.9557465,1.28507164 10.9526828,1.48018169 L10.9526828,1.94856293 L5.04731731,1.94856293 L5.04731731,1.48018169 Z M1.7624938,2.6979729 L14.2375062,2.6979729 C14.6961596,2.6979729 15.0679483,2.99993244 15.0679483,3.37244188 C15.0679483,3.74495133 14.6961596,4.04691086 14.2375062,4.04691086 L1.7624938,4.04691086 C1.30384035,4.04691086 0.932051782,3.74495133 0.932051782,3.37244188 C0.932051782,2.99993244 1.30384035,2.6979729 1.7624938,2.6979729 Z" id="Shape"></path>
                <path d="M7.5,5.6 C7.2238281,5.6 7,5.77135169 7,5.98277512 L7,13.2172249 C7,13.4284988 7.2238281,13.6 7.5,13.6 C7.77617185,13.6 8,13.4284988 8,13.2172249 L8,5.98277512 C8,5.77135169 7.77617185,5.6 7.5,5.6 Z" id="Path"></path>
            </g>
        </g>
    </g>
</svg>