
<svg width="16px" height="16px" viewBox="0 0 16 16" version="1.1" xmlns="http://www.w3.org/2000/svg" xmlns:xlink="http://www.w3.org/1999/xlink">
    <g id="Page-1" stroke="none" stroke-width="1" fill="none" fill-rule="evenodd" opacity="0.572567894">
        <g id="Account-dropdown" transform="translate(-1009.000000, -315.000000)" fill="#000000" fill-rule="nonzero">
            <g id="929872" transform="translate(1009.000000, 315.000000)">
                <path d="M14.9565217,6.26086957 L13.6542609,6.26086957 C13.5450435,5.90434783 13.402087,5.56 13.2285217,5.232 L14.1485217,4.312 C14.3453913,4.11513043 14.453913,3.85286957 14.453913,3.57356522 C14.453913,3.2946087 14.3453913,3.03234783 14.1485217,2.83547826 L13.1641739,1.85113043 C12.7707826,1.45773913 12.082087,1.45669565 11.688,1.85113043 L10.768,2.77113043 C10.4403478,2.59756522 10.0956522,2.45495652 9.73913043,2.3453913 L9.73913043,1.04347826 C9.73913043,0.468173913 9.27095652,0 8.69565217,0 L7.30434783,0 C6.72904348,0 6.26086957,0.468173913 6.26086957,1.04347826 L6.26086957,2.34573913 C5.90434783,2.45530435 5.56,2.59791304 5.232,2.77147826 L4.31165217,1.85147826 C3.90469565,1.44452174 3.24243478,1.44452174 2.83547826,1.85147826 L1.85078261,2.83582609 C1.44417391,3.24278261 1.44417391,3.90504348 1.85078261,4.312 L2.77078261,5.23234783 C2.59721739,5.56 2.4546087,5.90469565 2.34504348,6.26121739 L1.04347826,6.26121739 C0.468173913,6.26121739 0,6.7293913 0,7.30469565 L0,8.696 C0,9.27095652 0.468173913,9.73913043 1.04347826,9.73913043 L2.34573913,9.73913043 C2.45530435,10.0956522 2.59791304,10.44 2.77147826,10.768 L1.85147826,11.6883478 C1.44452174,12.0953043 1.44452174,12.7575652 1.85147826,13.1645217 L2.83582609,14.1492174 C3.24278261,14.5558261 3.90504348,14.5558261 4.312,14.1492174 L5.23234783,13.2292174 C5.56,13.4027826 5.90469565,13.5453913 6.26121739,13.6549565 L6.26121739,14.9565217 C6.26121739,15.5318261 6.7293913,16 7.30469565,16 L8.696,16 C9.27130435,16 9.73947826,15.5318261 9.73947826,14.9565217 L9.73947826,13.6542609 C10.096,13.5446957 10.4406957,13.402087 10.7683478,13.2285217 L11.6883478,14.1488696 C12.0827826,14.5429565 12.7714783,14.5422609 13.1645217,14.1488696 L14.1488696,13.1645217 C14.3457391,12.9676522 14.4542609,12.7053913 14.4542609,12.4264348 C14.4542609,12.1471304 14.3457391,11.8852174 14.1488696,11.6883478 L13.2288696,10.768 C13.4024348,10.4403478 13.5450435,10.0956522 13.6546087,9.73913043 L14.9565217,9.73913043 C15.5318261,9.73913043 16,9.27095652 16,8.69565217 L16,7.30434783 C16,6.72904348 15.5318261,6.26086957 14.9565217,6.26086957 Z M15.3043478,8.69565217 C15.3043478,8.88730435 15.1485217,9.04347826 14.9565217,9.04347826 L13.3913043,9.04347826 C13.2326957,9.04347826 13.0942609,9.15095652 13.0546087,9.30434783 C12.9314783,9.77913043 12.744,10.2323478 12.4966957,10.6511304 C12.4163478,10.7878261 12.4382609,10.9617391 12.5502609,11.0737391 L13.6563478,12.1801739 C13.7217391,12.2455652 13.757913,12.3328696 13.757913,12.4264348 C13.757913,12.52 13.7217391,12.6073043 13.6563478,12.6726957 L12.672,13.6570435 C12.5412174,13.7878261 12.3106087,13.7878261 12.1794783,13.6570435 L11.0733913,12.5509565 C10.9613913,12.4386087 10.7874783,12.4170435 10.6504348,12.4973913 C10.2323478,12.7443478 9.77913043,12.9321739 9.304,13.0549565 C9.15095652,13.0942609 9.04347826,13.2326957 9.04347826,13.3913043 L9.04347826,14.9565217 C9.04347826,15.1481739 8.88765217,15.3043478 8.69565217,15.3043478 L7.30434783,15.3043478 C7.11269565,15.3043478 6.95652174,15.1481739 6.95652174,14.9565217 L6.95652174,13.3913043 C6.95652174,13.2326957 6.84904348,13.0942609 6.69565217,13.0546087 C6.22086957,12.9318261 5.76765217,12.7443478 5.34886957,12.4970435 C5.29391304,12.4643478 5.23304348,12.4486957 5.17217391,12.4486957 C5.08208696,12.4486957 4.99304348,12.4834783 4.92591304,12.5506087 L3.81982609,13.6566957 C3.68382609,13.7923478 3.46330435,13.7923478 3.32730435,13.6566957 L2.34295652,12.6723478 C2.20695652,12.5363478 2.20695652,12.3154783 2.34295652,12.1798261 L3.44904348,11.0737391 C3.5613913,10.9613913 3.58330435,10.7874783 3.5026087,10.6511304 C3.25565217,10.2323478 3.06782609,9.77947826 2.94504348,9.30434783 C2.90573913,9.15095652 2.76730435,9.04347826 2.60869565,9.04347826 L1.04347826,9.04347826 C0.851826087,9.04347826 0.695652174,8.88730435 0.695652174,8.69565217 L0.695652174,7.30434783 C0.695652174,7.11269565 0.851826087,6.95652174 1.04347826,6.95652174 L2.60869565,6.95652174 C2.76730435,6.95652174 2.90573913,6.84904348 2.9453913,6.69565217 C3.06817391,6.22086957 3.25565217,5.76765217 3.50295652,5.34886957 C3.58365217,5.21217391 3.56173913,5.03826087 3.4493913,4.92626087 L2.34330435,3.82017391 C2.20765217,3.68452174 2.20765217,3.46365217 2.34330435,3.32765217 L3.32765217,2.34330435 C3.46365217,2.20730435 3.68417391,2.20765217 3.82017391,2.34330435 L4.92626087,3.4493913 C5.0386087,3.56173913 5.21217391,3.584 5.34886957,3.50295652 C5.76765217,3.256 6.22052174,3.06817391 6.69565217,2.9453913 C6.84904348,2.90573913 6.95652174,2.76730435 6.95652174,2.60869565 L6.95652174,1.04347826 C6.95652174,0.851826087 7.11269565,0.695652174 7.30434783,0.695652174 L8.69565217,0.695652174 C8.88765217,0.695652174 9.04347826,0.851826087 9.04347826,1.04347826 L9.04347826,2.60869565 C9.04347826,2.76730435 9.15095652,2.90573913 9.30434783,2.9453913 C9.77947826,3.06817391 10.2326957,3.256 10.6507826,3.50295652 C10.7878261,3.58365217 10.9617391,3.56208696 11.0737391,3.4493913 L12.1798261,2.34330435 C12.3109565,2.21182609 12.5415652,2.21217391 12.6723478,2.34330435 L13.6566957,3.32765217 C13.722087,3.39304348 13.7582609,3.48069565 13.7582609,3.57391304 C13.7582609,3.66713043 13.722087,3.75478261 13.6566957,3.82017391 L12.5506087,4.92626087 C12.4386087,5.0386087 12.4163478,5.21252174 12.4970435,5.34886957 C12.7443478,5.76765217 12.9318261,6.22052174 13.0549565,6.69565217 C13.0942609,6.84904348 13.2326957,6.95652174 13.3913043,6.95652174 L14.9565217,6.95652174 C15.1485217,6.95652174 15.3043478,7.11269565 15.3043478,7.30434783 L15.3043478,8.69565217 L15.3043478,8.69565217 Z" id="Shape"></path>
                <path d="M8,4.8 C6.23573333,4.8 4.8,6.23573333 4.8,8 C4.8,9.76426667 6.23573333,11.2 8,11.2 C9.76462222,11.2 11.2,9.76426667 11.2,8 C11.2,6.23573333 9.76462222,4.8 8,4.8 Z M8,10.4888889 C6.62755556,10.4888889 5.51111111,9.37244444 5.51111111,8 C5.51111111,6.62755556 6.62755556,5.51111111 8,5.51111111 C9.37208889,5.51111111 10.4888889,6.62755556 10.4888889,8 C10.4888889,9.37244444 9.37208889,10.4888889 8,10.4888889 Z" id="Shape"></path>
            </g>
        </g>
    </g>
</svg>