
<svg width="16px" height="14px" viewBox="0 0 16 14" version="1.1" xmlns="http://www.w3.org/2000/svg" xmlns:xlink="http://www.w3.org/1999/xlink">
    <g id="Page-1" stroke="none" stroke-width="1" fill="none" fill-rule="evenodd">
        <g id="Posted-Services" transform="translate(-160.000000, -797.000000)" fill="#000000" fill-rule="nonzero">
            <g id="3658732" transform="translate(160.000000, 797.000000)">
                <path d="M15.53125,0 L0.46875,0 C0.209875,0 0,0.210816143 0,0.470852018 L0,13.529148 C0,13.7891839 0.209875,14 0.46875,14 L15.53125,14 C15.790125,14 16,13.7891839 16,13.529148 L16,0.470852018 C16,0.210816143 15.790125,0 15.53125,0 Z M15.0625,2.82511211 L13.1875,2.82511211 L13.1875,0.941704036 L15.0625,0.941704036 L15.0625,2.82511211 Z M12.25,0.941704036 L12.25,2.82511211 L0.9375,2.82511211 L0.9375,0.941704036 L12.25,0.941704036 Z M0.9375,13.058296 L0.9375,3.76681614 L15.0625,3.76681614 L15.0625,13.058296 L0.9375,13.058296 Z" id="Shape"></path>
                <path d="M12.4827586,8 L9.51724138,8 C9.23158621,8 9,8.22386667 9,8.5 C9,8.77613333 9.23158621,9 9.51724138,9 L12.4827586,9 C12.7684138,9 13,8.77613333 13,8.5 C13,8.22386667 12.7684138,8 12.4827586,8 Z" id="Path"></path>
                <path d="M12.4767442,6 L10.5232558,6 C10.2342791,6 10,6.22386667 10,6.5 C10,6.77613333 10.2342791,7 10.5232558,7 L12.4767442,7 C12.7657209,7 13,6.77613333 13,6.5 C13,6.22386667 12.7657209,6 12.4767442,6 Z" id="Path"></path>
                <path d="M12.4827586,10 L9.51724138,10 C9.23158621,10 9,10.2238667 9,10.5 C9,10.7761333 9.23158621,11 9.51724138,11 L12.4827586,11 C12.7684138,11 13,10.7761333 13,10.5 C13,10.2238667 12.7684138,10 12.4827586,10 Z" id="Path"></path>
                <path d="M7.5,11 L3.5,11 C3.22386667,11 3,10.7761333 3,10.5 L3,6.5 C3,6.22386667 3.22386667,6 3.5,6 L7.5,6 C7.77613333,6 8,6.22386667 8,6.5 L8,10.5 C8,10.7761333 7.77613333,11 7.5,11 Z M4,10 L7,10 L7,7 L4,7 L4,10 Z" id="Shape"></path>
            </g>
        </g>
    </g>
</svg>