
<svg width="35px" height="38px" viewBox="0 0 35 38" version="1.1" xmlns="http://www.w3.org/2000/svg" xmlns:xlink="http://www.w3.org/1999/xlink">
    <g id="Page-1" stroke="none" stroke-width="1" fill="none" fill-rule="evenodd">
        <g id="Search-services-list" transform="translate(-142.000000, -1064.000000)" fill="#000" fill-rule="nonzero">
            <g id="Group-4" transform="translate(120.000000, 870.000000)">
                <g id="2097743" transform="translate(39.500000, 213.000000) rotate(-27.000000) translate(-39.500000, -213.000000) translate(28.000000, 198.000000)">
                    <path d="M22.5251555,23.8741992 C22.439714,23.8169531 21.7966602,23.3520117 21.1527548,21.9454687 C19.9702556,19.3625391 19.7220495,15.7239844 19.7220495,13.1264648 C19.7220495,13.1151563 19.7218224,13.1039648 19.721425,13.0927148 C19.7085378,9.65976563 17.7168139,6.70042969 14.866644,5.37263672 L14.866644,3.34195312 C14.866644,1.49917969 13.416466,0 11.6339461,0 L11.3660401,0 C9.58352014,0 8.13334211,1.49917969 8.13334211,3.34195312 L8.13334211,5.37251953 C5.27363463,6.70458984 3.27793669,9.67904297 3.27793669,13.1264648 C3.27793669,15.7239844 3.02973052,19.3624805 1.84723138,21.9454687 C1.20338276,23.3519531 0.560328953,23.8168945 0.474830671,23.8741992 C0.114784122,24.0461719 -0.0627411952,24.4434375 0.0200888136,24.8460352 C0.103713627,25.2526172 0.471935311,25.5329297 0.87404974,25.5329297 L7.11593526,25.5329297 C7.15079313,28.0021289 9.1034013,30 11.5000215,30 C13.8966416,30 15.8492498,28.0021289 15.8841077,25.5329297 L22.1259932,25.5329297 C22.5280508,25.5329297 22.8963293,25.2526172 22.9799541,24.8460352 C23.0626706,24.4434375 22.885202,24.0461133 22.5251555,23.8741992 Z M9.8365519,3.34195313 C9.8365519,2.47001953 10.5226955,1.76068359 11.3660969,1.76068359 L11.6340028,1.76068359 C12.4774042,1.76068359 13.1635478,2.47001953 13.1635478,3.34195313 L13.1635478,4.80193359 C12.6260327,4.68726563 12.0696126,4.62691406 11.4997944,4.62691406 C10.9301465,4.62691406 10.3738967,4.68720703 9.83660868,4.80175781 L9.83660868,3.34195313 L9.8365519,3.34195313 Z M11.5000215,28.2393164 C10.0425199,28.2393164 8.85366229,27.0312891 8.81908829,25.5329883 L14.1808979,25.5329883 C14.1463806,27.0312305 12.9575231,28.2393164 11.5000215,28.2393164 L11.5000215,28.2393164 Z M14.9290362,23.7721875 C14.9288659,23.7721875 2.81479261,23.7721875 2.81479261,23.7721875 C2.96211535,23.5352344 3.11204959,23.2669336 3.26107548,22.9637109 C4.40241509,20.6408789 4.98114649,17.3311523 4.98114649,13.1264648 C4.98114649,9.410625 7.90540346,6.38759766 11.4997376,6.38759766 C15.0940717,6.38759766 18.0183287,9.410625 18.0183287,13.1293945 C18.0183287,13.1402344 18.018499,13.1510156 18.0188964,13.1617969 C18.0221324,17.3496094 18.6008071,20.6474414 19.7389675,22.9637109 C19.8879933,23.2669922 20.0379843,23.5352344 20.1852503,23.7721875 L14.9290362,23.7721875 Z" id="Shape"></path>
                </g>
            </g>
        </g>
    </g>
</svg>