
<svg width="24px" height="24px" viewBox="0 0 24 24" version="1.1" xmlns="http://www.w3.org/2000/svg" xmlns:xlink="http://www.w3.org/1999/xlink">
    <g id="Page-1" stroke="none" stroke-width="1" fill="none" fill-rule="evenodd">
        <g id="Single-Service-Page" transform="translate(-1050.000000, -1223.000000)" fill="#000000" fill-rule="nonzero">
            <g id="chat" transform="translate(1050.000000, 1223.000000)">
                <path d="M21.9622709,14.3706751 C21.7682089,13.8907229 21.2217416,13.6587389 20.7417429,13.8528948 C20.2616972,14.0469569 20.0298541,14.5933777 20.2239161,15.0734237 L21.3280538,17.8046371 L18.0487811,16.3590618 C17.8114067,16.254437 17.5412668,16.2527964 17.3026737,16.3546087 C16.1819891,16.8327796 14.9814297,17.0752166 13.7343705,17.0752166 C8.71533668,17.0752166 5.34376734,13.1454587 5.34376734,9.47510649 C5.34376734,5.28439593 9.10777316,1.87499634 13.7343705,1.87499634 C18.3609678,1.87499634 22.1249736,5.28439593 22.1249736,9.47510649 C22.1249736,9.80205898 22.094505,10.1935582 22.0414895,10.5491513 C21.9650834,11.0612596 22.3182856,11.5383056 22.8303937,11.6147117 C23.3425486,11.6913053 23.8195942,11.3379154 23.8959534,10.825807 C23.9630313,10.3762766 24,9.8965588 24,9.47510649 C24,6.92839272 22.9215653,4.53880364 20.9632735,2.74654151 C19.0281848,0.97541997 16.4608946,0 13.7343705,0 C11.0078463,0 8.44060302,0.97541997 6.50546744,2.74649464 C4.75553449,4.34811651 3.70891222,6.42692495 3.50589712,8.66843619 C1.30479348,10.1260583 0,12.4617882 0,14.9777051 C0,16.5493271 0.49517059,18.0405116 1.43768376,19.323806 L0.0683748271,22.7110806 C-0.0746404254,23.0647987 0.0109999766,23.4699385 0.284983638,23.7355318 C0.463530048,23.9086877 0.69879506,24 0.937716313,24 C1.06535661,24 1.19407502,23.9739376 1.31566845,23.9203127 L5.26389254,22.1798473 C6.25707746,22.5495497 7.3069341,22.7367212 8.39058753,22.7367212 C8.41402497,22.7367212 8.43704053,22.7348931 8.4600561,22.7332056 C10.0274114,22.7213462 11.551173,22.3090814 12.8708884,21.5375673 C14.052979,20.8464437 15.0253515,19.8970393 15.7070528,18.7758383 C16.3726292,18.6563073 17.0231588,18.4757452 17.6545634,18.2343863 L22.6842847,20.4515694 C22.805925,20.5051475 22.9345965,20.5312568 23.0622368,20.5312568 C23.3011581,20.5312099 23.53647,20.4398976 23.7150164,20.2667885 C23.989,20.0011953 24.0746404,19.5961024 23.9316252,19.2423374 L21.9622709,14.3706751 Z M8.39068128,20.8593343 C8.37788443,20.8593343 8.36541572,20.8607405 8.35271262,20.8612561 C7.39543387,20.8563811 6.47406127,20.6682253 5.61357913,20.301101 C5.37502637,20.1992418 5.10489296,20.2008824 4.86751858,20.3055541 L2.67203992,21.2733335 L3.38027245,19.5213837 C3.51119398,19.197525 3.45114727,18.827682 3.22455411,18.5618544 C2.34166578,17.5260595 1.87502637,16.2867338 1.87502637,14.9777051 C1.87502637,13.4795362 2.50525911,12.0600233 3.60794373,10.9836817 C3.95125534,12.8551624 4.91992469,14.6454089 6.38115526,16.0517499 C8.19947865,17.8017309 10.6046286,18.8155414 13.2017312,18.9376036 C11.9824219,20.1378357 10.2375515,20.8593343 8.39068128,20.8593343 Z" id="Shape"></path>
                <circle id="Oval" cx="13.8666667" cy="9.6" r="1.06666667"></circle>
                <circle id="Oval" cx="17.6" cy="9.6" r="1.06666667"></circle>
                <circle id="Oval" cx="10.1333333" cy="9.6" r="1.06666667"></circle>
            </g>
        </g>
    </g>
</svg>