
<svg width="16px" height="18px" viewBox="0 0 16 18" version="1.1" xmlns="http://www.w3.org/2000/svg" xmlns:xlink="http://www.w3.org/1999/xlink">
    <g id="Page-1" stroke="none" stroke-width="1" fill="none" fill-rule="evenodd">
        <g id="Posted-Services" transform="translate(-161.000000, -956.000000)" fill="#000000" fill-rule="nonzero">
            <g id="Group-5" transform="translate(161.000000, 956.000000)">
                <path d="M8,0 C3.5888,0 0,3.56424609 0,7.9453125 C0,11.6473008 2.58933333,14.8042266 6.1456,15.6405937 L7.55416889,17.7620977 C7.65272889,17.9105625 7.82033778,18 8,18 C8.17966222,18 8.34727111,17.9105625 8.44583111,17.7620625 L9.8544,15.6405586 C13.4109156,14.8041914 16,11.6470547 16,7.9453125 C16,3.56424609 12.4112,0 8,0 L8,0 Z M9.41866667,14.6561484 C9.28024889,14.684625 9.15893333,14.7662227 9.08138667,14.8830469 L8,16.5117656 L6.91861333,14.8830469 C6.84103111,14.7662227 6.71971556,14.6845898 6.58133333,14.6561484 C3.38592,13.9993594 1.06666667,11.1770508 1.06666667,7.9453125 C1.06666667,4.14580078 4.17696,1.0546875 8,1.0546875 C11.82304,1.0546875 14.9333333,4.14580078 14.9333333,7.9453125 C14.9333333,11.1770508 12.61408,13.9993594 9.41866667,14.6561484 Z" id="Shape"></path>
                <path d="M12.9743817,6.18427168 C12.9175881,6.00196403 12.7732322,5.86411456 12.5941303,5.82111163 L9.55543322,5.09162635 L7.95014439,2.26747672 C7.85588391,2.10164989 7.68480567,2 7.49998256,2 C7.31515945,2 7.14408121,2.10164989 7.04985561,2.26747672 L5.44456678,5.09162635 L2.40586974,5.82111163 C2.22673296,5.86415094 2.08241186,6.00200041 2.02561835,6.18427168 C1.96882484,6.36661571 2.00789654,6.56664115 2.12856531,6.71118481 L4.17686445,9.16540744 L3.90297879,12.4063798 C3.88686171,12.5973099 3.96797038,12.7830738 4.11668705,12.8957473 C4.26533395,13.0084207 4.45978544,13.0314138 4.62901476,12.956468 L7.49998256,11.6833704 L10.3709852,12.956468 C10.5396913,13.0313775 10.7344219,13.008639 10.883313,12.8957473 C11.0320296,12.7830738 11.1131383,12.5973099 11.0970212,12.4063798 L10.8231356,9.16540744 L12.8714347,6.71118481 C12.9921035,6.56664115 13.0311752,6.36657933 12.9743817,6.18427168 L12.9743817,6.18427168 Z M9.88761246,8.62386895 C9.794259,8.73570565 9.74859395,8.88232306 9.76104805,9.03003192 L9.977896,11.596164 L7.70472526,10.588142 C7.57400948,10.5301499 7.42606029,10.5300772 7.29523986,10.588142 L5.02206911,11.596164 L5.23891706,9.03003192 C5.25137117,8.88232306 5.20570611,8.73570565 5.11235265,8.62386895 L3.49056301,6.68069712 L5.89783342,6.10281352 C6.03730545,6.06930617 6.15755559,5.97769757 6.23057084,5.84923453 L7.49998256,3.61592031 L8.76942916,5.84927091 C8.84244441,5.97769757 8.96269455,6.06934255 9.10216658,6.1028499 L11.509437,6.68073351 L9.88761246,8.62386895 Z" id="Shape"></path>
            </g>
        </g>
    </g>
</svg>