<?xml version="1.0" encoding="UTF-8"?>
<svg width="34px" height="34px" viewBox="0 0 34 34" version="1.1" xmlns="http://www.w3.org/2000/svg" xmlns:xlink="http://www.w3.org/1999/xlink">
    <title>1827943</title>
    <g id="Page-1" stroke="none" stroke-width="1" fill="none" fill-rule="evenodd">
        <g id="iPhone-11-Pro-Max--search" transform="translate(-392.000000, -72.000000)" fill="#FFFFFF" fill-rule="nonzero">
            <g id="1827943" transform="translate(392.000000, 72.000000)">
                <path d="M24.5466906,0 L2.45459199,0 C1.10106059,0 0,1.12139022 0,2.49991279 L0,5.25146484 C0,6.30144388 0.401179492,7.28864397 1.13059681,8.02995951 L9.30520757,16.3500104 C9.63087692,16.6814314 9.81862485,17.1428571 9.81862485,17.612915 L9.81862485,28.9285714 C9.81862485,29.3470982 10.0572265,29.7271728 10.431695,29.9013846 C10.571928,29.9686105 10.7219209,30 10.8706295,30 C11.1177068,30 11.361702,29.9113246 11.5551004,29.7412981 L15.4841941,26.3114711 C16.3412594,25.5657087 16.8320751,24.4770159 16.8320751,23.328683 L16.8320751,17.6427351 C16.8320751,17.1614293 17.0270145,16.6913713 17.3678373,16.3570731 L25.8218867,8.05010116 C26.5708237,7.31427871 27,6.28287181 27,5.22295272 L27,2.49991279 C27.0015394,1.12139022 25.9004788,0 24.5466906,0 Z" id="Path"></path>
                <path d="M31.5500705,17 L22.4499295,17 C21.0989691,17 20,18.1120453 20,19.4790802 L20,31.5209198 C20,32.8879547 21.0989691,34 22.4499295,34 L31.5500705,34 C32.9010309,34 34,32.8879547 34,31.5209198 L34,19.4790802 C34,18.1120453 32.9010309,17 31.5500705,17 L31.5500705,17 Z M28.749968,29.0415802 L25.250032,29.0415802 C24.6704265,29.0415802 24.2000256,28.5655822 24.2000256,27.9790802 C24.2000256,27.3925781 24.6704265,26.9165802 25.250032,26.9165802 L28.749968,26.9165802 C29.3295735,26.9165802 29.7999744,27.3925781 29.7999744,27.9790802 C29.7999744,28.5655822 29.3295735,29.0415802 28.749968,29.0415802 Z M28.749968,24.7915802 L25.250032,24.7915802 C24.6704265,24.7915802 24.2000256,24.3155822 24.2000256,23.7290802 C24.2000256,23.1425781 24.6704265,22.6665802 25.250032,22.6665802 L28.749968,22.6665802 C29.3295735,22.6665802 29.7999744,23.1425781 29.7999744,23.7290802 C29.7999744,24.3155822 29.3295735,24.7915802 28.749968,24.7915802 Z" id="Shape"></path>
            </g>
        </g>
    </g>
</svg>