<?xml version="1.0" encoding="UTF-8"?>
<svg width="24px" height="24px" viewBox="0 0 24 24" version="1.1" xmlns="http://www.w3.org/2000/svg" xmlns:xlink="http://www.w3.org/1999/xlink">
    <title>709579</title>
    <g id="Page-1" stroke="none" stroke-width="1" fill="none" fill-rule="evenodd">
        <g id="iPhone-11-Pro-Max--Home" transform="translate(-397.000000, -77.000000)" fill="#FFFFFF" fill-rule="nonzero">
            <g id="709579" transform="translate(397.000000, 77.000000)">
                <path d="M12.0000252,13.5652174 C4.26172925,13.5652174 0,16.9613014 0,23.1280199 C0,23.6096482 0.42077553,24 0.939941608,24 L23.0600584,24 C23.5792245,24 24,23.6096482 24,23.1280199 C24,16.961628 19.738321,13.5652174 12.0000252,13.5652174 Z M1.91408852,22.2560397 C2.2838076,17.6452687 5.67229559,15.3092243 12.0000252,15.3092243 C18.3277547,15.3092243 21.716293,17.6452687 22.0863139,22.2560397 L1.91408852,22.2560397 L1.91408852,22.2560397 Z" id="Shape"></path>
                <path d="M12,0 C8.41648716,0 5.71428571,2.60810989 5.71428571,6.06647762 C5.71428571,9.62613164 8.53403592,12.5217391 12,12.5217391 C15.4659641,12.5217391 18.2857143,9.62613164 18.2857143,6.0667655 C18.2857143,2.60810989 15.5835128,0 12,0 Z M12,10.7289095 C9.5788912,10.7289095 7.6094678,8.63749879 7.6094678,6.0667655 C7.6094678,3.59045733 9.45601776,1.79311753 12,1.79311753 C14.5032611,1.79311753 16.3905322,3.63018497 16.3905322,6.0667655 C16.3905322,8.63749879 14.4211088,10.7289095 12,10.7289095 Z" id="Shape"></path>
            </g>
        </g>
    </g>
</svg>