
<svg width="24px" height="28px" viewBox="0 0 24 28" version="1.1" xmlns="http://www.w3.org/2000/svg" xmlns:xlink="http://www.w3.org/1999/xlink">
    <title>3892927</title>
    <g id="Page-1" stroke="none" stroke-width="1" fill="none" fill-rule="evenodd">
        <g id="Account-dropdown-Copy" transform="translate(-150.000000, -154.000000)" fill="#FFFFFF" fill-rule="nonzero">
            <g id="3892927" transform="translate(150.000000, 154.000000)">
                <path d="M3.07692308,0 L1.53846154,0 L1.53846154,19.2530048 L0,19.2530048 L0,24.0396635 L1.53846154,24.0396635 L1.53846154,27.2307692 L3.07692308,27.2307692 L3.07692308,24.0396635 L4.61538462,24.0396635 L4.61538462,19.2530048 L3.07692308,19.2530048 L3.07692308,0 Z M3.07692308,22.4441106 L1.53846154,22.4441106 L1.53846154,20.8485577 L3.07692308,20.8485577 L3.07692308,22.4441106 Z" id="Shape"></path>
                <path d="M24,19.2530048 L22.4615385,19.2530048 L22.4615385,0 L20.9230769,0 L20.9230769,19.2530048 L19.3846154,19.2530048 L19.3846154,24.0396635 L20.9230769,24.0396635 L20.9230769,27.2307692 L22.4615385,27.2307692 L22.4615385,24.0396635 L24,24.0396635 L24,19.2530048 Z M22.4615385,22.4441106 L20.9230769,22.4441106 L20.9230769,20.8485577 L22.4615385,20.8485577 L22.4615385,22.4441106 Z" id="Shape"></path>
                <path d="M16,0 L14.4615385,0 L14.4615385,11.8070913 L12.9230769,11.8070913 L12.9230769,16.59375 L14.4615385,16.59375 L14.4615385,27.2307692 L16,27.2307692 L16,16.59375 L17.5384615,16.59375 L17.5384615,11.8070913 L16,11.8070913 L16,0 Z M16,14.9981971 L14.4615385,14.9981971 L14.4615385,13.4026442 L16,13.4026442 L16,14.9981971 Z" id="Shape"></path>
                <path d="M9.53846154,0 L8,0 L8,2.85348678 L6.46153846,2.85348678 L6.46153846,7.64014543 L8,7.64014543 L8,27.2307692 L9.53846154,27.2307692 L9.53846154,7.64014543 L11.0769231,7.64014543 L11.0769231,2.85348678 L9.53846154,2.85348678 L9.53846154,0 Z M9.53846154,6.04459255 L8,6.04459255 L8,4.44903966 L9.53846154,4.44903966 L9.53846154,6.04459255 Z" id="Shape"></path>
            </g>
        </g>
    </g>
</svg>
