<?xml version="1.0" encoding="UTF-8"?>
<svg width="28px" height="31px" viewBox="0 0 28 31" version="1.1" xmlns="http://www.w3.org/2000/svg" xmlns:xlink="http://www.w3.org/1999/xlink">
    <title>837928</title>
    <g id="Symbols" stroke="none" stroke-width="1" fill="none" fill-rule="evenodd">
        <g id="header" transform="translate(-959.000000, -67.000000)">
            <rect id="Rectangle" fill="#FFFFFF" x="0" y="44" width="1440" height="88"></rect>
            <g id="Group-4" transform="translate(752.000000, 67.000000)" fill="#9D9D9D" fill-rule="nonzero">
                <g id="837928" transform="translate(207.000000, 0.000000)">
                    <path d="M6.5,12 C5.12144444,12 4,13.2378208 4,14.759434 L4,22.240566 C4,23.7621792 5.12144444,25 6.5,25 C7.87855556,25 9,23.7621792 9,22.240566 L9,14.759434 C9,13.2378208 7.87855556,12 6.5,12 Z" id="Path"></path>
                    <path d="M2.87742183,15.6863134 C2.87742183,15.4512589 2.93218876,15.2241899 3,15 C1.26606561,15.3174077 0,16.229595 0,17.3159953 L0,20.6840047 C0,21.770405 1.26606561,22.6825923 3,23 C2.93218876,22.7758101 2.87742183,22.5487411 2.87742183,22.3136866 L2.87742183,15.6863134 Z" id="Path"></path>
                    <path d="M21.2142857,13 C19.678181,13 18.4285714,14.2031391 18.4285714,15.6821192 L18.4285714,22.9536424 C18.4285714,24.4326225 19.678181,25.6357616 21.2142857,25.6357616 C21.4934762,25.6357616 21.7579333,25.5840265 22.0123619,25.5101192 C21.6666857,26.6133046 20.614119,27.4238411 19.3571429,27.4238411 L16.4003857,27.4238411 C16.0157714,26.3854437 14.9947143,25.6357616 13.7857143,25.6357616 C12.2496095,25.6357616 11,26.8389007 11,28.3178808 C11,29.7968609 12.2496095,31 13.7857143,31 C14.9947143,31 16.0157714,30.2503179 16.4003857,29.2119205 L19.3571429,29.2119205 C21.9170905,29.2119205 24,27.2064702 24,24.7417219 L24,22.9536424 L24,15.6821192 C24,14.2031391 22.7503905,13 21.2142857,13 Z" id="Path"></path>
                    <path d="M25,15 C25.0678112,15.2241899 25.1225782,15.4512589 25.1225782,15.6863134 L25.1225782,22.3136866 C25.1225782,22.5487411 25.0678112,22.7758101 25,23 C26.7339344,22.6825923 28,21.770405 28,20.6840047 L28,17.3159953 C28,16.229595 26.7339344,15.3174077 25,15 Z" id="Path"></path>
                    <path d="M14,0 C6.27996444,0 0,6.26929272 0,13.9762094 L0,14 C0.55608,13.5797199 1.19945778,13.2721811 1.90941333,13.1344689 C2.34565333,6.84840472 7.59447111,1.86349458 14,1.86349458 C20.4055289,1.86349458 25.6543467,6.84840472 26.0905867,13.1344068 C26.80048,13.272119 27.4438578,13.5797199 28,14 L28,13.9762094 C28,6.26929272 21.7200356,0 14,0 Z" id="Path"></path>
                </g>
            </g>
        </g>
    </g>
</svg>
