
<svg width="62px" height="20px" viewBox="0 0 62 20" version="1.1" xmlns="http://www.w3.org/2000/svg" xmlns:xlink="http://www.w3.org/1999/xlink">
    <g id="Page-1" stroke="none" stroke-width="1" fill="none" fill-rule="evenodd">
        <g id="Promotions-right" transform="translate(-647.000000, -1178.000000)" fill-rule="nonzero">
            <g id="196550" transform="translate(647.000000, 1178.490566)">
                <ellipse id="Oval" fill="#EF9122" cx="33.0843499" cy="4.93996569" rx="5.36502972" ry="4.93996569"></ellipse>
                <path d="M27.7193202,4.93996569 C27.7193202,2.18498483 30.0923141,0 33.0843499,0 C36.0763857,0 38.4493796,2.18498483 38.4493796,4.93996569 C38.4493796,7.69494656 36.0763857,9.87993139 33.0843499,9.87993139" id="Path" fill="#F26E21"></path>
                <path d="M29.5076634,1.40339935 C31.5398717,-0.467799782 34.8930152,-0.467799782 36.9252235,1.40339935 C38.9574317,3.27459847 38.9574317,6.36207703 36.9252235,8.23327616" id="Path" fill="#F44500"></path>
                <path d="M2.78186726,0 L0,0 L0,9.05660377 L2.78186726,9.05660377 C4.27215329,9.05660377 5.36502972,8.68694648 6.25920133,8.04004621 C7.35207776,7.20831729 8.04754457,5.91451675 8.04754457,4.52830189 C8.04754457,1.84828648 5.96114413,0 2.78186726,0 Z M5.06697251,6.83865999 C4.4708581,7.30073161 3.67603888,7.57797459 2.48381005,7.57797459 L1.88769564,7.57797459 L1.88769564,1.57104351 L2.38445765,1.57104351 C3.57668648,1.57104351 4.37150569,1.75587216 4.96762011,2.31035811 C5.66308692,2.86484405 6.06049653,3.69657297 6.06049653,4.52830189 C6.15984893,5.3600308 5.76243932,6.28417405 5.06697251,6.83865999 Z" id="Shape" fill="#595A5B"></path>
                <rect id="SVGCleanerId_0" fill="#595A5B" x="8.94171619" y="0" width="1.78834324" height="9.05660377"></rect>
                <path d="M15.8320975,4.2525271 C14.5697376,3.90081433 14.2541476,3.63702976 14.2541476,3.1973888 C14.2541476,2.66981965 14.8853275,2.23017869 15.7269008,2.23017869 C16.3580808,2.23017869 16.8840641,2.40603507 17.4100474,2.93360422 L18.462014,1.79053773 C17.6204407,1.17504038 16.5684741,0.823327616 15.4113108,0.823327616 C13.6229676,0.823327616 12.1502144,1.87846592 12.1502144,3.28531699 C12.1502144,4.51631168 12.7813943,5.04388083 14.6749342,5.65937817 C15.5165075,5.92316275 15.8320975,6.01109094 16.0424908,6.18694733 C16.4632775,6.36280371 16.6736708,6.71451648 16.6736708,7.06622925 C16.6736708,7.76965478 16.0424908,8.29722393 15.0957209,8.29722393 C14.1489509,8.29722393 13.3073776,7.85758297 12.886591,7.15415744 L11.624231,8.20929574 C12.571001,9.35236224 13.7281643,9.87993139 15.2009175,9.87993139 C17.3048507,9.87993139 18.777604,8.73686489 18.777604,7.06622925 C18.777604,5.57144998 18.146424,4.95595264 15.8320975,4.2525271 Z" id="Path" fill="#595A5B"></path>
                <path d="M18.777604,5.03496503 C18.777604,7.7899459 20.9424406,9.87993139 23.6720171,9.87993139 C24.4250037,9.87993139 25.083867,9.68993271 25.930977,9.30993535 L25.930977,7.12495052 C25.1779903,7.88494524 24.519127,8.16994326 23.7661404,8.16994326 C21.9777972,8.16994326 20.6600706,6.8399525 20.6600706,4.93996569 C20.6600706,3.13497823 21.9777972,1.70998813 23.6720171,1.70998813 C24.519127,1.70998813 25.1779903,1.99498615 25.930977,2.75498087 L25.930977,0.569996042 C25.1779903,0.189998681 24.519127,0 23.6720171,0 C21.0365639,0.189998681 18.777604,2.37498351 18.777604,5.03496503 Z" id="Path" fill="#3B3D3F"></path>
                <polygon id="Path" fill="#000000" points="42.4213841 6.74150434 39.7294569 0.823327616 37.555208 0.823327616 41.8001701 9.87993139 42.9390624 9.87993139 47.3910958 0.823327616 45.2168469 0.823327616"></polygon>
                <polygon id="Path" fill="#000000" points="47.3910958 9.05660377 52.7561255 9.05660377 52.7561255 7.57797459 49.3420157 7.57797459 49.3420157 5.08278783 52.6585795 5.08278783 52.6585795 3.51174432 49.3420157 3.51174432 49.3420157 1.57104351 52.7561255 1.57104351 52.7561255 0 47.3910958 0"></polygon>
                <g id="Group" fill="#595A5B">
                    <path d="M58.6129496,5.27346549 C60.1056394,4.99832816 60.9017405,4.08120373 60.9017405,2.70551708 C60.9017405,1.0546931 59.6080761,0.0458562216 57.4187979,0.0458562216 L54.5329311,0.0458562216 L54.5329311,9.03367566 L56.4236714,9.03367566 L56.4236714,5.45689037 L56.7222093,5.45689037 L59.4090508,9.03367566 L61.6978417,9.03367566 L58.6129496,5.27346549 Z M57.0207473,4.17291617 L56.4236714,4.17291617 L56.4236714,1.42154287 L57.0207473,1.42154287 C58.214899,1.42154287 58.9114876,1.88010509 58.9114876,2.79722952 C58.9114876,3.71435395 58.214899,4.17291617 57.0207473,4.17291617 Z" id="Shape"></path>
                    <path d="M2.78635414,0.0458562216 L0,0.0458562216 L0,9.03367566 L2.78635414,9.03367566 C4.27904386,9.03367566 5.37368299,8.66682589 6.26929682,8.02483879 C7.36393595,7.1994268 8.06052448,5.91545259 8.06052448,4.53976594 C8.06052448,1.88010509 5.97075888,0.0458562216 2.78635414,0.0458562216 Z M5.07514505,6.83257702 C4.47806916,7.29113924 3.68196797,7.56627657 2.4878162,7.56627657 L1.89074031,7.56627657 L1.89074031,1.60496776 L2.38830355,1.60496776 C3.58245533,1.60496776 4.37855651,1.78839264 4.9756324,2.3386673 C5.67222093,2.88894196 6.07027152,3.71435395 6.07027152,4.53976594 C6.16978417,5.36517793 5.77173358,6.28230236 5.07514505,6.83257702 Z" id="Shape"></path>
                </g>
                <rect id="SVGCleanerId_0_1_" fill="#595A5B" x="8.94171619" y="0" width="1.78834324" height="9.05660377"></rect>
                <g id="Group" transform="translate(11.624231, 0.000000)" fill="#595A5B">
                    <path d="M4.06188452,3.78532311 C2.86574675,3.40441009 2.5667123,3.11872533 2.5667123,2.64258406 C2.5667123,2.07121453 3.16478119,1.59507326 3.96220637,1.59507326 C4.56027526,1.59507326 5.058666,1.78552977 5.55705674,2.3568993 L6.55383821,1.11893199 C5.75641303,0.452334208 4.75963155,0.0714211908 3.66317193,0.0714211908 C1.96864342,0.0714211908 0.573149349,1.21416024 0.573149349,2.73781231 C0.573149349,4.07100787 1.17121824,4.6423774 2.96542489,5.30897518 C3.76285008,5.59465994 4.06188452,5.6898882 4.26124081,5.88034471 C4.65995341,6.07080122 4.8593097,6.45171423 4.8593097,6.83262725 C4.8593097,7.59445328 4.26124081,8.16582281 3.36413749,8.16582281 C2.46703416,8.16582281 1.66960897,7.68968154 1.27089638,6.9278555 L0.0747586108,8.07059456 C0.97186194,9.30856186 2.06832157,9.87993139 3.46381563,9.87993139 C5.45737859,9.87993139 6.85287266,8.64196408 6.85287266,6.83262725 C6.85287266,5.21374693 6.25480377,4.54714915 4.06188452,3.78532311 Z" id="Path"></path>
                    <path d="M12.7338834,9.68947488 C13.5313086,9.68947488 14.2290556,9.49901837 15.1261589,9.11810535 L15.1261589,6.9278555 C14.3287337,7.68968154 13.6309867,7.9753663 12.8335615,7.9753663 C10.9396767,7.9753663 9.54418264,6.64217074 9.54418264,4.73760565 C9.54418264,3.78532311 9.94289523,3.02349708 10.5409641,2.3568993 L9.2451482,1.11893199 C8.24836672,1.97598628 7.55061969,3.30918184 7.55061969,4.73760565 C7.45094154,7.59445328 9.74353894,9.68947488 12.7338834,9.68947488 Z" id="Path"></path>
                </g>
                <path d="M58.6179173,5.26761648 C60.1082033,4.99037351 60.9030225,4.06623027 60.9030225,2.6800154 C60.9030225,1.01655757 59.6114413,0 57.4256884,0 L54.5444688,0 L54.5444688,9.05660377 L56.4321644,9.05660377 L56.4321644,5.45244513 L56.7302216,5.45244513 L59.4127365,9.05660377 L61.6978417,9.05660377 L58.6179173,5.26761648 Z M57.0282788,4.15864459 L56.4321644,4.15864459 L56.4321644,1.38621486 L57.0282788,1.38621486 C58.2205077,1.38621486 58.9159745,1.84828648 58.9159745,2.77242973 C58.9159745,3.69657297 58.2205077,4.15864459 57.0282788,4.15864459 Z" id="Shape" fill="#000000"></path>
                <g id="Group" transform="translate(14.306746, 12.349914)" fill="#F26E21">
                    <polygon id="Path" points="0.0984884682 5.35506003 0.0984884682 0.0720411664 3.84105026 3.81818182 3.84105026 0.360205832 4.62895801 0.360205832 4.62895801 5.6432247 0.886396214 1.89708405 0.886396214 5.35506003"></polygon>
                    <polygon id="Path" points="8.56849673 1.12864494 6.5002389 1.12864494 6.5002389 2.2813036 8.47000827 2.2813036 8.47000827 3.04974271 6.5002389 3.04974271 6.5002389 4.68267581 8.56849673 4.68267581 8.56849673 5.35506003 5.71233116 5.35506003 5.71233116 0.360205832 8.56849673 0.360205832"></polygon>
                    <polygon id="Path" points="11.0307084 1.12864494 11.0307084 5.35506003 10.2428007 5.35506003 10.2428007 1.12864494 9.06093907 1.12864494 9.06093907 0.45626072 12.2125701 0.45626072 12.2125701 1.12864494"></polygon>
                    <polygon id="Path" points="13.3944317 0.45626072 14.6747818 3.81818182 16.0536203 0.264150943 17.3339704 3.81818182 18.712809 0.45626072 19.6976936 0.45626072 17.4324589 5.73927959 16.1521088 2.18524871 14.7732702 5.73927959 12.6065239 0.45626072"></polygon>
                    <path d="M19.7961821,2.85763293 C19.7961821,2.18524871 20.0916475,1.51286449 20.5840899,1.03259005 C21.0765322,0.552315609 21.7659515,0.264150943 22.4553708,0.264150943 C23.14479,0.264150943 23.8342093,0.552315609 24.3266516,1.03259005 C24.819094,1.51286449 25.1145594,2.18524871 25.1145594,2.85763293 C25.1145594,3.53001715 24.819094,4.20240137 24.3266516,4.68267581 C23.8342093,5.16295026 23.14479,5.45111492 22.4553708,5.45111492 C21.7659515,5.45111492 21.1750207,5.25900515 20.6825783,4.7787307 C20.0916475,4.29845626 19.7961821,3.72212693 19.7961821,2.85763293 Z M20.5840899,2.85763293 C20.5840899,3.43396226 20.7810668,3.81818182 21.1750207,4.20240137 C21.5689745,4.58662093 21.9629284,4.7787307 22.4553708,4.7787307 C22.9478131,4.7787307 23.4402554,4.58662093 23.8342093,4.20240137 C24.2281632,3.81818182 24.4251401,3.43396226 24.4251401,2.85763293 C24.4251401,2.2813036 24.2281632,1.89708405 23.8342093,1.51286449 C23.4402554,1.12864494 23.0463016,0.936535163 22.4553708,0.936535163 C21.9629284,0.936535163 21.4704861,1.12864494 21.0765322,1.51286449 C20.7810668,1.89708405 20.5840899,2.37735849 20.5840899,2.85763293 Z" id="Shape"></path>
                    <path d="M27.8722365,3.24185249 L29.448052,5.35506003 L28.4631673,5.35506003 L26.9858403,3.33790738 L26.8873518,3.33790738 L26.8873518,5.35506003 L26.0994441,5.35506003 L26.0994441,0.360205832 L26.9858403,0.360205832 C27.6752596,0.360205832 28.1677019,0.45626072 28.4631673,0.744425386 C28.7586327,1.03259005 28.9556097,1.41680961 28.9556097,1.80102916 C28.9556097,2.18524871 28.8571212,2.47341338 28.6601442,2.66552316 C28.4631673,3.04974271 28.1677019,3.24185249 27.8722365,3.24185249 Z M26.8873518,2.66552316 L27.0843288,2.66552316 C27.773748,2.66552316 28.1677019,2.37735849 28.1677019,1.89708405 C28.1677019,1.41680961 27.773748,1.12864494 27.0843288,1.12864494 L26.7888634,1.12864494 L26.7888634,2.66552316 L26.8873518,2.66552316 L26.8873518,2.66552316 Z" id="Shape"></path>
                    <polygon id="Path" points="30.925379 2.37735849 32.8951484 0.360205832 33.8800331 0.360205832 31.6147983 2.56946827 33.8800331 5.25900515 32.8951484 5.25900515 31.0238675 3.04974271 30.8268905 3.24185249 30.8268905 5.25900515 30.0389828 5.25900515 30.0389828 0.264150943 30.8268905 0.264150943 30.8268905 2.37735849"></polygon>
                </g>
                <g id="Group" transform="translate(37.555208, 0.823328)" fill="#3B3D3F">
                    <polygon id="Path" points="14.3715205 7.28946157 12.5465656 7.28946157 12.5465656 5.69903359 10.5188378 3.93189139 10.5188378 8.70317533 15.9937028 8.70317533"></polygon>
                    <polygon id="Path" points="7.07170059 0.927749655 4.84120004 5.87574781 2.20515395 0.044178555 0.0760397912 0.044178555 4.23288171 8.96824666 5.34813198 8.96824666 8.59249641 2.2531063"></polygon>
                </g>
            </g>
        </g>
    </g>
</svg>