
<svg width="16px" height="11px" viewBox="0 0 16 11" version="1.1" xmlns="http://www.w3.org/2000/svg" xmlns:xlink="http://www.w3.org/1999/xlink">
    <g id="Page-1" stroke="none" stroke-width="1" fill="none" fill-rule="evenodd" opacity="0.553966704">
        <g id="Account-dropdown" transform="translate(-1011.000000, -268.000000)" fill="#000000" fill-rule="nonzero">
            <g id="546394" transform="translate(1011.000000, 268.000000)">
                <path d="M15.1794391,0 L0.820529647,0 C0.369218029,0 0,0.380756092 0,0.846138972 L0,10.1538288 C0,10.6191795 0.369218029,11 0.820529647,11 L15.1794704,11 C15.6307195,11 16,10.6192439 16,10.1538288 L16,0.846138972 C16,0.380756092 15.6307507,0 15.1794391,0 Z M14.8715335,0.634572003 L8.47198345,5.58462679 C8.35692118,5.67492544 8.18029652,5.73141849 7.99995313,5.7305898 C7.81964098,5.73141849 7.64304757,5.67492544 7.52795405,5.58462679 L1.12840405,0.634572003 L14.8715335,0.634572003 Z M11.4531026,5.91124236 L14.9402833,10.3535686 C14.9437833,10.3580159 14.9480646,10.3613997 14.9517833,10.365428 L1.04818545,10.365428 C1.05187295,10.3612063 1.05618544,10.3580159 1.05968543,10.3535686 L4.54686612,5.91124236 C4.65370966,5.77502095 4.6334597,5.57531333 4.50111621,5.46487312 C4.36902272,5.35469071 4.17536684,5.37557349 4.06849205,5.51182713 L0.615373798,9.91077654 L0.615373798,1.03121576 L7.15892352,6.09225861 C7.40489179,6.28117035 7.7041412,6.36431472 7.99992188,6.36515261 C8.2952963,6.36450808 8.59479571,6.28136371 8.84092023,6.09225861 L15.38447,1.03121576 L15.38447,9.91071209 L11.9314454,5.51182713 C11.8245707,5.37560571 11.6307273,5.35465849 11.4988213,5.46487312 C11.366509,5.57505552 11.3461966,5.77502095 11.4531026,5.91124236 Z" id="Shape"></path>
            </g>
        </g>
    </g>
</svg>