
<svg width="20px" height="20px" viewBox="0 0 20 20" version="1.1" xmlns="http://www.w3.org/2000/svg" xmlns:xlink="http://www.w3.org/1999/xlink">
    <g id="Page-1" stroke="none" stroke-width="1" fill="none" fill-rule="evenodd">
        <g id="Promotions-right" transform="translate(-1050.000000, -833.000000)" fill="#000000" fill-rule="nonzero">
            <g id="1370907-copy" transform="translate(1050.000000, 833.000000)">
                <path d="M10,0 C4.4732666,0 0,4.47250367 0,10 C0,11.7539978 0.457458516,13.467102 1.32614137,14.9780273 L0.0376892187,18.979187 C-0.0521850781,19.2581177 0.0216675,19.5639038 0.228881836,19.7711182 C0.434112539,19.9763489 0.739135742,20.052948 1.02081297,19.9623108 L5.02197266,18.6738586 C6.53289797,19.5425415 8.24600219,20 10,20 C15.5267334,20 20,15.5274963 20,10 C20,4.4732666 15.5274963,0 10,0 Z M10,18.4375 C8.41567992,18.4375 6.87133789,17.9954529 5.53390504,17.1591187 C5.34149172,17.0388794 5.10253906,17.0063782 4.88021852,17.0779419 L1.99188234,18.0081177 L2.92205812,15.1197815 C2.99255371,14.9006653 2.96279906,14.6614075 2.84072875,14.466095 C2.00454711,13.1286621 1.5625,11.5843201 1.5625,10 C1.5625,5.34759523 5.34759523,1.5625 10,1.5625 C14.6524048,1.5625 18.4375,5.34759523 18.4375,10 C18.4375,14.6524048 14.6524048,18.4375 10,18.4375 Z M10.9765625,10 C10.9765625,10.5392456 10.5393982,10.9765625 10,10.9765625 C9.4606018,10.9765625 9.0234375,10.5392456 9.0234375,10 C9.0234375,9.4606018 9.4606018,9.0234375 10,9.0234375 C10.5393982,9.0234375 10.9765625,9.4606018 10.9765625,10 Z M14.8828125,10 C14.8828125,10.5392456 14.4456482,10.9765625 13.90625,10.9765625 C13.3668518,10.9765625 12.9296875,10.5392456 12.9296875,10 C12.9296875,9.4606018 13.3668518,9.0234375 13.90625,9.0234375 C14.4456482,9.0234375 14.8828125,9.4606018 14.8828125,10 Z M7.0703125,10 C7.0703125,10.5392456 6.6331482,10.9765625 6.09375,10.9765625 C5.55450438,10.9765625 5.1171875,10.5392456 5.1171875,10 C5.1171875,9.4606018 5.55450438,9.0234375 6.09375,9.0234375 C6.6331482,9.0234375 7.0703125,9.4606018 7.0703125,10 Z" id="Shape"></path>
            </g>
        </g>
    </g>
</svg>