
<svg width="26px" height="26px" viewBox="0 0 26 26" version="1.1" xmlns="http://www.w3.org/2000/svg" xmlns:xlink="http://www.w3.org/1999/xlink">
    <g id="Page-1" stroke="none" stroke-width="1" fill="none" fill-rule="evenodd">
        <g id="Promotions-right" transform="translate(-1046.000000, -757.000000)" fill="#000000" fill-rule="nonzero">
            <g id="126509" transform="translate(1046.000000, 757.000000)">
                <path d="M21.0453317,15.9025538 C20.4996663,15.3369176 19.8414925,15.0344982 19.1439407,15.0344982 C18.4520144,15.0344982 17.7882152,15.3313172 17.2200481,15.8969534 L15.4424162,17.6610663 C15.2961554,17.5826613 15.1498945,17.5098566 15.0092591,17.437052 C14.8067441,17.3362455 14.6154799,17.2410394 14.4523428,17.140233 C12.7872193,16.0873656 11.2739821,14.7152778 9.82262447,12.9399642 C9.11944733,12.0551075 8.64691228,11.3102599 8.30376184,10.5542115 C8.76504604,10.1341846 9.19257775,9.69735663 9.60885862,9.27732975 C9.7663703,9.12051971 9.92388198,8.95810932 10.0813937,8.80129928 C11.2627313,7.62522401 11.2627313,6.10192652 10.0813937,4.92585125 L8.54565477,3.39695341 C8.37126684,3.22334229 8.19125349,3.04413082 8.02249098,2.86491935 C7.68496595,2.51769713 7.33056467,2.15927419 6.96491255,1.82325269 C6.41924708,1.28561828 5.76669869,1 5.0803978,1 C4.3940969,1 3.73029768,1.28561828 3.16775596,1.82325269 C3.16213054,1.82885305 3.16213054,1.82885305 3.15650512,1.83445341 L1.24386329,3.75537634 C0.523809888,4.47222222 0.113154434,5.34587814 0.0231477595,6.35954301 C-0.111862253,7.99484767 0.371923624,9.51814516 0.743201157,10.515009 C1.65451874,12.9623656 3.01586969,15.2305108 5.04664529,17.6610663 C7.51057801,20.5900538 10.4751729,22.9030018 13.861674,24.5327061 C15.15552,25.1431452 16.882523,25.8655914 18.8120411,25.9887993 C18.9301749,25.9943996 19.053934,26 19.1664424,26 C20.4659138,26 21.5572447,25.5351703 22.4123081,24.6111111 C22.4179335,24.5999104 22.4291844,24.59431 22.4348098,24.5831093 C22.7273315,24.2302867 23.0648565,23.9110663 23.4192578,23.5694444 C23.6611507,23.3398297 23.9086691,23.0990143 24.150562,22.8469982 C24.7074783,22.2701613 25,21.5981183 25,20.9092742 C25,20.2148297 24.7018529,19.5483871 24.1336858,18.9883513 L21.0453317,15.9025538 Z M23.0592311,21.7997312 C23.0536057,21.7997312 23.0536057,21.8053315 23.0592311,21.7997312 C22.8398398,22.0349462 22.6148231,22.2477599 22.3729302,22.4829749 C22.0072781,22.8301971 21.6360005,23.1942204 21.2872247,23.6030466 C20.7190575,24.2078853 20.0496329,24.4935036 19.1720678,24.4935036 C19.0876866,24.4935036 18.9976799,24.4935036 18.9132986,24.4879032 C17.2425497,24.3814964 15.6899346,23.7318548 14.5254732,23.1774194 C11.3414871,21.6429211 8.54565477,19.4643817 6.22235748,16.703405 C4.30409023,14.4016577 3.02149511,12.2735215 2.17205712,9.98857527 C1.64889332,8.59408602 1.45762914,7.50761649 1.5420104,6.4827509 C1.59826457,5.82750896 1.85140834,5.28427419 2.31831797,4.81944444 L4.23658522,2.90972222 C4.51223066,2.65210573 4.80475236,2.51209677 5.09164863,2.51209677 C5.44604991,2.51209677 5.73294619,2.72491039 5.91295954,2.90412186 C5.91858496,2.90972222 5.92421037,2.91532258 5.92983579,2.92092294 C6.27298624,3.24014337 6.59926043,3.57056452 6.94241088,3.9233871 C7.11679881,4.10259857 7.29681216,4.28181004 7.47682551,4.46662186 L9.0125644,5.99551971 C9.60885862,6.58915771 9.60885862,7.13799283 9.0125644,7.73163082 C8.8494273,7.89404122 8.69191562,8.05645161 8.52877852,8.21326165 C8.05624348,8.69489247 7.60621011,9.14292115 7.11679881,9.5797491 C7.10554798,9.59094982 7.09429714,9.59655018 7.08867173,9.6077509 C6.60488585,10.0893817 6.69489252,10.5598118 6.79615003,10.8790323 C6.80177545,10.8958333 6.80740087,10.9126344 6.81302629,10.9294355 C7.2124309,11.8926971 7.77497262,12.7999552 8.63003603,13.8808244 L8.63566145,13.8864247 C10.1882766,15.7905466 11.825273,17.2746416 13.6310319,18.4115143 C13.861674,18.5571237 14.0979415,18.6747312 14.3229582,18.7867384 C14.5254732,18.8875448 14.7167374,18.9827509 14.8798745,19.0835573 C14.9023762,19.0947581 14.9248778,19.1115591 14.9473795,19.1227599 C15.1386437,19.2179659 15.318657,19.2627688 15.5042958,19.2627688 C15.9712054,19.2627688 16.2637271,18.9715502 16.3593592,18.8763441 L18.2832519,16.9610215 C18.4745161,16.7706093 18.7782886,16.5409946 19.1326899,16.5409946 C19.4814658,16.5409946 19.768362,16.7594086 19.94275,16.9498208 C19.9483754,16.9554211 19.9483754,16.9554211 19.9540008,16.9610215 L23.0536057,20.046819 C23.6330236,20.6180556 23.6330236,21.2060932 23.0592311,21.7997312 Z" id="Shape"></path>
                <path d="M13.6225649,6.50052385 C15.0904254,6.74705571 16.4238254,7.44182729 17.4883044,8.50639666 C18.5527834,9.57096603 19.2418934,10.9044792 19.4940069,12.3724644 C19.5556346,12.7422622 19.8749783,13 20.2391422,13 C20.2839623,13 20.32318,12.994397 20.3680001,12.988794 C20.7825867,12.921558 21.0571102,12.5293483 20.98988,12.1147265 C20.6873438,10.3385766 19.8469657,8.71931054 18.5639884,7.4362243 C17.2810111,6.15313806 15.6618826,5.31268856 13.8858834,5.01012674 C13.4712969,4.94289077 13.0847229,5.21743761 13.0118901,5.62645637 C12.9390574,6.03547513 13.2079784,6.43328789 13.6225649,6.50052385 Z" id="Path"></path>
                <path d="M25.9890079,11.1665398 C25.5136788,8.37765389 24.1998479,5.83987453 22.1810346,3.82033643 C20.1622212,1.80079834 17.6253526,0.486495765 14.8374675,0.0109960542 C14.4475909,-0.0584589597 14.0790773,0.208675709 14.0096472,0.598692326 C13.9455579,0.994051636 14.2072559,1.36269748 14.6024734,1.43215249 C17.091275,1.85422527 19.3611048,3.03496051 21.1662871,4.83544818 C22.9714694,6.64127854 24.1464402,8.91192323 24.5683615,11.4016183 C24.62711,11.7542361 24.9315342,12 25.2786847,12 C25.3214109,12 25.3587963,11.9946573 25.4015225,11.9893146 C25.7913992,11.930545 26.058438,11.5565564 25.9890079,11.1665398 Z" id="Path"></path>
            </g>
        </g>
    </g>
</svg>