
<svg width="16px" height="15px" viewBox="0 0 16 15" version="1.1" xmlns="http://www.w3.org/2000/svg" xmlns:xlink="http://www.w3.org/1999/xlink">
    <g id="Page-1" stroke="none" stroke-width="1" fill="none" fill-rule="evenodd" opacity="0.546479725">
        <g id="Account-dropdown" transform="translate(-1013.000000, -407.000000)" fill="#000000" fill-rule="nonzero">
            <g id="1828424" transform="translate(1013.000000, 407.000000)">
                <path d="M15.4843789,8 L5.51562107,8 C5.23099724,8 5,7.77600097 5,7.5 C5,7.22399903 5.23099724,7 5.51562107,7 L15.4843789,7 C15.7690028,7 16,7.22399903 16,7.5 C16,7.77600097 15.7690028,8 15.4843789,8 Z" id="Path"></path>
                <path d="M8.45406125,10 C8.3143808,10 8.17483353,9.95397604 8.06857522,9.86111861 L5.15978695,7.33500367 C4.94673768,7.14986703 4.94673768,6.84990171 5.15978695,6.6648807 L8.06857522,4.13876576 C8.28162449,3.95374475 8.62703063,3.95374475 8.84021305,4.13876576 C9.05326232,4.32378676 9.05326232,4.62375206 8.84021305,4.80877307 L6.31677762,7.00023128 L8.84021305,9.19168949 C9.05326232,9.37671049 9.05326232,9.67667579 8.84021305,9.8616968 C8.73328894,9.95397604 8.59360852,10 8.45406125,10 L8.45406125,10 Z" id="Path"></path>
                <path d="M7.23333861,15 C3.24515925,15 0,11.635206 0,7.5 C0,3.364794 3.24515925,0 7.23333861,0 C10.2258879,0 12.8680582,1.86679153 13.965551,4.75642947 C14.0654873,5.01885145 13.9405067,5.31548067 13.6874152,5.41972534 C13.4342032,5.52209737 13.1481206,5.39450688 13.0475823,5.13071163 C12.0999938,2.63520599 9.81759404,1.0227216 7.23333861,1.0227216 C3.78890885,1.0227216 0.986358881,3.9287141 0.986358881,7.5 C0.986358881,11.0712859 3.78890885,13.9772784 7.23333861,13.9772784 C9.81759404,13.9772784 12.0999938,12.364794 13.0475823,9.87003745 C13.1475185,9.60611737 13.4336011,9.47865168 13.6874152,9.58089887 C13.9405067,9.68451933 14.0654873,9.98177279 13.965551,10.2443196 C12.8680582,13.1332085 10.2258879,15 7.23333861,15 Z" id="Path"></path>
            </g>
        </g>
    </g>
</svg>