<svg width="25px" height="25px" viewBox="0 0 25 25" version="1.1" xmlns="http://www.w3.org/2000/svg" xmlns:xlink="http://www.w3.org/1999/xlink">
    <g id="Page-1" stroke="none" stroke-width="1" fill="none" fill-rule="evenodd">
        <g id="Promotions-right" transform="translate(-1046.000000, -976.000000)" fill="#000000" fill-rule="nonzero">
            <g id="2312585" transform="translate(1046.000000, 976.000000)">
                <path d="M4.45544554,6.25 L4.45544554,1.75 C4.45544554,1.49 4.48514851,1.24 4.55445545,1 L1.73267327,1 C0.782178218,1 0,1.79 0,2.75 L0,7.25 C0,8.21 0.782178218,9 1.73267327,9 L2.0990099,9 L3.36633663,10.7 C3.5049505,10.88 3.71287129,10.99 3.93069307,11 L3.96039604,11 C4.17821782,11 4.37623762,10.91 4.51485149,10.74 L6,9.03 C5.07920792,8.45 4.45544554,7.42 4.45544554,6.25 L4.45544554,6.25 Z" id="Path"></path>
                <path d="M23.2673267,1 L20.4455446,1 C20.5148515,1.24 20.5445545,1.49 20.5445545,1.75 L20.5445545,6.25 C20.5445545,7.42 19.9207921,8.45 19,9.03 L20.4851485,10.74 C20.6237624,10.91 20.8217822,11 21.039604,11 L21.0693069,11 C21.2871287,10.99 21.4950495,10.88 21.6336634,10.7 L22.8910891,9 L23.2673267,9 C24.2178218,9 25,8.21 25,7.25 L25,2.75 C25,1.79 24.2178218,1 23.2673267,1 Z" id="Path"></path>
                <path d="M12.5,10 C12.49025,10 12.4794167,10 12.4696667,10 C12.2248333,9.991 11.9973333,9.881 11.85,9.7 L10.46875,8 L7.89583333,8 C6.85041667,8 6,7.215 6,6.25 L6,1.75 C6,0.785 6.85041667,0 7.89583333,0 L17.1041667,0 C18.1495833,0 19,0.785 19,1.75 L19,6.25 C19,7.215 18.1495833,8 17.1041667,8 L14.7641667,8 L13.111,9.744 C12.9571667,9.907 12.734,10 12.5,10 Z" id="Path"></path>
                <circle id="Oval" cx="4" cy="15" r="2"></circle>
                <path d="M7,19.4 C5.94002999,20.16 5.24737631,21.38 5.24737631,22.75 L5.24737631,23 L0.787106447,23 C0.356821589,23 0,22.66 0,22.25 L0,21.75 C0,20.23 1.29085457,19 2.88605697,19 L5.50974513,19 C6.05547226,19 6.56971514,19.15 7,19.4 Z" id="Path"></path>
                <circle id="Oval" cx="21" cy="15" r="2"></circle>
                <path d="M25,21.75 L25,22.25 C25,22.66 24.6431784,23 24.2128936,23 L19.7526237,23 L19.7526237,22.75 C19.7526237,21.38 19.05997,20.16 18,19.4 C18.4302849,19.15 18.9445277,19 19.4902549,19 L22.113943,19 C23.7091454,19 25,20.23 25,21.75 Z" id="Path"></path>
                <circle id="Oval" cx="13" cy="15" r="3"></circle>
                <path d="M16,20 L10,20 C8.34509091,20 7,21.233 7,22.75 L7,24.25 C7,24.664 7.36654545,25 7.81818182,25 L18.1818182,25 C18.6334545,25 19,24.664 19,24.25 L19,22.75 C19,21.233 17.6549091,20 16,20 Z" id="Path"></path>
            </g>
        </g>
    </g>
</svg>