
<svg width="16px" height="17px" viewBox="0 0 16 17" version="1.1" xmlns="http://www.w3.org/2000/svg" xmlns:xlink="http://www.w3.org/1999/xlink">
    <g id="Page-1" stroke="none" stroke-width="1" fill="none" fill-rule="evenodd">
        <g id="Posted-Services" transform="translate(-161.000000, -1051.000000)" fill="#000000" fill-rule="nonzero">
            <g id="402593" transform="translate(161.000000, 1051.000000)">
                <path d="M11.1994955,2.05944392 C10.8314164,1.90276406 10.4026898,2.06648572 10.2418832,2.42511885 C10.0810766,2.78375199 10.2491104,3.20147638 10.6171895,3.35815625 C12.9835043,4.36539818 14.5454112,6.64577612 14.5454112,9.20533452 C14.5454112,12.7273597 11.6145517,15.5828062 7.99996591,15.5828062 C4.38490286,15.5828062 1.45452066,12.7276254 1.45452066,9.20533452 C1.45452066,6.64634079 3.01588208,4.36596285 5.38151508,3.3580566 C5.74952592,3.20127709 5.91742341,2.78348626 5.75648046,2.42491955 C5.5955716,2.06635285 5.16677675,1.90276406 4.79876591,2.05957679 C1.90823593,3.29105993 0,6.07808149 0,9.20530131 C0,13.510294 3.58161991,17 8,17 C12.4179028,17 16,13.5100615 16,9.20530131 C16,6.07735074 14.09098,3.29019631 11.1994955,2.05944392 Z" id="Path"></path>
                <path d="M8.5,8 C8.77614494,8 9,7.67439819 9,7.27273967 L9,0.727294421 C9.00002344,0.32560181 8.77614494,0 8.5,0 C8.22385506,0 8,0.32560181 8,0.727260331 L8,7.27270558 C8,7.6743641 8.22385506,8 8.5,8 Z" id="Path"></path>
            </g>
        </g>
    </g>
</svg>