
<svg width="16px" height="17px" viewBox="0 0 16 17" version="1.1" xmlns="http://www.w3.org/2000/svg" xmlns:xlink="http://www.w3.org/1999/xlink">
    <g id="Page-1" stroke="none" stroke-width="1" fill="none" fill-rule="evenodd">
        <g id="Posted-Services" transform="translate(-160.000000, -894.000000)" fill="#000000" fill-rule="nonzero">
            <g id="372754" transform="translate(160.000000, 894.000000)">
                <path d="M15.1330227,8.78218966 C15.0237057,8.61072969 15.0237057,8.3892661 15.1330227,8.21780612 L15.7413587,7.26355368 C16.2954916,6.39436717 15.9221221,5.22661984 14.9750336,4.8566395 L13.9332688,4.44957148 C13.746096,4.3763922 13.6184619,4.19719595 13.6081809,3.99289827 L13.550757,2.85602967 C13.498441,1.82062925 12.5238606,1.09952784 11.5444325,1.36847164 L10.4672373,1.6640442 C10.2737202,1.71710249 10.0672217,1.64867123 9.94124689,1.48959596 L9.23995894,0.604239615 C8.60126797,-0.202060532 7.39767499,-0.200765618 6.76005767,0.604239615 L6.05873718,1.48962916 C5.93276237,1.64873764 5.72632896,1.71710249 5.53274681,1.6640774 L4.45548652,1.36850484 C3.47413887,1.09916261 2.50134788,1.82265463 2.44916203,2.85606287 L2.39173808,3.99293147 C2.38139201,4.19719595 2.253823,4.37642541 2.0666502,4.44957148 L1.02495047,4.8566395 C0.075877353,5.22738351 -0.294498991,6.39609372 0.258560344,7.26358689 L0.866928866,8.21780612 C0.976213313,8.38923289 0.976213313,8.61076289 0.866928866,8.78218966 L0.258657949,9.7364089 C-0.295540105,10.605695 0.0779595812,11.7734756 1.024983,12.1433563 L2.06674781,12.5504243 C2.2539206,12.6236036 2.38152215,12.8027998 2.39183569,13.0070975 L2.44925964,14.1439661 C2.50157562,15.1795658 3.4763187,15.9003683 4.45558413,15.6315241 L5.53277934,15.3359516 C5.72639403,15.2829597 5.93279491,15.3513246 6.05880225,15.5103998 L6.7600902,16.395723 C7.39891131,17.2022555 8.60247176,17.2005954 9.23999147,16.395723 L9.94127943,15.5103998 C10.0672542,15.3513578 10.2738178,15.2829929 10.4672698,15.3359516 L11.5445301,15.6315241 C12.5256175,15.900966 13.4986362,15.1775072 13.5508546,14.1439661 L13.6082785,13.0070975 C13.6186246,12.802833 13.7461936,12.6236036 13.9333664,12.5504575 L14.9750661,12.1433895 C15.9240742,11.7726455 16.2944831,10.6039685 15.7414888,9.7364089 L15.1330227,8.78218966 Z M14.5862426,11.1070594 L13.5444778,11.5141274 C12.9559555,11.744091 12.5547361,12.3076776 12.5222989,12.9499221 L12.464875,14.0867907 C12.4482497,14.416197 12.1383555,14.6452973 11.8268021,14.5598993 L10.7495419,14.2643268 C10.1409781,14.0972496 9.49171334,14.312637 9.09560196,14.8127729 L8.39437907,15.698096 C8.19119915,15.9545887 7.80845958,15.9540575 7.60567007,15.698096 L6.90444718,14.8127729 C6.59738359,14.4250954 6.13825227,14.2085458 5.66382958,14.2085458 C5.52623985,14.2085458 5.38731618,14.226741 5.25044221,14.2643268 L4.17318192,14.5598993 C3.86097783,14.6454301 3.55176694,14.4155329 3.53510912,14.0867907 L3.47768517,12.9499221 C3.44524795,12.3076776 3.04399607,11.7440578 2.45550632,11.5141274 L1.41374152,11.1070262 C1.11191603,10.9890893 0.994172531,10.6174821 1.17005575,10.3415989 L1.77839173,9.38737962 C2.12205699,8.84829671 2.12205699,8.15163267 1.77839173,7.61261617 L1.17005575,6.65839693 C0.993782113,6.38194927 1.11253419,6.01064082 1.41377405,5.8929364 L2.45553886,5.48586838 C3.04406114,5.25590483 3.44528049,4.69231816 3.4777177,4.05007373 L3.53514165,2.91320513 C3.55176694,2.58379878 3.86166106,2.35469851 4.17321446,2.44009647 L5.25047475,2.73566902 C5.85903848,2.902713 6.50827073,2.68735875 6.90441465,2.18722289 L7.6057026,1.30186655 C7.80888253,1.04540705 8.19165464,1.0459383 8.39437907,1.30186655 L9.09566703,2.18725609 C9.49187602,2.68739195 10.1409781,2.90274621 10.7496069,2.73566902 L11.8268672,2.44009647 C12.1390388,2.35453249 12.4482822,2.58446284 12.46494,2.91320513 L12.5222989,4.05007373 C12.5547361,4.69231816 12.955988,5.25593803 13.5444778,5.48586838 L14.5862751,5.8929696 C14.888068,6.01084003 15.0058115,6.38251372 14.8299609,6.65839693 L14.2216574,7.61258297 C13.8779271,8.15163267 13.8779271,8.84829671 14.2216249,9.38737962 L14.8299609,10.3415656 C15.0061694,10.6180797 14.8874824,10.989355 14.5862426,11.1070594 Z" id="Shape"></path>
                <path d="M10.8449088,6.15503989 C10.6381893,5.94832004 10.3029709,5.94832004 10.0962196,6.15503989 L5.15503572,11.0962303 C4.94831615,11.3029502 4.94831615,11.638169 5.1550674,11.8449205 C5.25844303,11.9482963 5.39394335,12 5.529412,12 C5.66488064,12 5.80041265,11.9482963 5.90375659,11.8449205 L10.8449405,6.90369838 C11.0516918,6.69701022 11.0516918,6.36179141 10.8449088,6.15503989 Z" id="Path"></path>
                <path d="M6,6 C5.44858023,6 5,6.44861016 5,7 C5,7.55141977 5.44864008,8 6,8 C6.55141977,8 7,7.55138984 7,7 C7.00002992,6.44861016 6.55141977,6 6,6 Z" id="Path"></path>
                <path d="M10,10 C9.44858023,10 9,10.4486102 9,11 C9,11.5514198 9.44861016,12 10,12 C10.5513898,12 11,11.5513898 11,11 C11.0000299,10.4486102 10.5514198,10 10,10 Z" id="Path"></path>
            </g>
        </g>
    </g>
</svg>