
<svg width="25px" height="25px" viewBox="0 0 25 25" version="1.1" xmlns="http://www.w3.org/2000/svg" xmlns:xlink="http://www.w3.org/1999/xlink">
    <g id="Page-1" stroke="none" stroke-width="1" fill="none" fill-rule="evenodd">
        <g id="Promotions-right" transform="translate(-1049.000000, -1120.000000)" fill="#000000" fill-rule="nonzero">
            <g id="1288677" transform="translate(1049.000000, 1120.000000)">
                <path d="M22.6621729,0 C22.6350733,0 22.6081644,0.00114440918 22.5810648,0.00343322754 C22.4213294,0.0165939453 18.8495161,0.344276416 17.507319,2.94742583 L12.6602945,2.45513916 C11.4856572,2.33592988 10.3344937,2.74620059 9.50222838,3.57933047 L1.13968924,11.9094849 C-0.380373376,13.4313583 -0.379800884,15.9067154 1.14083427,17.4278259 L7.5548688,23.8435745 C8.32530103,24.6141434 9.33600432,25 10.3432725,25 C11.336609,25 12.3267013,24.6246338 13.079576,23.8729477 C13.4610707,23.4918594 13.4614524,22.8738785 13.0801485,22.4925995 C12.6990356,22.1111298 12.0805141,22.110939 11.6990195,22.4918365 C10.944618,23.2452393 9.70528508,23.23246 8.93676125,22.4636078 L2.52253589,16.0478592 C1.76221831,15.2873993 1.76202748,14.0497208 2.52024583,13.290596 L10.8829757,4.96025088 C11.2999672,4.54292295 11.8757398,4.33769229 12.4627722,4.39720156 L19.8941895,5.15213013 L19.9909468,6.10122681 C18.637299,6.60552979 17.3491103,6.68601992 17.3197205,6.68773652 C16.7817348,6.71672822 16.3687511,7.17582705 16.3969958,7.71369932 C16.4244772,8.23459624 16.8555909,8.63857271 17.3714389,8.63857271 C17.3888056,8.63857271 17.4061723,8.63819121 17.423539,8.63723755 C17.4861354,8.63399507 18.7359647,8.56246948 20.1941943,8.09612275 L20.6487818,12.5579834 C20.7085156,13.1435395 20.5043138,13.7180328 20.0882765,14.1347885 L15.3236961,18.8268662 C14.9395296,19.2050934 14.9349493,19.8232651 15.3133906,20.2072144 C15.6920226,20.5911636 16.3103532,20.5957413 16.6945197,20.2173233 L21.4619628,15.5225754 C21.4634895,15.5210495 21.4650163,15.5195236 21.4667338,15.517807 C22.3014801,14.6842957 22.711792,13.5334015 22.5921336,12.3601914 L22.0736138,7.27291108 C22.7304946,6.88858032 23.2843203,6.43577578 23.7270756,5.91964722 C24.572509,4.93335723 25.000951,3.74088286 25,2.37560273 L25,2.33669282 C25,1.04827881 23.9513158,0 22.6621729,0 L22.6621729,0 Z M23.0467222,2.3761749 C23.0474845,3.46717832 22.6522491,4.35237886 21.8472743,5.05237578 L21.756624,4.16259766 C21.7096767,3.70178223 21.3449762,3.33728789 20.8837092,3.29036714 L19.7508665,3.175354 C20.750501,2.22167969 22.4022451,1.98841094 22.697288,1.95369722 C22.8929018,1.97162627 23.0467222,2.13661191 23.0467222,2.33669282 L23.0467222,2.3761749 Z M15.1315174,14.3009186 C14.7502135,14.6821976 14.131883,14.6821976 13.7503883,14.3009186 C13.3688936,13.9196396 13.3688936,13.3016586 13.7503883,12.9205704 C13.8545885,12.8164292 13.8734819,12.6956939 13.871001,12.6127243 C13.8671841,12.4794006 13.8089771,12.3498917 13.7072578,12.2484207 L13.1089658,11.6502762 C12.9538106,11.4952087 12.7541891,11.4086151 12.5469338,11.4063263 C12.4015117,11.4049912 12.1940656,11.4425659 12.0053221,11.6313935 L11.8511211,11.7855072 C11.5327954,12.1034622 11.521154,12.6289368 11.8253573,12.9331589 L12.458192,13.5654449 C12.9767117,14.0836716 13.2662202,14.7674561 13.2738539,15.4911041 C13.2812968,16.2248611 12.998277,16.916275 12.476322,17.4377441 L12.4043743,17.5096512 C11.8765032,18.0374146 11.1965304,18.3004379 10.5121683,18.3004379 C9.9308612,18.3006287 9.34669151,18.1100845 8.84916441,17.7314758 L8.44018835,18.1259155 C8.2506815,18.3086396 8.00621193,18.3994293 7.76212402,18.3994293 C7.50639472,18.3994293 7.25085624,18.299675 7.05925015,18.10112 C6.68462579,17.7131653 6.69588553,17.0951843 7.08405969,16.7209625 L7.45009614,16.3679123 C7.03825742,15.9219742 6.80562008,15.3543472 6.7928336,14.7579193 C6.77909292,14.1078949 7.02699769,13.4943008 7.49112729,13.0304336 C7.87262199,12.6493454 8.49095255,12.6493454 8.87244725,13.0304336 C9.25375107,13.4117126 9.25375107,14.0296936 8.87244725,14.4109726 C8.78580461,14.4973755 8.74324671,14.6001816 8.74572766,14.7163391 C8.74839943,14.8410797 8.80412552,14.9641037 8.9029821,15.0627136 L9.93162458,16.0907745 C10.2537672,16.412735 10.7230495,16.4291382 11.0232452,16.129303 L11.0951929,16.0572052 C11.2427144,15.9099579 11.3226775,15.7161713 11.3205782,15.511322 C11.3182881,15.3015137 11.2318364,15.1006699 11.0770629,14.9459839 L10.4440374,14.3135071 C9.37302779,13.2429123 9.38466923,11.4896774 10.4698012,10.4049683 L10.624193,10.2508545 C11.1388959,9.73644258 11.8175328,9.45415498 12.5379642,9.45415498 L12.5681174,9.45415498 C13.066217,9.45968628 13.5458049,9.59968564 13.9658498,9.85660552 L14.3853222,9.4236374 C14.7607099,9.03625488 15.3788496,9.02633667 15.7664513,9.40132139 C16.1538621,9.77630615 16.1637859,10.3942871 15.7885891,10.7816696 L15.3744602,11.2091064 C15.6521365,11.6048813 15.8092001,12.0700836 15.8235133,12.5555039 C15.8427884,13.2158279 15.5971738,13.8357163 15.1315174,14.3009186 L15.1315174,14.3009186 Z" id="Shape"></path>
            </g>
        </g>
    </g>
</svg>