
<svg width="46px" height="55px" viewBox="0 0 46 55" version="1.1" xmlns="http://www.w3.org/2000/svg" xmlns:xlink="http://www.w3.org/1999/xlink">
    <g id="Page-1" stroke="none" stroke-width="1" fill="none" fill-rule="evenodd">
        <g id="Promotions-right" transform="translate(-1142.000000, -409.000000)" fill="#000" fill-rule="nonzero">
            <g id="561176" filter="url(#filter-1)" transform="translate(1151.000000, 418.000000)">
                <path d="M14,0 C6.28061538,0 0,6.32179705 0,14.0917973 C0,17.1666997 0.964923077,20.088399 2.79282051,22.5396491 L13.1370256,36.5628662 C13.1628718,36.5968311 13.202359,36.6098389 13.2310769,36.6401905 C13.748,37.1973584 14.4939487,37.0571631 14.8622564,36.5628662 C17.8410256,32.5622411 23.3010256,25.0906257 25.4003077,22.2722662 C25.4003077,22.2722662 25.4010256,22.2700983 25.4017436,22.268653 L25.4146667,22.2513092 C27.1061538,19.859317 28,17.0380669 28,14.0917973 C28,6.32179705 21.7193846,0 14,0 Z M14,21.6941412 C9.84379487,21.6941412 6.44717949,18.2752544 6.44717949,14.0917973 C6.44717949,9.90834012 9.84379487,6.4894533 14,6.4894533 C18.1562051,6.4894533 21.5528205,9.90834012 21.5528205,14.0917973 C21.5528205,18.2752544 18.1562051,21.6941412 14,21.6941412 Z" id="Shape"></path>
            </g>
        </g>
    </g>
</svg>