
<svg width="50px" height="29px" viewBox="0 0 50 29" version="1.1" xmlns="http://www.w3.org/2000/svg" xmlns:xlink="http://www.w3.org/1999/xlink">
    <g id="Page-1" stroke="none" stroke-width="1" fill="none" fill-rule="evenodd">
        <g id="Promotions-right" transform="translate(-866.000000, -1173.000000)" fill-rule="nonzero">
            <g id="196561" transform="translate(866.798561, 1173.962264)">
                <path d="M48.2014388,13.5849057 C48.2014388,21.0601977 41.7745803,27.1698113 33.7410072,27.1698113 C25.7839443,27.1698113 19.2805755,21.0601977 19.2805755,13.5849057 L19.2805755,13.5849057 C19.2805755,6.10961366 25.7074341,0 33.664497,0 C41.7745803,0 48.2014388,6.10961366 48.2014388,13.5849057 L48.2014388,13.5849057 Z" id="Path" fill="#FFB600"></path>
                <path d="M33.7410072,0 C41.6980701,0 48.2014388,6.10961366 48.2014388,13.5849057 L48.2014388,13.5849057 C48.2014388,21.0601977 41.7745803,27.1698113 33.7410072,27.1698113 C25.7839443,27.1698113 19.2805755,21.0601977 19.2805755,13.5849057" id="Path" fill="#F7981D"></path>
                <path d="M33.7410072,0 C41.6980701,0 48.2014388,6.10961366 48.2014388,13.5849057 L48.2014388,13.5849057 C48.2014388,21.0601977 41.7745803,27.1698113 33.7410072,27.1698113" id="Path" fill="#FF8500"></path>
                <path d="M14.3453619,0 C6.44390588,0.0718778077 0,6.10961366 0,13.5849057 C0,21.0601977 6.44390588,27.1698113 14.4987882,27.1698113 C18.2577333,27.1698113 21.6331126,25.804133 24.2413602,23.6477987 L24.2413602,23.6477987 L24.2413602,23.6477987 C24.7783524,23.2165319 25.2386314,22.7133872 25.6989104,22.2102426 L22.7070969,22.2102426 C22.3235311,21.7789757 21.9399653,21.2758311 21.6331126,20.8445642 L26.7728947,20.8445642 C27.0797473,20.4132974 27.3866,19.9101527 27.6167395,19.4070081 L20.7892678,19.4070081 C20.5591283,18.9757412 20.3289888,18.4725966 20.1755625,17.9694519 L28.1537317,17.9694519 C28.6140106,16.6037736 28.9208633,15.1662174 28.9208633,13.6567835 C28.9208633,12.6504942 28.767437,11.7160827 28.6140106,10.7816712 L19.7152835,10.7816712 C19.7919966,10.2785265 19.945423,9.84725966 20.0988493,9.344115 L28.0770185,9.344115 C27.9235922,8.84097035 27.6934527,8.3378257 27.4633132,7.90655885 L20.7125546,7.90655885 C20.9426941,7.4034142 21.2495468,6.97214735 21.5563994,6.4690027 L26.6961815,6.4690027 C26.3893289,5.96585804 26.005763,5.46271339 25.545484,5.03144654 L22.7070969,5.03144654 C23.1673759,4.52830189 23.6276549,4.09703504 24.1646471,3.66576819 C21.6331126,1.43755615 18.1810202,0.143755615 14.4220751,0.143755615 C14.4220751,0 14.4220751,0 14.3453619,0 Z" id="Path" fill="#FF5050"></path>
                <path d="M0,13.5126455 C0,21.0276997 6.44390588,27.1698113 14.4987882,27.1698113 C18.2577333,27.1698113 21.6331126,25.7968687 24.2413602,23.6290646 L24.2413602,23.6290646 L24.2413602,23.6290646 C24.7783524,23.1955038 25.2386314,22.6896829 25.6989104,22.1838619 L22.7070969,22.1838619 C22.3235311,21.7503011 21.9399653,21.2444801 21.6331126,20.8109193 L26.7728947,20.8109193 C27.0797473,20.3773585 27.3866,19.8715375 27.6167395,19.3657166 L20.7892678,19.3657166 C20.5591283,18.9321558 20.3289888,18.4263348 20.1755625,17.9205138 L28.1537317,17.9205138 C28.6140106,16.5475713 28.9208633,15.1023685 28.9208633,13.5849057 C28.9208633,12.5732637 28.767437,11.633882 28.6140106,10.6945002 L19.7152835,10.6945002 C19.7919966,10.1886792 19.945423,9.75511843 20.0988493,9.24929747 L28.0770185,9.24929747 C27.9235922,8.74347652 27.6934527,8.23765556 27.4633132,7.80409474 L20.7125546,7.80409474 C20.9426941,7.29827379 21.2495468,6.86471297 21.5563994,6.35889201 L26.6961815,6.35889201 C26.3893289,5.85307106 26.005763,5.3472501 25.545484,4.91368928 L22.7070969,4.91368928 C23.1673759,4.40786833 23.6276549,3.97430751 24.1646471,3.54074669 C21.6331126,1.30068246 18.1810202,0 14.4220751,0 L14.3453619,0" id="Path" fill="#E52836"></path>
                <path d="M14.6126467,27.1698113 C18.3419159,27.1698113 21.6906475,25.7968687 24.2783037,23.6290646 L24.2783037,23.6290646 L24.2783037,23.6290646 C24.8110564,23.1955038 25.2677016,22.6896829 25.7243468,22.1838619 L22.756153,22.1838619 C22.3756153,21.7503011 21.9950776,21.2444801 21.6906475,20.8109193 L26.7898523,20.8109193 C27.0942825,20.3773585 27.3987126,19.8715375 27.6270352,19.3657166 L20.8534646,19.3657166 C20.625142,18.9321558 20.3968194,18.4263348 20.2446043,17.9205138 L28.159788,17.9205138 C28.6164332,16.5475713 28.9208633,15.1023685 28.9208633,13.5849057 C28.9208633,12.5732637 28.7686482,11.633882 28.6164332,10.6945002 L19.7879591,10.6945002 C19.8640666,10.1886792 20.0162817,9.75511843 20.1684968,9.24929747 L28.0836804,9.24929747 C27.9314654,8.74347652 27.7031427,8.23765556 27.4748201,7.80409474 L20.7773571,7.80409474 C21.0056797,7.29827379 21.3101098,6.86471297 21.6145399,6.35889201 L26.7137448,6.35889201 C26.4093147,5.85307106 26.028777,5.3472501 25.5721318,4.91368928 L22.756153,4.91368928 C23.2127982,4.40786833 23.6694434,3.97430751 24.2021961,3.54074669 C21.6906475,1.30068246 18.2658084,0 14.5365392,0 L14.4604317,0" id="Path" fill="#CB2026"></path>
                <g id="Group" transform="translate(1.928058, 9.962264)" fill="#FFFFFF">
                    <path d="M18.1618161,7.01271838 L18.3902666,5.79622642 C18.3141164,5.79622642 18.1618161,5.86778477 18.0095157,5.86778477 C17.4764645,5.86778477 17.4003144,5.58155136 17.4764645,5.43843466 L17.9333656,2.93389238 L18.7710175,2.93389238 L18.999468,1.57428372 L18.2379663,1.57428372 L18.3902666,0.715583508 L16.8672632,0.715583508 C16.8672632,0.715583508 15.9534611,5.43843466 15.9534611,6.01090147 C15.9534611,6.86960168 16.4865123,7.22739343 17.1718639,7.22739343 C17.6287649,7.22739343 18.0095157,7.08427673 18.1618161,7.01271838 Z" id="Path"></path>
                    <path d="M18.6948673,4.72285115 C18.6948673,6.72648498 20.1417206,7.22739343 21.3601233,7.22739343 C22.5023759,7.22739343 22.9592769,7.01271838 22.9592769,7.01271838 L23.2638776,5.65310971 C23.2638776,5.65310971 22.4262257,6.01090147 21.664724,6.01090147 C19.9894202,6.01090147 20.2940209,4.86596785 20.2940209,4.86596785 L23.416178,4.86596785 C23.416178,4.86596785 23.6446285,3.93570929 23.6446285,3.57791754 C23.6446285,2.64765898 23.1115773,1.50272537 21.4362735,1.50272537 C19.8371199,1.35960867 18.6948673,2.93389238 18.6948673,4.72285115 Z M21.3601233,2.64765898 C22.1977752,2.64765898 22.0454749,3.57791754 22.0454749,3.64947589 L20.3701711,3.64947589 C20.3701711,3.57791754 20.5224714,2.64765898 21.3601233,2.64765898 Z" id="Shape"></path>
                    <path d="M31.0311952,7.01271838 L31.3357959,5.43843466 C31.3357959,5.43843466 30.5742942,5.79622642 30.041243,5.79622642 C28.9751406,5.79622642 28.5182395,5.00908456 28.5182395,4.15038435 C28.5182395,2.43298393 29.4320416,1.50272537 30.498144,1.50272537 C31.2596457,1.50272537 31.8688471,1.93207547 31.8688471,1.93207547 L32.0972976,0.429350105 C32.0972976,0.429350105 31.1834956,0.0715583508 30.3458437,0.0715583508 C28.5943897,0.0715583508 26.8429357,1.50272537 26.8429357,4.2219427 C26.8429357,6.01090147 27.7567378,7.22739343 29.5843419,7.22739343 C30.1935433,7.22739343 31.0311952,7.01271838 31.0311952,7.01271838 Z" id="Path"></path>
                    <path d="M9.78529714,1.35960867 C8.71919473,1.35960867 7.95769301,1.64584207 7.95769301,1.64584207 L7.72924249,2.86233403 C7.72924249,2.86233403 8.41459404,2.57610063 9.40454628,2.57610063 C9.93759749,2.57610063 10.3944985,2.64765898 10.3944985,3.07700908 C10.3944985,3.36324249 10.3183483,3.43480084 10.3183483,3.43480084 C10.3183483,3.43480084 9.86144731,3.43480084 9.6329968,3.43480084 C8.33844387,3.43480084 6.89159059,3.93570929 6.89159059,5.58155136 C6.89159059,6.86960168 7.80539266,7.15583508 8.33844387,7.15583508 C9.40454628,7.15583508 9.86144731,6.51180992 9.93759749,6.51180992 L9.86144731,7.08427673 L11.2321504,7.08427673 L11.8413518,3.14856744 C11.8413518,1.43116702 10.3183483,1.35960867 9.78529714,1.35960867 Z M10.0898978,4.57973445 C10.0898978,4.7944095 9.93759749,5.93934312 9.02379542,5.93934312 C8.56689438,5.93934312 8.41459404,5.58155136 8.41459404,5.36687631 C8.41459404,5.00908456 8.64304456,4.5081761 9.78529714,4.5081761 C10.0137477,4.57973445 10.0898978,4.57973445 10.0898978,4.57973445 Z" id="Shape"></path>
                    <path d="M13.2882051,7.15583508 C13.6689559,7.15583508 15.5727102,7.22739343 15.5727102,5.29531796 C15.5727102,3.50635919 13.7451061,3.86415094 13.7451061,3.14856744 C13.7451061,2.79077568 14.0497068,2.64765898 14.582758,2.64765898 C14.8112085,2.64765898 15.6488604,2.71921733 15.6488604,2.71921733 L15.8773109,1.43116702 C15.8773109,1.43116702 15.3442597,1.28805031 14.4304577,1.28805031 C13.2882051,1.28805031 12.1459525,1.71740042 12.1459525,3.14856744 C12.1459525,4.7944095 14.0497068,4.6512928 14.0497068,5.29531796 C14.0497068,5.72466806 13.5166556,5.79622642 13.1359047,5.79622642 C12.4505532,5.79622642 11.7652016,5.58155136 11.7652016,5.58155136 L11.5367511,6.86960168 C11.6129013,7.01271838 11.9936521,7.15583508 13.2882051,7.15583508 Z" id="Path"></path>
                    <path d="M43.6721238,0.214675052 L43.3675231,2.14675052 C43.3675231,2.14675052 42.7583217,1.43116702 41.9206699,1.43116702 C40.5499667,1.43116702 39.331564,3.00545073 39.331564,4.86596785 C39.331564,6.01090147 39.9407654,7.22739343 41.2353183,7.22739343 C42.1491204,7.22739343 42.6821716,6.65492662 42.6821716,6.65492662 L42.6060214,7.15583508 L44.1290248,7.15583508 L45.2712774,0.286233403 L43.6721238,0.214675052 Z M42.9867723,4.00726765 C42.9867723,4.7944095 42.6060214,5.79622642 41.7683695,5.79622642 C41.2353183,5.79622642 40.9307176,5.36687631 40.9307176,4.6512928 C40.9307176,3.50635919 41.4637688,2.79077568 42.1491204,2.79077568 C42.6821716,2.79077568 42.9867723,3.14856744 42.9867723,4.00726765 Z" id="Shape"></path>
                    <polygon id="Path" points="1.48492836 7.08427673 2.39873043 1.93207547 2.55103077 7.08427673 3.61713318 7.08427673 5.59703766 1.93207547 4.75938577 7.08427673 6.35853939 7.08427673 7.57694214 0.214675052 5.06398646 0.214675052 3.54098301 4.43661775 3.46483284 0.214675052 1.25647784 0.214675052 0.0380750861 7.08427673"></polygon>
                    <path d="M25.0914818,7.08427673 C25.5483828,4.72285115 25.624533,2.79077568 26.6906354,3.14856744 C26.8429357,2.21830887 27.0713863,1.86051712 27.2236866,1.50272537 C27.2236866,1.50272537 27.1475364,1.50272537 26.9190859,1.50272537 C26.2337344,1.50272537 25.7006832,2.36142558 25.7006832,2.36142558 L25.8529835,1.57428372 L24.4061302,1.57428372 L23.416178,7.15583508 L25.0914818,7.15583508 L25.0914818,7.08427673 Z" id="Path"></path>
                    <path d="M34.5341031,1.35960867 C33.4680007,1.35960867 32.706499,1.64584207 32.706499,1.64584207 L32.4780485,2.86233403 C32.4780485,2.86233403 33.1634,2.57610063 34.1533523,2.57610063 C34.6864035,2.57610063 35.1433045,2.64765898 35.1433045,3.07700908 C35.1433045,3.36324249 35.0671543,3.43480084 35.0671543,3.43480084 C35.0671543,3.43480084 34.6102533,3.43480084 34.3818028,3.43480084 C33.0872499,3.43480084 31.6403966,3.93570929 31.6403966,5.58155136 C31.6403966,6.86960168 32.5541987,7.15583508 33.0872499,7.15583508 C34.1533523,7.15583508 34.6102533,6.51180992 34.6864035,6.51180992 L34.6102533,7.08427673 L35.9809564,7.08427673 L36.5901578,3.14856744 C36.666308,1.43116702 35.0671543,1.35960867 34.5341031,1.35960867 Z M34.914854,4.57973445 C34.914854,4.7944095 34.7625537,5.93934312 33.8487516,5.93934312 C33.3918506,5.93934312 33.2395502,5.58155136 33.2395502,5.36687631 C33.2395502,5.00908456 33.4680007,4.5081761 34.6102533,4.5081761 C34.8387038,4.57973445 34.8387038,4.57973445 34.914854,4.57973445 Z" id="Shape"></path>
                    <path d="M37.8847107,7.08427673 C38.3416118,4.72285115 38.4177619,2.79077568 39.4838643,3.14856744 C39.6361647,2.21830887 39.8646152,1.86051712 40.0169155,1.50272537 C40.0169155,1.50272537 39.9407654,1.50272537 39.7123149,1.50272537 C39.0269633,1.50272537 38.4939121,2.36142558 38.4939121,2.36142558 L38.6462124,1.57428372 L37.1993592,1.57428372 L36.2094069,7.15583508 L37.8847107,7.15583508 L37.8847107,7.08427673 Z" id="Path"></path>
                </g>
                <g id="Group" transform="translate(1.928058, 9.962264)" fill="#DCE5E5">
                    <path d="M15.8011608,6.01090147 C15.8011608,6.86960168 16.334212,7.22739343 17.0195635,7.22739343 C17.5526147,7.22739343 18.0095157,7.08427673 18.1618161,7.01271838 L18.3902666,5.79622642 C18.3141164,5.79622642 18.1618161,5.86778477 18.0095157,5.86778477 C17.4764645,5.86778477 17.4003144,5.58155136 17.4764645,5.43843466 L17.9333656,2.93389238 L18.7710175,2.93389238 L18.999468,1.57428372 L18.2379663,1.57428372 L18.3902666,0.715583508" id="Path"></path>
                    <path d="M19.456369,4.72285115 C19.456369,6.72648498 20.1417206,7.22739343 21.3601233,7.22739343 C22.5023759,7.22739343 22.9592769,7.01271838 22.9592769,7.01271838 L23.2638776,5.65310971 C23.2638776,5.65310971 22.4262257,6.01090147 21.664724,6.01090147 C19.9894202,6.01090147 20.2940209,4.86596785 20.2940209,4.86596785 L23.416178,4.86596785 C23.416178,4.86596785 23.6446285,3.93570929 23.6446285,3.57791754 C23.6446285,2.64765898 23.1115773,1.50272537 21.4362735,1.50272537 C19.8371199,1.35960867 19.456369,2.93389238 19.456369,4.72285115 Z M21.3601233,2.64765898 C22.1977752,2.64765898 22.3500756,3.57791754 22.3500756,3.64947589 L20.3701711,3.64947589 C20.3701711,3.57791754 20.5224714,2.64765898 21.3601233,2.64765898 Z" id="Shape"></path>
                    <path d="M31.0311952,7.01271838 L31.3357959,5.43843466 C31.3357959,5.43843466 30.5742942,5.79622642 30.041243,5.79622642 C28.9751406,5.79622642 28.5182395,5.00908456 28.5182395,4.15038435 C28.5182395,2.43298393 29.4320416,1.50272537 30.498144,1.50272537 C31.2596457,1.50272537 31.8688471,1.93207547 31.8688471,1.93207547 L32.0972976,0.429350105 C32.0972976,0.429350105 31.1834956,0.0715583508 30.3458437,0.0715583508 C28.5943897,0.0715583508 27.6044375,1.50272537 27.6044375,4.2219427 C27.6044375,6.01090147 27.7567378,7.22739343 29.5843419,7.22739343 C30.1935433,7.22739343 31.0311952,7.01271838 31.0311952,7.01271838 Z" id="Path"></path>
                    <path d="M7.72924249,2.93389238 C7.72924249,2.93389238 8.41459404,2.64765898 9.40454628,2.64765898 C9.93759749,2.64765898 10.3944985,2.71921733 10.3944985,3.14856744 C10.3944985,3.43480084 10.3183483,3.50635919 10.3183483,3.50635919 C10.3183483,3.50635919 9.86144731,3.50635919 9.6329968,3.50635919 C8.33844387,3.50635919 6.89159059,4.00726765 6.89159059,5.65310971 C6.89159059,6.94116003 7.80539266,7.22739343 8.33844387,7.22739343 C9.40454628,7.22739343 9.86144731,6.58336827 9.93759749,6.58336827 L9.86144731,7.15583508 L11.2321504,7.15583508 L11.8413518,3.22012579 C11.8413518,1.57428372 10.3183483,1.50272537 9.70914697,1.50272537 M10.8513996,4.57973445 C10.8513996,4.7944095 9.93759749,5.93934312 9.02379542,5.93934312 C8.56689438,5.93934312 8.41459404,5.58155136 8.41459404,5.36687631 C8.41459404,5.00908456 8.64304456,4.5081761 9.78529714,4.5081761 C10.0137477,4.57973445 10.8513996,4.57973445 10.8513996,4.57973445 Z" id="Shape"></path>
                    <path d="M11.6129013,7.01271838 C11.6129013,7.01271838 12.0698023,7.15583508 13.3643552,7.15583508 C13.7451061,7.15583508 15.6488604,7.22739343 15.6488604,5.29531796 C15.6488604,3.50635919 13.8212563,3.86415094 13.8212563,3.14856744 C13.8212563,2.79077568 14.125857,2.64765898 14.6589082,2.64765898 C14.8873587,2.64765898 15.7250106,2.71921733 15.7250106,2.71921733 L15.9534611,1.43116702 C15.9534611,1.43116702 15.4204099,1.28805031 14.5066078,1.28805031 C13.3643552,1.28805031 12.9836044,1.71740042 12.9836044,3.14856744 C12.9836044,4.7944095 14.125857,4.6512928 14.125857,5.29531796 C14.125857,5.72466806 13.5928058,5.79622642 13.2120549,5.79622642" id="Path"></path>
                    <path d="M43.3675231,2.14675052 C43.3675231,2.14675052 42.7583217,1.43116702 41.9206699,1.43116702 C40.5499667,1.43116702 40.0930657,3.00545073 40.0930657,4.86596785 C40.0930657,6.01090147 39.9407654,7.22739343 41.2353183,7.22739343 C42.1491204,7.22739343 42.6821716,6.65492662 42.6821716,6.65492662 L42.6060214,7.15583508 L44.1290248,7.15583508 L45.2712774,0.286233403 M43.291373,4.00726765 C43.291373,4.7944095 42.6060214,5.79622642 41.7683695,5.79622642 C41.2353183,5.79622642 40.9307176,5.36687631 40.9307176,4.6512928 C40.9307176,3.50635919 41.4637688,2.79077568 42.1491204,2.79077568 C42.6821716,2.79077568 43.291373,3.14856744 43.291373,4.00726765 Z" id="Shape"></path>
                    <polygon id="Path" points="1.48492836 7.08427673 2.39873043 1.93207547 2.55103077 7.08427673 3.61713318 7.08427673 5.59703766 1.93207547 4.75938577 7.08427673 6.35853939 7.08427673 7.57694214 0.214675052 5.67318784 0.214675052 3.54098301 4.43661775 3.46483284 0.214675052 2.62718094 0.214675052 0.0380750861 7.08427673"></polygon>
                    <path d="M23.4923282,7.08427673 L25.0914818,7.08427673 C25.5483828,4.72285115 25.624533,2.79077568 26.6906354,3.14856744 C26.8429357,2.21830887 27.0713863,1.86051712 27.2236866,1.50272537 C27.2236866,1.50272537 27.1475364,1.50272537 26.9190859,1.50272537 C26.2337344,1.50272537 25.7006832,2.36142558 25.7006832,2.36142558 L25.8529835,1.57428372" id="Path"></path>
                    <path d="M32.4780485,2.93389238 C32.4780485,2.93389238 33.1634,2.64765898 34.1533523,2.64765898 C34.6864035,2.64765898 35.1433045,2.71921733 35.1433045,3.14856744 C35.1433045,3.43480084 35.0671543,3.50635919 35.0671543,3.50635919 C35.0671543,3.50635919 34.6102533,3.50635919 34.3818028,3.50635919 C33.0872499,3.50635919 31.6403966,4.00726765 31.6403966,5.65310971 C31.6403966,6.94116003 32.5541987,7.22739343 33.0872499,7.22739343 C34.1533523,7.22739343 34.6102533,6.58336827 34.6864035,6.58336827 L34.6102533,7.15583508 L35.9809564,7.15583508 L36.5901578,3.22012579 C36.5901578,1.57428372 35.0671543,1.50272537 34.457953,1.50272537 M35.6002055,4.57973445 C35.6002055,4.7944095 34.6864035,5.93934312 33.7726014,5.93934312 C33.3157004,5.93934312 33.1634,5.58155136 33.1634,5.36687631 C33.1634,5.00908456 33.3918506,4.5081761 34.5341031,4.5081761 C34.8387038,4.57973445 35.6002055,4.57973445 35.6002055,4.57973445 Z" id="Shape"></path>
                    <path d="M36.2855571,7.08427673 L37.8847107,7.08427673 C38.3416118,4.72285115 38.4177619,2.79077568 39.4838643,3.14856744 C39.6361647,2.21830887 39.8646152,1.86051712 40.0169155,1.50272537 C40.0169155,1.50272537 39.9407654,1.50272537 39.7123149,1.50272537 C39.0269633,1.50272537 38.4939121,2.36142558 38.4939121,2.36142558 L38.6462124,1.57428372" id="Path"></path>
                </g>
            </g>
        </g>
    </g>
</svg>