
<svg width="62px" height="17px" viewBox="0 0 62 17" version="1.1" xmlns="http://www.w3.org/2000/svg" xmlns:xlink="http://www.w3.org/1999/xlink">
    <g id="Page-1" stroke="none" stroke-width="1" fill="none" fill-rule="evenodd">
        <g id="Promotions-right" transform="translate(-513.000000, -1176.000000)" fill-rule="nonzero">
            <g id="196565" transform="translate(513.000000, 1176.679245)">
                <path d="M47.6846182,2.58094952 C46.2022724,2.58094952 45.0163958,2.9574185 44.0281653,3.14565299 L43.7316961,5.31034964 C44.2258114,5.12211515 45.6093341,4.74564616 46.7952107,4.65152892 C47.9810874,4.65152892 48.6728487,4.83976341 48.4752026,5.87505311 C44.9175728,5.87505311 42.5458195,6.53387383 42.0517043,8.79268772 C41.3599429,12.5573775 45.7081572,12.6514948 47.388149,10.9573844 L47.1905029,11.9926741 L50.3528406,11.9926741 L51.7363633,5.87505311 C52.2304786,3.33388748 49.8587253,2.48683227 47.6846182,2.58094952 Z M47.8822643,8.88680497 C47.6846182,9.63974293 46.9928568,9.92209467 46.2022724,10.0162119 C45.5105111,10.0162119 44.9175728,9.63974293 45.312865,8.88680497 C45.7081572,8.32210149 46.5975646,8.32210149 47.289326,8.32210149 C47.4869721,8.32210149 47.7834412,8.32210149 48.0799104,8.32210149 C47.9810874,8.22798425 47.8822643,8.60445323 47.8822643,8.88680497 Z" id="Shape" fill="#32A6CE"></path>
                <path d="M43.7275318,5.23779567 C44.2204739,5.04752328 45.6007117,4.66697848 46.7837726,4.57184229 C47.9668336,4.57184229 48.6569525,4.76211468 48.4597757,5.80861286 C44.9105928,5.80861286 42.5444708,6.47456625 42.0515287,8.757835 C41.3614098,12.5632829 45.6993001,12.6584191 47.3753031,10.9459676 L47.1781263,11.9924657 L50.3329556,11.9924657 L51.7131934,5.80861286 C52.3047239,3.23993551 49.8400135,2.57398213 47.6710684,2.57398213 M47.8682452,8.8529712 C47.6710684,9.61406079 46.9809495,9.89946938 46.1922422,9.99460558 C45.5021233,9.99460558 44.9105928,9.61406079 45.3049464,8.8529712 C45.6993001,8.28215401 46.5865958,8.28215401 47.2767147,8.28215401 C47.4738915,8.28215401 47.7696568,8.28215401 48.065422,8.28215401 C47.9668336,8.18701781 47.8682452,8.56756261 47.8682452,8.8529712 Z" id="Shape" fill="#1A80AD"></path>
                <polygon id="Path" fill="#32A6CE" points="54.557493 0 51.8023699 12.0119166 55.1932906 12.0119166 58.05438 0"></polygon>
                <polygon id="Path" fill="#1A80AD" points="56.9947173 0 51.8023699 12.0119166 55.1932906 12.0119166 58.05438 0 54.557493 0 54.557493 0"></polygon>
                <path d="M39.5709708,0 L33.8022145,0 L31.2600508,12.0119166 L34.6821943,12.0119166 L35.5621741,8.31594225 L38.0065623,8.31594225 C40.353175,8.31594225 42.3086856,7.02235123 42.7975632,4.71236728 C43.2864409,2.03278588 41.2331548,0 39.5709708,0 Z M39.4731952,4.15797113 C39.2776442,4.98956535 38.3976644,5.5439615 37.5176847,5.5439615 L35.9532762,5.5439615 L36.6377049,2.77198075 L38.2998889,2.77198075 C39.1798686,2.77198075 39.6687463,3.3263769 39.4731952,4.15797113 Z" id="Shape" fill="#32A6CE"></path>
                <path d="M39.6477768,0 L35.7465089,0 L31.2600508,12.0119166 L34.6736602,12.0119166 L35.5514455,8.31594225 L37.989738,8.31594225 C40.3304987,8.31594225 42.2811327,7.02235123 42.7687912,4.71236728 C43.3539814,2.03278588 41.3058157,0 39.6477768,0 Z M39.5502451,4.15797113 C39.3551817,4.98956535 38.4773964,5.5439615 37.5996112,5.5439615 L36.039104,5.5439615 L36.7218259,2.77198075 L38.3798648,2.77198075 C39.25765,2.77198075 39.7453085,3.3263769 39.5502451,4.15797113 Z" id="Shape" fill="#1A80AD"></path>
                <path d="M16.2848313,2.58094952 C14.787317,2.58094952 13.5893055,2.9574185 12.6907969,3.14565299 L12.391294,5.31034964 C12.7906312,5.12211515 14.2881455,4.74564616 15.486157,4.65152892 C16.6841685,4.65152892 17.3830085,4.83976341 17.18334,5.87505311 C13.6891398,5.87505311 11.2931168,6.53387383 10.7939453,8.79268772 C10.0951053,12.5573775 14.3879798,12.6514948 16.0851628,10.9573844 L15.8854942,11.9926741 L19.0801915,11.9926741 L20.4778715,5.87505311 C20.977043,3.33388748 18.4811857,2.48683227 16.2848313,2.58094952 Z M16.5843342,8.88680497 C16.3846656,9.63974293 15.6858256,9.92209467 14.8871513,10.0162119 C14.1883112,10.0162119 13.5893055,9.63974293 14.0884769,8.88680497 C14.4878141,8.32210149 15.3863227,8.32210149 15.9853285,8.32210149 C16.2848313,8.32210149 16.4844999,8.32210149 16.7840028,8.32210149 C16.6841685,8.22798425 16.5843342,8.60445323 16.5843342,8.88680497 Z" id="Shape" fill="#21789E"></path>
                <path d="M12.4039914,5.23779567 C12.8063584,5.04752328 14.3152344,4.66697848 15.5223353,4.57184229 C16.7294362,4.57184229 17.4335784,4.76211468 17.2323949,5.80861286 C13.711684,5.80861286 11.2974823,6.47456625 10.7945236,8.757835 C10.0903814,12.5632829 14.4158262,12.6584191 16.1258857,10.9459676 L15.8241105,11.9924657 L19.0430462,11.9924657 L20.4513305,5.80861286 C21.054881,3.23993551 18.5400875,2.57398213 16.3270692,2.57398213 M16.5282527,8.8529712 C16.3270692,9.61406079 15.622927,9.89946938 14.8181931,9.99460558 C14.114051,9.99460558 13.5105005,9.61406079 14.0134592,8.8529712 C14.4158262,8.28215401 15.3211518,8.28215401 15.9247023,8.28215401 C16.2264775,8.28215401 16.427661,8.28215401 16.7294362,8.28215401 C16.6288444,8.18701781 16.5282527,8.56756261 16.5282527,8.8529712 Z" id="Shape" fill="#1A5B80"></path>
                <polygon id="Path" fill="#21789E" points="22.3924037 2.57398213 25.4546128 2.57398213 25.9330829 8.06514399 28.995292 2.57398213 32.1531951 2.57398213 24.8804486 16.3018868 21.4354634 16.3018868 23.6364262 12.1835154"></polygon>
                <polyline id="Path" fill="#1A5B80" points="25.4546128 2.77009505 25.9330829 8.16320045 28.995292 2.57398213 32.1531951 2.57398213 24.8804486 16.3018868 21.4354634 16.3018868 23.6364262 12.2815719"></polyline>
                <path d="M8.38772604,0 L2.53582415,0 L0,12.0119166 L3.41360944,12.0119166 L4.29139472,8.31594225 L6.72968717,8.31594225 C9.07044793,8.31594225 11.0210819,7.02235123 11.5087404,4.71236728 C12.0939306,2.03278588 10.0457649,0 8.38772604,0 Z M8.29019435,4.15797113 C8.09513095,4.98956535 7.21734567,5.5439615 6.33956038,5.5439615 L4.77905321,5.5439615 L5.4617751,2.77198075 L7.11981397,2.77198075 C7.99759925,2.77198075 8.48525774,3.3263769 8.29019435,4.15797113 Z" id="Shape" fill="#21789E"></path>
                <path d="M8.38772604,0 L5.75437019,0 L0,12.0119166 L3.41360944,12.0119166 L4.29139472,8.31594225 L6.72968717,8.31594225 C9.07044793,8.31594225 11.0210819,7.02235123 11.5087404,4.71236728 C12.0939306,2.03278588 10.0457649,0 8.38772604,0 Z M8.29019435,4.15797113 C8.09513095,4.98956535 7.21734567,5.5439615 6.33956038,5.5439615 L4.77905321,5.5439615 L5.4617751,2.77198075 L7.11981397,2.77198075 C7.99759925,2.77198075 8.48525774,3.3263769 8.29019435,4.15797113 Z" id="Shape" fill="#1A5B80"></path>
                <g id="Group" transform="translate(0.000000, 2.573982)" fill="#06435E">
                    <path d="M15.724922,3.30910295 C13.0119961,3.49553128 11.2033789,4.24124462 10.801464,6.10552797 C10.0981128,9.83409467 14.4186984,9.92730884 16.1268369,8.24945382 L15.9258794,9.36802383 L19.141199,9.36802383 L19.6435926,7.13088381 L15.724922,3.30910295 Z M16.6292306,6.29195631 C16.4282731,7.03766965 15.724922,7.31731215 14.9210921,7.41052632 C14.217741,7.41052632 13.6148685,7.03766965 14.1172622,6.29195631 C14.5191772,5.7326713 15.4234858,5.7326713 16.0263582,5.7326713 C16.3277944,5.7326713 16.5287519,5.7326713 16.8301881,5.7326713 C16.7297093,5.63945713 16.6292306,6.0123138 16.6292306,6.29195631 Z" id="Shape"></path>
                    <polygon id="Path" points="25.7727954 5.1733863 25.571838 5.4530288 27.6818914 7.31731215 32.1029557 0.0466070837 28.7871575 0.0466070837"></polygon>
                    <polygon id="Path" points="3.26555888 9.36802383 4.16986749 5.63945713 0.0502393673 9.36802383"></polygon>
                </g>
                <g id="Group" transform="translate(31.260051, 6.005958)" fill="#2273AA">
                    <polygon id="Path" points="3.28388412 5.93796631 4.19326742 2.13041539 4.19326742 2.22107137 0.0505212942 5.93796631"></polygon>
                    <path d="M15.9142077,0.0453279871 C13.1860578,0.226639936 11.3672912,0.951887729 10.9631208,2.76500721 C10.2558227,6.39124618 14.7016966,6.48190216 16.4194206,4.85009462 L16.1162928,5.93796631 L19.3496557,5.93796631 L19.8548686,3.76222293 L15.9142077,0.0453279871 Z M16.823591,2.94631916 C16.6215058,3.67156696 15.9142077,3.94353488 15.105867,4.03419085 C14.3985688,4.03419085 13.7923133,3.67156696 14.1964837,2.94631916 C14.600654,2.40238332 15.5100373,2.40238332 16.2173354,2.40238332 C16.4194206,2.40238332 16.7225484,2.40238332 17.0256761,2.40238332 C16.9246336,2.31172734 16.823591,2.67435124 16.823591,2.94631916 Z" id="Shape"></path>
                    <polygon id="Path" points="23.189274 0.589263832 20.8652945 5.93796631 24.0986573 5.93796631 25.0080406 2.31172734"></polygon>
                </g>
                <g id="Group" transform="translate(58.054380, 0.000000)" fill="#32A6CE">
                    <polygon id="Path" points="0.428709268 1.62446872 0.428709268 0.343197617 0 0.343197617 0 0.160158888 1.1146441 0.160158888 1.1146441 0.343197617 0.685934829 0.343197617 0.685934829 1.62446872"></polygon>
                    <path d="M1.2861278,1.62446872 L1.2861278,0.160158888 L1.54335336,0.160158888 L1.88632078,1.1668719 C1.88632078,1.25839126 1.97206263,1.34991063 1.97206263,1.34991063 C1.97206263,1.25839126 1.97206263,1.25839126 2.05780449,1.07535253 L2.4007719,0.0686395233 L2.65799746,0.0686395233 L2.65799746,1.53294935 L2.48651375,1.53294935 L2.48651375,0.251678252 L2.05780449,1.53294935 L1.80057893,1.53294935 L1.37186966,0.251678252 L1.37186966,1.53294935 L1.2861278,1.53294935 L1.2861278,1.62446872 Z" id="Path"></path>
                </g>
            </g>
        </g>
    </g>
</svg>