
<svg width="99px" height="30px" viewBox="0 0 99 30" version="1.1" xmlns="http://www.w3.org/2000/svg" xmlns:xlink="http://www.w3.org/1999/xlink">
    <g id="Page-1" stroke="none" stroke-width="1" fill="none" fill-rule="evenodd" opacity="0.559683866">
        <g id="dots" transform="translate(-149.000000, -1812.000000)" filter="url(#filter-1)">
            <g transform="translate(149.000000, 1812.000000)">
                <circle id="Oval" fill="#956FFF" fill-rule="nonzero" cx="2" cy="2" r="2"></circle>
                <circle id="Oval" fill="#956FFF" fill-rule="nonzero" cx="12" cy="2" r="2"></circle>
                <circle id="Oval" fill="#956FFF" fill-rule="nonzero" cx="21" cy="2" r="2"></circle>
                <circle id="Oval" fill="#956FFF" fill-rule="nonzero" cx="30" cy="2" r="2"></circle>
                <circle id="Oval" fill="#956FFF" fill-rule="nonzero" cx="40" cy="2" r="2"></circle>
                <circle id="Oval" fill="#956FFF" fill-rule="nonzero" cx="49" cy="2" r="2"></circle>
                <circle id="Oval" fill="#956FFF" fill-rule="nonzero" cx="59" cy="2" r="2"></circle>
                <circle id="Oval" fill="#956FFF" fill-rule="nonzero" cx="69" cy="2" r="2"></circle>
                <circle id="Oval" fill="#956FFF" fill-rule="nonzero" cx="78" cy="2" r="2"></circle>
                <circle id="Oval" fill="#956FFF" fill-rule="nonzero" cx="87" cy="2" r="2"></circle>
                <circle id="Oval" fill="#956FFF" fill-rule="nonzero" cx="97" cy="2" r="2"></circle>
                <circle id="Oval" fill="#956FFF" fill-rule="nonzero" cx="2" cy="10" r="2"></circle>
                <circle id="Oval" fill="#956FFF" fill-rule="nonzero" cx="12" cy="10" r="2"></circle>
                <circle id="Oval" fill="#956FFF" fill-rule="nonzero" cx="21" cy="10" r="2"></circle>
                <circle id="Oval" fill="#956FFF" fill-rule="nonzero" cx="30" cy="10" r="2"></circle>
                <circle id="Oval" fill="#956FFF" fill-rule="nonzero" cx="40" cy="10" r="2"></circle>
                <circle id="Oval" fill="#956FFF" fill-rule="nonzero" cx="49" cy="10" r="2"></circle>
                <circle id="Oval" fill="#956FFF" fill-rule="nonzero" cx="59" cy="10" r="2"></circle>
                <circle id="Oval" fill="#956FFF" fill-rule="nonzero" cx="69" cy="10" r="2"></circle>
                <circle id="Oval" fill="#956FFF" fill-rule="nonzero" cx="2" cy="20" r="2"></circle>
                <circle id="Oval" fill="#956FFF" fill-rule="nonzero" cx="12" cy="20" r="2"></circle>
                <circle id="Oval" fill="#956FFF" fill-rule="nonzero" cx="21" cy="20" r="2"></circle>
                <circle id="Oval" fill="#956FFF" fill-rule="nonzero" cx="30" cy="20" r="2"></circle>
                <circle id="Oval" fill="#956FFF" fill-rule="nonzero" cx="40" cy="20" r="2"></circle>
                <circle id="Oval" fill="#956FFF" fill-rule="nonzero" cx="2" cy="28" r="2"></circle>
                <circle id="Oval" fill="#956FFF" fill-rule="nonzero" cx="12" cy="28" r="2"></circle>
                <circle id="Oval" fill="#956FFF" fill-rule="nonzero" cx="21" cy="28" r="2"></circle>
            </g>
        </g>
    </g>
</svg>