 <svg width="46px" height="32px" viewBox="0 0 46 32" version="1.1" xmlns="http://www.w3.org/2000/svg"
                         xmlns:xlink="http://www.w3.org/1999/xlink">
                      <title>916762</title>
                      <g id="Page-1" stroke="none" stroke-width="1" fill="none" fill-rule="evenodd">
                        <g id="Create-post" transform="translate(-208.000000, -645.000000)">
                          <rect id="Rectangle" fill="#F2F2F2" x="159" y="589" width="144" height="144"></rect>
                          <g id="916762" transform="translate(208.000000, 645.000000)" fill="#000000"
                             fill-rule="nonzero">
                            <path
                                d="M42.1666476,0 L3.8333316,0 C1.71733256,0.00247618625 0.00249166554,1.70666375 0,3.8095173 L0,28.190428 C0.00249166554,30.2932816 1.71733256,31.9974692 3.8333316,31.9999736 L42.1666476,31.9999736 C42.3817933,32.0008025 42.5965557,31.9821358 42.8083473,31.9443264 C44.6530423,31.6374698 46.003525,30.0491868 45.9999861,28.190428 L45.9999861,3.8095173 C45.9974875,1.70656851 44.2826466,0.00247618625 42.1666476,0 Z M3.8333316,30.4761384 C2.64164464,30.4759479 1.64737425,29.5712828 1.54253264,28.3915705 L16.8283257,18.459397 L32.373252,30.4761384 L3.8333316,30.4761384 Z M44.466648,28.190428 C44.4678924,29.3087118 43.6528302,30.2629007 42.5423141,30.4433766 C42.4183058,30.465567 42.2925725,30.4765194 42.1666476,30.476148 L34.8702842,30.476148 L24.7127221,22.6201518 L33.7961847,15.4018785 L44.466648,21.7645342 L44.466648,28.190428 Z M44.4666465,19.9877754 L34.1281512,13.8232145 C33.8533013,13.658929 33.5046598,13.6820719 33.2541516,13.8811191 L23.4661227,21.6601535 L17.3366255,16.9226378 C17.0783548,16.7232095 16.7212799,16.7084476 16.4472926,16.8860664 L1.53333264,26.5767165 L1.53333264,3.8095173 C1.53333264,2.54713851 2.56306134,1.52380692 3.8333316,1.52380692 L42.1666476,1.52380692 C43.4369178,1.52380692 44.4666465,2.54713851 44.4666465,3.8095173 L44.4666465,19.9877754 Z"
                                id="Shape"></path>
                            <path
                                d="M23.5,5 C21.0146875,5 19,7.0146875 19,9.5 C19.0024375,11.9842812 21.0157188,13.9975625 23.5,14 C25.9853125,14 28,11.9853125 28,9.5 C28,7.0146875 25.9853125,5 23.5,5 Z M23.5,12.5 C21.8431562,12.5 20.5,11.1568438 20.5,9.5 C20.5,7.84315625 21.8431562,6.5 23.5,6.5 C25.1568438,6.5 26.5,7.84315625 26.5,9.5 C26.5,11.1568438 25.1568438,12.5 23.5,12.5 Z"
                                id="Shape"></path>
                          </g>
                        </g>
                      </g>
                    </svg>