
<svg width="16px" height="15px" viewBox="0 0 16 15" version="1.1" xmlns="http://www.w3.org/2000/svg" xmlns:xlink="http://www.w3.org/1999/xlink">
    <g id="Page-1" stroke="none" stroke-width="1" fill="none" fill-rule="evenodd">
        <g id="Posted-Services" transform="translate(-159.000000, -702.000000)" fill="#000000" fill-rule="nonzero">
            <g id="3408612" transform="translate(159.000000, 702.000000)">
                <path d="M14.59375,0 L1.40625,0 C0.63084375,0 0,0.633483264 0,1.41213389 L0,10.5753138 C0,11.3539644 0.63084375,11.9874477 1.40625,11.9874477 L5.94665625,11.9874477 L5.60290625,14.0585774 L5,14.0585774 C4.741125,14.0585774 4.53125,14.2693305 4.53125,14.5292887 C4.53125,14.7892469 4.741125,15 5,15 L11,15 C11.258875,15 11.46875,14.7892469 11.46875,14.5292887 C11.46875,14.2693305 11.258875,14.0585774 11,14.0585774 L10.3970937,14.0585774 L10.0533437,11.9874477 L14.59375,11.9874477 C15.3691562,11.9874477 16,11.3539644 16,10.5753138 L16,1.41213389 C16,0.633483264 15.3691562,0 14.59375,0 Z M9.44665625,14.0585774 L6.55334375,14.0585774 L6.89709375,11.9874477 L9.10290625,11.9874477 L9.44665625,14.0585774 Z M15.0625,10.5753138 C15.0625,10.834864 14.8522188,11.0460251 14.59375,11.0460251 C14.2593125,11.0460251 1.79853125,11.0460251 1.40625,11.0460251 C1.14778125,11.0460251 0.9375,10.834864 0.9375,10.5753138 L0.9375,1.41213389 C0.9375,1.15258368 1.14778125,0.941422594 1.40625,0.941422594 L7.53125,0.941422594 L7.53125,1.4748954 C7.53125,1.73485356 7.741125,1.94560669 8,1.94560669 C8.258875,1.94560669 8.46875,1.73485356 8.46875,1.4748954 L8.46875,0.941422594 L14.59375,0.941422594 C14.8522188,0.941422594 15.0625,1.15258368 15.0625,1.41213389 L15.0625,10.5753138 Z" id="Shape"></path>
                <path d="M6.52531646,6.03157895 C6.26316456,6.03157895 6.05063291,6.24366316 6.05063291,6.50526316 L6.05063291,8.05263158 L4.97468354,8.05263158 L4.97468354,4.98947368 C4.97468354,4.72787368 4.7621519,4.51578947 4.5,4.51578947 C4.2378481,4.51578947 4.02531646,4.72787368 4.02531646,4.98947368 L4.02531646,8.05263158 L2.94936709,8.05263158 L2.94936709,3.47368421 C2.94936709,3.21208421 2.73683544,3 2.47468354,3 C2.21253165,3 2,3.21208421 2,3.47368421 L2,8.52631579 C2,8.78791579 2.21253165,9 2.47468354,9 L6.52531646,9 C6.78746835,9 7,8.78791579 7,8.52631579 L7,6.50526316 C7,6.24366316 6.78746835,6.03157895 6.52531646,6.03157895 Z" id="Path"></path>
                <path d="M11.5,3 C10.1214943,3 9,4.12149425 9,5.5 C9,6.17893678 9.27218391,6.79543103 9.71301724,7.24640805 C9.73281609,7.26902299 9.73186782,7.26793103 9.75356322,7.28695402 C10.2045402,7.72778736 10.8210345,8 11.5,8 C12.8785057,8 14,6.87850575 14,5.5 C14,4.12149425 12.8785057,3 11.5,3 Z M13.0799713,5.06896552 L11.9310345,5.06896552 L11.9310345,3.92002874 C12.4882471,4.07221264 12.9277874,4.51175287 13.0799713,5.06896552 Z M11.0689655,3.92002874 L11.0689655,5.32146552 L10.0784195,6.31201149 C9.54551724,5.38272989 10.0406034,4.20091954 11.0689655,3.92002874 Z M10.6879885,6.92158046 L11.6785345,5.93103448 L13.0799713,5.93103448 C12.7986494,6.9608908 11.6160057,7.45373563 10.6879885,6.92158046 Z" id="Shape"></path>
            </g>
        </g>
    </g>
</svg>