
<svg width="24px" height="24px" viewBox="0 0 24 24" version="1.1" xmlns="http://www.w3.org/2000/svg" xmlns:xlink="http://www.w3.org/1999/xlink">
    <g id="Page-1" stroke="none" stroke-width="1" fill="none" fill-rule="evenodd">
        <g id="Promotions-right" transform="translate(-1050.000000, -1047.000000)" fill="#000000" fill-rule="nonzero">
            <g id="3233783-copy" transform="translate(1050.000000, 1047.000000)">
                <path d="M21.9375,18.4 L21.1125,18.4 L21.1125,17.432 C21.8627692,17.1128958 22.3480821,16.3944365 22.35,15.6 L22.35,14 C22.35,12.8954305 21.4265873,12 20.2875,12 L19.4625,12 C18.3234127,12 17.4,12.8954305 17.4,14 L17.4,15.6 C17.4019179,16.3944365 17.8872308,17.1128958 18.6375,17.432 L18.6375,18.4 L17.8125,18.4 C16.6734127,18.4 15.75,19.2954305 15.75,20.4 L15.75,23.6 C15.75,23.8209139 15.9346825,24 16.1625,24 L23.5875,24 C23.8153175,24 24,23.8209139 24,23.6 L24,20.4 C24,19.2954305 23.0765873,18.4 21.9375,18.4 L21.9375,18.4 Z M19.4625,12.8 L20.2875,12.8 C20.9701062,12.8019769 21.5229613,13.3380789 21.525,14 L20.869125,14 L20.580375,13.716 C20.4688717,13.6086549 20.3044505,13.5715042 20.1555,13.62 L18.984,14 L18.225,14 C18.2270387,13.3380789 18.7798938,12.8019769 19.4625,12.8 L19.4625,12.8 Z M18.225,15.6 L18.225,14.8 L19.05,14.8 C19.0947366,14.799223 19.1391513,14.7924935 19.182,14.78 L20.176125,14.456 L20.407125,14.684 C20.485782,14.7576783 20.5906413,14.7992103 20.7,14.8 L21.525,14.8 L21.525,15.6 C21.5229613,16.2619211 20.9701062,16.7980231 20.2875,16.8 L19.4625,16.8 C18.7798938,16.7980231 18.2270387,16.2619211 18.225,15.6 L18.225,15.6 Z M20.2875,17.6 L20.2875,18.4 L19.4625,18.4 L19.4625,17.6 L20.2875,17.6 Z M21.364125,19.2 L20.8155,20.8 L18.9345,20.8 L18.385875,19.2 L21.364125,19.2 Z M23.175,23.2 L16.575,23.2 L16.575,20.4 C16.5756194,19.8446024 16.9701986,19.3625977 17.527875,19.236 L18.245625,21.328 C18.3038497,21.4898586 18.4607243,21.5987452 18.6375,21.6 L21.1125,21.6 C21.2892757,21.5987452 21.4461503,21.4898586 21.504375,21.328 L22.222125,19.236 C22.7798014,19.3625977 23.1743806,19.8446024 23.175,20.4 L23.175,23.2 Z" id="Shape"></path>
                <path d="M6.1875,6.4 L5.3625,6.4 L5.3625,5.432 C6.11276916,5.11289577 6.59808211,4.39443652 6.6,3.6 L6.6,2 C6.6,0.8954305 5.6765873,0 4.5375,0 L3.7125,0 C2.5734127,0 1.65,0.8954305 1.65,2 L1.65,3.6 C1.65191789,4.39443652 2.13723084,5.11289577 2.8875,5.432 L2.8875,6.4 L2.0625,6.4 C0.923412703,6.4 0,7.2954305 0,8.4 L0,11.6 C0,11.8209139 0.184682541,12 0.4125,12 L7.8375,12 C8.06531746,12 8.25,11.8209139 8.25,11.6 L8.25,8.4 C8.25,7.2954305 7.3265873,6.4 6.1875,6.4 Z M3.7125,0.8 L4.5375,0.8 C5.22010615,0.801976881 5.77296134,1.33807888 5.775,2 L5.119125,2 L4.830375,1.716 C4.71887166,1.60865493 4.55445054,1.57150417 4.4055,1.62 L3.234,2 L2.475,2 C2.47703866,1.33807888 3.02989385,0.801976881 3.7125,0.8 L3.7125,0.8 Z M2.475,3.6 L2.475,2.8 L3.3,2.8 C3.34473659,2.79922303 3.38915134,2.79249353 3.432,2.78 L4.426125,2.456 L4.657125,2.684 C4.73578198,2.75767831 4.84064127,2.79921029 4.95,2.8 L5.775,2.8 L5.775,3.6 C5.77296134,4.26192112 5.22010615,4.79802312 4.5375,4.8 L3.7125,4.8 C3.02989385,4.79802312 2.47703866,4.26192112 2.475,3.6 L2.475,3.6 Z M4.5375,5.6 L4.5375,6.4 L3.7125,6.4 L3.7125,5.6 L4.5375,5.6 Z M5.614125,7.2 L5.0655,8.8 L3.1845,8.8 L2.635875,7.2 L5.614125,7.2 Z M7.425,11.2 L0.825,11.2 L0.825,8.4 C0.82561941,7.84460242 1.22019864,7.36259773 1.777875,7.236 L2.495625,9.328 C2.5538497,9.48985864 2.71072434,9.59874515 2.8875,9.6 L5.3625,9.6 C5.53927566,9.59874515 5.6961503,9.48985864 5.754375,9.328 L6.472125,7.236 C7.02980136,7.36259773 7.42438059,7.84460242 7.425,8.4 L7.425,11.2 Z" id="Shape"></path>
                <path d="M9.70018125,21.575 L9.70018125,17.75 C9.69818182,17.0604988 9.15596567,16.5020593 8.48649545,16.5 L2.01350455,16.5 C1.34403433,16.5020593 0.801818176,17.0604988 0.79981875,17.75 L0.79981875,21.575 C0.247604109,21.7813673 -0.0818383227,22.36543 0.0176392638,22.9617124 C0.11711685,23.5579948 0.616954785,23.9953061 1.20438068,24 L9.29561932,24 C9.88304522,23.9953061 10.3828831,23.5579948 10.4823607,22.9617124 C10.5818383,22.36543 10.2523959,21.7813673 9.70018125,21.575 Z M1.60894261,17.75 C1.60894261,17.5198814 1.79007116,17.3333333 2.01350455,17.3333333 L8.48649545,17.3333333 C8.70992884,17.3333333 8.89105739,17.5198814 8.89105739,17.75 L8.89105739,21.5 L6.05912386,21.5 C5.83569048,21.5 5.65456193,21.686548 5.65456193,21.9166667 L4.84543807,21.9166667 C4.84543807,21.686548 4.66430952,21.5 4.44087614,21.5 L1.60894261,21.5 L1.60894261,17.75 Z M9.29561932,23.1666667 L1.20438068,23.1666667 C0.980947296,23.1666667 0.79981875,22.9801186 0.79981875,22.75 C0.79981875,22.5198814 0.980947296,22.3333333 1.20438068,22.3333333 L4.0363142,22.3333333 C4.0363142,22.563452 4.21744275,22.75 4.44087614,22.75 L6.05912386,22.75 C6.28255725,22.75 6.4636858,22.563452 6.4636858,22.3333333 L9.29561932,22.3333333 C9.5190527,22.3333333 9.70018125,22.5198814 9.70018125,22.75 C9.70018125,22.9801186 9.5190527,23.1666667 9.29561932,23.1666667 Z" id="Shape"></path>
                <polygon id="Path" points="4.5 19.5 5.25 19.5 5.25 20.25 4.5 20.25"></polygon>
                <polygon id="Path" points="6.75 19.5 7.5 19.5 7.5 20.25 6.75 20.25"></polygon>
                <polygon id="Path" points="3 19.5 3.75 19.5 3.75 20.25 3 20.25"></polygon>
                <path d="M23.2001813,5.075 L23.2001813,1.25 C23.1981818,0.560498834 22.6559657,0.0020592507 21.9864955,0 L15.5135045,0 C14.8440343,0.0020592507 14.3018182,0.560498834 14.2998187,1.25 L14.2998187,5.075 C13.7476041,5.28136727 13.4181617,5.86543002 13.5176393,6.46171239 C13.6171169,7.05799476 14.1169548,7.49530614 14.7043807,7.5 L22.7956193,7.5 C23.3830452,7.49530614 23.8828831,7.05799476 23.9823607,6.46171239 C24.0818383,5.86543002 23.7523959,5.28136727 23.2001813,5.075 L23.2001813,5.075 Z M15.1089426,1.25 C15.1089426,1.01988135 15.2900712,0.833333333 15.5135045,0.833333333 L21.9864955,0.833333333 C22.2099288,0.833333333 22.3910574,1.01988135 22.3910574,1.25 L22.3910574,5 L19.5591239,5 C19.3356905,5 19.1545619,5.18654802 19.1545619,5.41666667 L18.3454381,5.41666667 C18.3454381,5.18654802 18.1643095,5 17.9408761,5 L15.1089426,5 L15.1089426,1.25 Z M22.7956193,6.66666667 L14.7043807,6.66666667 C14.4809473,6.66666667 14.2998187,6.48011865 14.2998187,6.25 C14.2998187,6.01988135 14.4809473,5.83333333 14.7043807,5.83333333 L17.5363142,5.83333333 C17.5363142,6.06345198 17.7174428,6.25 17.9408761,6.25 L19.5591239,6.25 C19.7825572,6.25 19.9636858,6.06345198 19.9636858,5.83333333 L22.7956193,5.83333333 C23.0190527,5.83333333 23.2001813,6.01988135 23.2001813,6.25 C23.2001813,6.48011865 23.0190527,6.66666667 22.7956193,6.66666667 Z" id="Shape"></path>
                <polygon id="Path" points="18.75 2.25 19.5 2.25 19.5 3 18.75 3"></polygon>
                <polygon id="Path" points="20.25 2.25 21 2.25 21 3 20.25 3"></polygon>
                <polygon id="Path" points="16.5 2.25 17.25 2.25 17.25 3 16.5 3"></polygon>
                <path d="M3.86271469,16.5 L4.5,16.1006437 C4.06437938,15.0562277 3.79709327,13.9185691 3.71278626,12.75 L3,12.8289936 C3.09265651,14.1092622 3.38556635,15.3556464 3.86271469,16.5 L3.86271469,16.5 Z" id="Path"></path>
                <path d="M10.6514946,19.9746465 L10.5,20.8343422 C11.0772376,20.9447516 11.6628822,21.0001944 12.249721,21 C13.447231,21.0019492 14.6344855,20.7695002 15.75,20.3146786 L15.4453368,19.5 C13.9199146,20.1170464 12.2607708,20.2813211 10.6514946,19.9746465 L10.6514946,19.9746465 Z" id="Path"></path>
                <path d="M20.2878932,11.25 L21,11.1710064 C20.9072502,9.89055826 20.6141184,8.6441072 20.1366778,7.5 L19.5,7.89935635 C19.9359027,8.94354988 20.2034325,10.0812634 20.2878932,11.25 L20.2878932,11.25 Z" id="Path"></path>
                <path d="M11.8128027,3.83333868 C12.3296645,3.83337678 12.8454663,3.88162826 13.3539188,3.97750481 L13.5,3.15792457 C12.9433892,3.05266712 12.3786716,2.99981143 11.8128027,3 C10.0150981,2.99753242 8.25569895,3.53632321 6.75,4.55041931 L7.19066479,5.25 C8.56517029,4.32372379 10.1714484,3.83140787 11.8128027,3.83333868 L11.8128027,3.83333868 Z" id="Path"></path>
            </g>
        </g>
    </g>
</svg>