
<svg width="18px" height="14px" viewBox="0 0 18 14" version="1.1" xmlns="http://www.w3.org/2000/svg" xmlns:xlink="http://www.w3.org/1999/xlink">
    <g id="Page-1" stroke="none" stroke-width="1" fill="none" fill-rule="evenodd" opacity="0.60485556">
        <g id="Promotions-right" transform="translate(-1022.000000, -663.000000)" fill="#000000" fill-rule="nonzero">
            <g id="561127" transform="translate(1022.000000, 663.000000)">
                <path d="M16.4179688,0 L1.58203125,0 C0.710789062,0 0,0.710189011 0,1.58241758 L0,12.1318681 C0,13.0011429 0.707625,13.7142857 1.58203125,13.7142857 L16.4179688,13.7142857 C17.2870313,13.7142857 18,13.0064879 18,12.1318681 L18,1.58241758 C18,0.713142857 17.292375,0 16.4179688,0 Z M16.1995078,1.05494505 L9.03353906,8.2226989 L1.80558984,1.05494505 L16.1995078,1.05494505 Z M1.0546875,11.9134242 L1.0546875,1.79583297 L6.13402734,6.83284396 L1.0546875,11.9134242 Z M1.80045703,12.6593407 L6.88299609,7.57556044 L8.66390625,9.34160879 C8.8700625,9.54605714 9.20274609,9.54538901 9.40805859,9.33999121 L11.1445312,7.60309451 L16.199543,12.6593407 L1.80045703,12.6593407 Z M16.9453125,11.913389 L11.8903008,6.85714286 L16.9453125,1.80086154 L16.9453125,11.913389 Z" id="Shape"></path>
            </g>
        </g>
    </g>
</svg>