
<svg width="18px" height="17px" viewBox="0 0 18 17" version="1.1" xmlns="http://www.w3.org/2000/svg" xmlns:xlink="http://www.w3.org/1999/xlink">
    <g id="Page-1" stroke="none" stroke-width="1" fill="none" fill-rule="evenodd" opacity="0.529599144">
        <g id="Account-dropdown" transform="translate(-1010.000000, -354.000000)" fill="#000000" fill-rule="nonzero">
            <g id="813419" transform="translate(1010.000000, 354.000000)">
                <path d="M3.97501025,4.5 L12.2249897,4.5 C12.4322702,4.5 12.6,4.29872973 12.6,4.05 C12.6,3.80127027 12.4322702,3.6 12.2249897,3.6 L3.97501025,3.6 C3.76772981,3.6 3.6,3.80127027 3.6,4.05 C3.6,4.29877191 3.76776497,4.5 3.97501025,4.5 Z" id="Path"></path>
                <path d="M8.61427538,8.1 L3.98572462,8.1 C3.772522,8.1 3.6,8.30127027 3.6,8.55 C3.6,8.79872973 3.772522,9 3.98572462,9 L8.61427538,9 C8.827478,9 9,8.79872973 9,8.55 C9,8.30127027 8.827478,8.1 8.61427538,8.1 Z" id="Path"></path>
                <path d="M16.5644648,1.47273669 C16.5427383,1.47273669 16.5216797,1.47808682 16.5000234,1.47908781 L16.5000234,1.47273669 C16.5000234,0.660517244 15.8269219,0 15.0000117,0 L1.50001172,0 C0.673101563,0 0,0.660517244 0,1.47273669 L0,15.8318072 C0,15.980679 0.091546875,16.1151227 0.231433594,16.1719377 C0.27759375,16.1909911 0.326636719,16.2 0.374976563,16.2 C0.472394531,16.2 0.568335938,16.1626181 0.640125,16.0921344 L4.28027344,12.5181755 L15.0000117,12.5181755 C15.8269219,12.5181755 16.5000234,11.8576928 16.5000234,11.0454389 L16.5000234,4.93862281 L17.5796016,3.87884747 C17.5796016,3.87884747 17.5796016,3.87884747 17.5796016,3.8785023 C17.8469297,3.61603506 18,3.25288174 18,2.8821692 C18,2.10484644 17.3562188,1.47273669 16.5644648,1.47273669 Z M15.75,11.0454389 C15.75,11.4513587 15.4138008,11.7817899 15.0000117,11.7817899 L4.12498828,11.7817899 C4.02539062,11.7817899 3.93015234,11.8206216 3.85983984,11.8896556 L0.749988281,14.9429945 L0.749988281,1.47273669 C0.749988281,1.06681681 1.0861875,0.736385602 1.49997656,0.736385602 L14.9999766,0.736385602 C15.4138359,0.736385602 15.75,1.06681681 15.75,1.47273669 L15.75,1.72422752 C15.6788086,1.77227518 15.6107109,1.8251207 15.5493281,1.88549093 L11.4690937,5.89091223 L4.12498828,5.89091223 C3.91770703,5.89091223 3.74997656,6.05559282 3.74997656,6.25910503 C3.74997656,6.46261724 3.91770703,6.62729783 4.12498828,6.62729783 L10.8674297,6.62729783 L10.5073242,8.39594873 C10.4824336,8.51675821 10.5212461,8.64153716 10.609875,8.72851999 C10.6809258,8.79827884 10.7768672,8.8363856 10.8750234,8.8363856 C10.8992109,8.8363856 10.9241016,8.83386586 10.9482539,8.82920607 L12.8225391,8.46101327 C12.8957695,8.44661968 12.9624258,8.41175751 13.0144219,8.36032719 L15.75,5.67490487 L15.75,11.0454389 Z M12.5647031,7.76093954 L11.3532891,7.99896875 L11.5957266,6.80813237 L14.9998359,3.46592064 L15.9696914,4.41814103 L12.5647031,7.76093954 Z M17.0493047,3.35822762 L16.4999883,3.89755569 L15.5300625,2.94526627 L16.0795547,2.40576562 C16.2069961,2.28098667 16.3835156,2.20908777 16.5644297,2.20908777 C16.9423594,2.20908777 17.2499766,2.51111149 17.2499766,2.8821692 C17.2500117,3.05906881 17.1767461,3.23275833 17.0493047,3.35822762 Z" id="Shape"></path>
            </g>
        </g>
    </g>
</svg>