
<svg width="18px" height="18px" viewBox="0 0 18 18" version="1.1" xmlns="http://www.w3.org/2000/svg" xmlns:xlink="http://www.w3.org/1999/xlink">
    <g id="Page-1" stroke="none" stroke-width="1" fill="none" fill-rule="evenodd" opacity="0.60485556">
        <g id="Promotions-right" transform="translate(-1022.000000, -635.000000)" fill="#000000" fill-rule="nonzero">
            <g id="2301129" transform="translate(1022.000000, 635.000000)">
                <path d="M15.3625309,2.63746783 C11.8462567,-0.878874917 6.15431854,-0.879436959 2.63748229,2.63746783 C-0.878897301,6.15381058 -0.879424215,11.8456757 2.63748229,15.3625453 C6.1537565,18.8788881 11.8456946,18.879415 15.3625309,15.3625453 C18.8789105,11.8462026 18.8794023,6.15433749 15.3625309,2.63746783 Z M14.9864546,14.0798963 C14.5660474,13.7039607 14.1163436,13.3712672 13.6423316,13.0845558 C13.9556348,12.0023096 14.1412491,10.8113787 14.1851235,9.57341192 L16.830549,9.57341192 C16.7109395,11.2420782 16.0697903,12.807399 14.9864546,14.0798963 Z M1.16942903,9.57341192 L3.81485454,9.57341192 C3.85872893,10.8113787 4.04434325,12.0023096 4.35764644,13.0845558 C3.88363441,13.3712672 3.43393069,13.7039607 3.0135234,14.0798963 C1.93018777,12.807399 1.28907368,11.2420782 1.16942903,9.57341192 Z M3.01355853,3.92011692 C3.43396582,4.29605247 3.88366954,4.62874594 4.35768157,4.91545739 C4.04437838,5.99770353 3.85876406,7.18863447 3.81488967,8.42660125 L1.16942903,8.42660125 C1.28907368,6.75797012 1.93018777,5.19264926 3.01355853,3.92011692 Z M8.42661854,5.0339779 C7.49145118,4.96709496 6.58976045,4.7367633 5.75382861,4.35678808 C6.23999479,3.10487564 7.13624075,1.60334649 8.42661854,1.23123985 L8.42661854,5.0339779 Z M8.42661854,6.18293136 L8.42661854,8.42663638 L4.96215756,8.42663638 C5.00185176,7.37941245 5.15023081,6.37381472 5.3970023,5.45371756 C6.34695838,5.86899602 7.36860992,6.11699686 8.42661854,6.18293136 Z M8.42661854,9.57341192 L8.42661854,11.8171169 C7.36860992,11.8830514 6.34695838,12.1310523 5.3970023,12.5463307 C5.15023081,11.6262336 5.00185176,10.6206359 4.96215756,9.57341192 L8.42661854,9.57341192 Z M8.42661854,12.9660704 L8.42661854,16.7687733 C7.136311,16.3966667 6.24006505,14.8953132 5.75382861,13.6432602 C6.58976045,13.263285 7.49145118,13.0329533 8.42661854,12.9660704 Z M9.57339464,12.9660704 C10.508562,13.0329533 11.4102527,13.263285 12.2461846,13.6432602 C11.7599833,14.8952078 10.8637724,16.3966667 9.57339464,16.7687733 L9.57339464,12.9660704 Z M9.57339464,11.8171169 L9.57339464,9.57341192 L13.0378556,9.57341192 C12.9981614,10.6206359 12.8497824,11.6262336 12.6030109,12.5463307 C11.6530548,12.1310523 10.6314033,11.8830514 9.57339464,11.8171169 Z M9.57339464,8.42663638 L9.57339464,6.18293136 C10.6314033,6.11699686 11.6530548,5.86899602 12.6030109,5.45371756 C12.8497824,6.37381472 12.9981614,7.37941245 13.0378556,8.42663638 L9.57339464,8.42663638 Z M9.57339464,5.0339779 L9.57339464,1.23127498 C10.8637724,1.60338162 11.7600184,3.10491077 12.2461846,4.35682321 C11.4102527,4.7367633 10.508562,4.96709496 9.57339464,5.0339779 Z M12.1489513,1.80374944 C12.8829428,2.12516695 13.5677206,2.56099505 14.1815756,3.10174928 C13.8893841,3.35937508 13.581069,3.5929736 13.2591245,3.80187743 C12.9732208,3.09398609 12.607999,2.40604722 12.1489513,1.80374944 Z M4.74085359,3.80187743 C4.418909,3.5929736 4.11062906,3.35937508 3.81840243,3.10174928 C4.4322575,2.56099505 5.11703521,2.12516695 5.85102672,1.80374944 C5.39197905,2.40611747 5.02675724,3.09405634 4.74085359,3.80187743 Z M4.74088872,14.1981709 C5.02675724,14.9060271 5.39204931,15.5940011 5.85106184,16.1962989 C5.11707034,15.8748814 4.43229262,15.4390533 3.81843756,14.898299 C4.11062906,14.6406732 4.41894413,14.4070747 4.74088872,14.1981709 L4.74088872,14.1981709 Z M13.2591245,14.1981709 C13.581069,14.4070747 13.8893841,14.6406732 14.1815756,14.8982639 C13.5677206,15.4390181 12.8829428,15.8748462 12.1489513,16.1962637 C12.6079639,15.5940362 12.9732208,14.9060622 13.2591245,14.1981709 Z M14.1851586,8.42663638 C14.1412842,7.18866959 13.9556699,5.99770353 13.6423667,4.91549252 C14.1163788,4.62878107 14.5660474,4.29608759 14.9864898,3.92015205 C16.0698254,5.19264926 16.7109395,6.75797012 16.8305841,8.42663638 L14.1851586,8.42663638 Z" id="Shape"></path>
            </g>
        </g>
    </g>
</svg>