
<svg width="14px" height="20px" viewBox="0 0 14 20" version="1.1" xmlns="http://www.w3.org/2000/svg" xmlns:xlink="http://www.w3.org/1999/xlink">
    <g id="Page-1" stroke="none" stroke-width="1" fill="none" fill-rule="evenodd" opacity="0.60485556">
        <g id="Promotions-right" transform="translate(-1025.000000, -580.000000)" fill="#000000" fill-rule="nonzero">
            <g id="446075" transform="translate(1025.000000, 580.000000)">
                <path d="M7,0 C3.14017915,0 0,3.12745205 0,6.9715915 C0,11.7422887 6.26431426,18.7459511 6.53102299,19.0417698 C6.78153667,19.3196544 7.21891634,19.3191656 7.46897701,19.0417698 C7.73568574,18.7459511 14,11.7422887 14,6.9715915 C14,3.12745205 10.8597831,0 7,0 Z M7,17.660731 C4.89173637,15.1665746 1.26057155,10.245825 1.26057155,6.9716667 C1.26057155,3.81970094 3.83524514,1.25546247 7,1.25546247 C10.1647549,1.25546247 12.7394285,3.81970094 12.7394285,6.9716291 C12.7394285,10.2459378 9.10879214,15.1657851 7,17.660731 Z" id="Shape"></path>
                <path d="M7.00001876,3.5 C5.07007873,3.5 3.5,5.070091 3.5,7 C3.5,8.929909 5.07011625,10.5 7.00001876,10.5 C8.92992127,10.5 10.5,8.929909 10.5,7 C10.5,5.070091 8.92992127,3.5 7.00001876,3.5 Z M7.00001876,9.24725864 C5.76083834,9.24725864 4.75276151,8.23916049 4.75276151,7 C4.75276151,5.76083951 5.76087586,4.75274136 7.00001876,4.75274136 C8.23916166,4.75274136 9.24727601,5.76083951 9.24727601,7 C9.24727601,8.23916049 8.23916166,9.24725864 7.00001876,9.24725864 Z" id="Shape"></path>
            </g>
        </g>
    </g>
</svg>