
<svg width="18px" height="23px" viewBox="0 0 18 23" version="1.1" xmlns="http://www.w3.org/2000/svg" xmlns:xlink="http://www.w3.org/1999/xlink">
    <g id="Page-1" stroke="none" stroke-width="1" fill="none" fill-rule="evenodd">
        <g id="Account-dropdown" transform="translate(-1354.000000, -81.000000)" fill="#000" fill-rule="nonzero">
            <g id="Group-3" transform="translate(1340.000000, 66.000000)">
                <g id="2097743" transform="translate(14.000000, 15.000000)">
                    <path d="M17.6283826,18.3035527 C17.5615153,18.2596641 17.0582558,17.903209 16.5543298,16.8248594 C15.6288957,14.8446133 15.4346474,12.0550547 15.4346474,10.063623 C15.4346474,10.0549531 15.4344697,10.046373 15.4341587,10.037748 C15.424073,7.40582031 13.8653326,5.13699609 11.6347649,4.11902148 L11.6347649,2.56216406 C11.6347649,1.14937109 10.499843,0 9.10482735,0 L8.89516181,0 C7.50014619,0 6.36522426,1.14937109 6.36522426,2.56216406 L6.36522426,4.11893164 C4.12719232,5.14018555 2.56534176,7.42059961 2.56534176,10.063623 C2.56534176,12.0550547 2.37109345,14.8445684 1.44565934,16.8248594 C0.941777815,17.9031641 0.438518311,18.2596191 0.371606612,18.3035527 C0.0898310518,18.4353984 -0.0491018049,18.7399687 0.0157216802,19.048627 C0.0811671864,19.3603398 0.369340678,19.5752461 0.684038927,19.5752461 L5.56899281,19.5752461 C5.59627288,21.4682988 7.12440102,23 9.0000168,23 C10.8756326,23 12.4037607,21.4682988 12.4310408,19.5752461 L17.3159947,19.5752461 C17.6306485,19.5752461 17.9188664,19.3603398 17.9843119,19.048627 C18.0490465,18.7399688 17.9101581,18.4353535 17.6283826,18.3035527 Z M7.69817106,2.56216406 C7.69817106,1.89368164 8.23515299,1.34985742 8.89520624,1.34985742 L9.10487178,1.34985742 C9.76492504,1.34985742 10.301907,1.89368164 10.301907,2.56216406 L10.301907,3.68148242 C9.88124298,3.59357031 9.44578378,3.54730078 8.99983908,3.54730078 C8.55402767,3.54730078 8.11870175,3.59352539 7.69821549,3.68134766 L7.69821549,2.56216406 L7.69817106,2.56216406 Z M9.0000168,21.6501426 C7.85936338,21.6501426 6.9289531,20.7239883 6.90189518,19.575291 L11.098094,19.575291 C11.0710805,20.7239434 10.1406702,21.6501426 9.0000168,21.6501426 L9.0000168,21.6501426 Z M11.6835936,18.2253438 C11.6834603,18.2253438 2.20288117,18.2253438 2.20288117,18.2253438 C2.31817723,18.0436797 2.43551707,17.8379824 2.55214603,17.6055117 C3.44536833,15.8246738 3.89828856,13.2872168 3.89828856,10.063623 C3.89828856,7.2148125 6.18683749,4.8971582 8.99979465,4.8971582 C11.8127518,4.8971582 14.1013007,7.2148125 14.1013007,10.0658691 C14.1013007,10.0741797 14.101434,10.0824453 14.101745,10.0907109 C14.1042776,13.3013672 14.5571533,15.8297051 15.4478876,17.6055117 C15.5645165,17.8380273 15.6819008,18.0436797 15.7971524,18.2253438 L11.6835936,18.2253438 Z" id="Shape"></path>
                </g>
            </g>
        </g>
    </g>
</svg>