
<svg width="16px" height="14px" viewBox="0 0 16 14" version="1.1" xmlns="http://www.w3.org/2000/svg" xmlns:xlink="http://www.w3.org/1999/xlink">
    <g id="Page-1" stroke="none" stroke-width="1" fill="none" fill-rule="evenodd">
        <g id="Posted-Services" transform="translate(-160.000000, -766.000000)" fill="#000000" fill-rule="nonzero">
            <g id="899792" transform="translate(160.000000, 766.000000)">
                <path d="M15.2,2.67558528 L12.2666667,2.67558528 L12.2666667,1.8729097 C12.2655,0.8390301 11.4304333,0.00117056856 10.4,0 L5.6,0 C4.56956667,0.00117056856 3.7345,0.8390301 3.73333333,1.8729097 L3.73333333,2.67558528 L0.8,2.67558528 C0.358166667,2.67558528 0,3.03494983 0,3.47826087 L0,8.82943144 C0.0014,9.1683612 0.214833333,9.46989967 0.533333333,9.58287625 L0.533333333,13.1103679 C0.533333333,13.5536789 0.8915,13.9130435 1.33333333,13.9130435 L14.6666667,13.9130435 C15.1085,13.9130435 15.4666667,13.5536789 15.4666667,13.1103679 L15.4666667,9.58287625 C15.7851667,9.46989967 15.9986,9.1683612 16,8.82943144 L16,3.47826087 C16,3.03494983 15.6418333,2.67558528 15.2,2.67558528 Z M4.26666667,1.8729097 C4.26753333,1.13444816 4.864,0.535986622 5.6,0.535117057 L10.4,0.535117057 C11.136,0.535986622 11.7324667,1.13444816 11.7333333,1.8729097 L11.7333333,2.67558528 L11.1893333,2.67558528 L11.2,1.8729097 C11.1991333,1.42996656 10.8414667,1.07110368 10.4,1.07023411 L5.59013333,1.07023411 C5.14866667,1.07110368 4.791,1.42996656 4.79013333,1.8729097 L4.79013333,1.87558528 L4.79733333,2.67558528 L4.26666667,2.67558528 L4.26666667,1.8729097 Z M10.6666667,1.86916388 L10.656,2.67558528 L5.33066667,2.67558528 L5.3224,1.8729097 C5.3224,1.7251505 5.4418,1.60535117 5.58906667,1.60535117 L10.4,1.60535117 C10.5458333,1.60535117 10.6646333,1.72284281 10.6666667,1.86916388 Z M14.9333333,13.1103679 C14.9333333,13.2581271 14.8139333,13.3779264 14.6666667,13.3779264 L1.33333333,13.3779264 C1.18606667,13.3779264 1.06666667,13.2581271 1.06666667,13.1103679 L1.06666667,9.63210702 L2.93333333,9.63210702 L2.93333333,10.4347826 C2.93333333,10.5825418 3.05273333,10.7023411 3.2,10.7023411 L4.26666667,10.7023411 C4.41393333,10.7023411 4.53333333,10.5825418 4.53333333,10.4347826 L4.53333333,9.63210702 L11.4666667,9.63210702 L11.4666667,10.4347826 C11.4666667,10.5825418 11.5860667,10.7023411 11.7333333,10.7023411 L12.8,10.7023411 C12.9472667,10.7023411 13.0666667,10.5825418 13.0666667,10.4347826 L13.0666667,9.63210702 L14.9333333,9.63210702 L14.9333333,13.1103679 Z M3.46666622,10.1672241 L3.46666622,8.82943144 C3.46653333,8.75729097 3.49616667,8.68832776 3.54853333,8.63892977 C3.59703333,8.58892977 3.6638,8.56107023 3.73333333,8.56187291 C3.8806,8.56187291 4,8.68167224 4,8.82943144 L4,9.36454849 L4,10.1672241 L3.46666622,10.1672241 Z M12,10.1672241 L12,8.82943144 C12,8.68167224 12.1194,8.56187153 12.2666667,8.56187153 C12.3386,8.5616388 12.4074333,8.5912709 12.4568,8.64374582 C12.5062667,8.69274247 12.5338667,8.759699 12.5333333,8.82943144 L12.5333333,9.36454849 L12.5333333,10.1672241 L12,10.1672241 Z M15.4666667,8.82943144 C15.4666667,8.97719064 15.3472667,9.09698997 15.2,9.09698997 L13.0666667,9.09698997 L13.0666667,8.82943144 C13.0647667,8.38692308 12.7077,8.02866221 12.2666667,8.02675585 C11.8248333,8.02675585 11.4666667,8.3861204 11.4666667,8.82943144 L11.4666667,9.09698997 L4.53333333,9.09698997 L4.53333333,8.82943144 C4.53333333,8.3861204 4.17516667,8.02675585 3.73333333,8.02675585 C3.29253333,8.02923077 2.9358,8.38715719 2.93333333,8.82943144 L2.93333333,9.09698997 L0.8,9.09698997 C0.652733333,9.09698997 0.533333333,8.97719064 0.533333333,8.82943144 L0.533333333,3.47826087 C0.533333333,3.33050167 0.652733333,3.21070234 0.8,3.21070234 L15.2,3.21070234 C15.3472667,3.21070234 15.4666667,3.33050167 15.4666667,3.47826087 L15.4666667,8.82943144 Z" id="Shape"></path>
            </g>
        </g>
    </g>
</svg>