
<svg width="51px" height="15px" viewBox="0 0 51 15" version="1.1" xmlns="http://www.w3.org/2000/svg" xmlns:xlink="http://www.w3.org/1999/xlink">
    <g id="Page-1" stroke="none" stroke-width="1" fill="none" fill-rule="evenodd">
        <g id="Promotions-right" transform="translate(-800.000000, -1180.000000)" fill-rule="nonzero">
            <g id="196578" transform="translate(800.280576, 1180.301887)">
                <polygon id="Path" fill="#3C58BF" points="18.3165468 13.5849057 20.9499912 0 25.0647482 0 22.5135989 13.5849057"></polygon>
                <polygon id="Path" fill="#293688" points="18.3165468 13.5849057 21.6906475 0 25.0647482 0 22.5135989 13.5849057"></polygon>
                <path d="M37.5971223,0.610129096 C36.7780129,0.305064548 35.4674378,0 33.829219,0 C29.7336719,0 26.784878,1.90665343 26.784878,4.65223436 C26.784878,6.71142006 28.8326515,7.77914598 30.4708704,8.46554121 C32.1090892,9.15193644 32.6005549,9.60953327 32.6005549,10.2196624 C32.6005549,11.134856 31.2899798,11.5924528 30.1432266,11.5924528 C28.5050078,11.5924528 27.6039874,11.3636544 26.2115014,10.8297915 L25.6381248,10.600993 L25.0647482,13.7279047 C26.0476795,14.1092354 27.8497202,14.490566 29.7336719,14.490566 C34.0749518,14.490566 36.9418348,12.5839126 36.9418348,9.6857994 C36.9418348,8.08421053 35.8769925,6.86395233 33.4196643,5.87249255 C31.9452673,5.18609732 31.044247,4.80476663 31.044247,4.1183714 C31.044247,3.5082423 31.7814454,2.89811321 33.4196643,2.89811321 C34.8121503,2.89811321 35.7950816,3.12691162 36.5322801,3.43197617 L36.9418348,3.58450844 L37.5971223,0.610129096 L37.5971223,0.610129096 Z" id="Path" fill="#3C58BF"></path>
                <path d="M37.5971223,0.610129096 C36.7780129,0.305064548 35.4674378,0 33.829219,0 C29.7336719,0 27.5220765,1.90665343 27.5220765,4.65223436 C27.5220765,6.71142006 28.8326515,7.77914598 30.4708704,8.46554121 C32.1090892,9.15193644 32.6005549,9.60953327 32.6005549,10.2196624 C32.6005549,11.134856 31.2899798,11.5924528 30.1432266,11.5924528 C28.5050078,11.5924528 27.6039874,11.3636544 26.2115014,10.8297915 L25.6381248,10.600993 L25.0647482,13.7279047 C26.0476795,14.1092354 27.8497202,14.490566 29.7336719,14.490566 C34.0749518,14.490566 36.9418348,12.5839126 36.9418348,9.6857994 C36.9418348,8.08421053 35.8769925,6.86395233 33.4196643,5.87249255 C31.9452673,5.18609732 31.044247,4.80476663 31.044247,4.1183714 C31.044247,3.5082423 31.7814454,2.89811321 33.4196643,2.89811321 C34.8121503,2.89811321 35.7950816,3.12691162 36.5322801,3.43197617 L36.9418348,3.58450844 L37.5971223,0.610129096 L37.5971223,0.610129096 Z" id="Path" fill="#293688"></path>
                <path d="M43.6938098,0 C42.7403747,0 42.0252984,0.0754716981 41.6280338,0.981132075 L35.6690647,13.5849057 L39.9595225,13.5849057 L40.7540517,11.3207547 L45.8390387,11.3207547 L46.3157562,13.5849057 L50.1294964,13.5849057 L46.7924737,0 L43.6938098,0 Z M41.8663926,9.05660377 C42.1047514,8.37735849 43.455451,5.05660377 43.455451,5.05660377 C43.455451,5.05660377 43.7732627,4.22641509 44.0116215,3.69811321 L44.2499802,4.98113208 C44.2499802,4.98113208 45.0445094,8.37735849 45.2034153,9.13207547 L41.8663926,9.13207547 L41.8663926,9.05660377 Z" id="Shape" fill="#3C58BF"></path>
                <path d="M44.6472448,0 C43.6938098,0 42.9787335,0.0754716981 42.5814689,0.981132075 L35.6690647,13.5849057 L39.9595225,13.5849057 L40.7540517,11.3207547 L45.8390387,11.3207547 L46.3157562,13.5849057 L50.1294964,13.5849057 L46.7924737,0 L44.6472448,0 Z M41.8663926,9.05660377 C42.1842043,8.30188679 43.455451,5.05660377 43.455451,5.05660377 C43.455451,5.05660377 43.7732627,4.22641509 44.0116215,3.69811321 L44.2499802,4.98113208 C44.2499802,4.98113208 45.0445094,8.37735849 45.2034153,9.13207547 L41.8663926,9.13207547 L41.8663926,9.05660377 Z" id="Shape" fill="#293688"></path>
                <path d="M10.8453237,9.43396226 L10.4436451,7.47169811 C9.7206235,5.20754717 7.39088729,2.71698113 4.82014388,1.50943396 L8.4352518,13.5849057 L12.7733813,13.5849057 L19.2805755,0 L14.942446,0 L10.8453237,9.43396226 Z" id="Path" fill="#3C58BF"></path>
                <path d="M10.8453237,9.43396226 L10.4436451,7.47169811 C9.7206235,5.20754717 7.39088729,2.71698113 4.82014388,1.50943396 L8.4352518,13.5849057 L12.7733813,13.5849057 L19.2805755,0 L15.7458034,0 L10.8453237,9.43396226 Z" id="Path" fill="#293688"></path>
                <path d="M0,0.905660377 L0.712230216,1.05056604 C5.77697842,2.13735849 9.25899281,4.89056604 10.6043165,8.1509434 L9.17985612,1.99245283 C8.94244604,1.12301887 8.23021583,0.905660377 7.35971223,0.905660377 L0,0.905660377 L0,0.905660377 Z" id="Path" fill="#FFBC00"></path>
                <path d="M0,0.905660377 L0,0.905660377 C5.0647482,2.00343053 9.25899281,4.85763293 10.6043165,8.1509434 L9.25899281,2.95483133 C9.02158273,2.07661521 8.23021583,1.56432247 7.35971223,1.56432247 L0,0.905660377 Z" id="Path" fill="#F7981D"></path>
                <path d="M0,0.905660377 L0,0.905660377 C5.0647482,2.00343053 9.25899281,4.85763293 10.6043165,8.1509434 L9.65467626,5.29674099 C9.41726619,4.41852487 9.10071942,3.54030875 7.99280576,3.17438536 L0,0.905660377 Z" id="Path" fill="#ED7C00"></path>
                <g id="Group" transform="translate(4.820144, 1.811321)" fill="#051244">
                    <path d="M9.94399949,7.66474677 L7.21741899,5.07169811 L5.93432228,7.96981132 L5.6135481,6.06315789 C4.8918062,3.77517378 2.56619342,1.25839126 0,0.0381330685 L3.60870949,12.240715 L7.93916088,12.240715 L9.94399949,7.66474677 Z" id="Path"></path>
                    <polygon id="Path" points="17.4019991 12.240715 13.9536767 8.88500497 13.3121284 12.240715"></polygon>
                    <path d="M26.6242567,7.5122145 L26.6242567,7.5122145 C26.9450309,7.81727905 27.105418,8.04607746 27.0252244,8.35114201 C27.0252244,9.26633565 25.7421277,9.72393247 24.6194181,9.72393247 C23.0155472,9.72393247 22.1334182,9.49513406 20.770128,8.9612711 L20.2087732,8.73247269 L19.6474183,11.8593843 C20.6097409,12.240715 22.3739989,12.6220457 24.2184504,12.6220457 C26.7846438,12.6220457 28.8696759,11.9356504 30.0725791,10.7153923 L26.6242567,7.5122145 Z" id="Path"></path>
                    <path d="M31.2754823,12.240715 L35.0445789,12.240715 L35.8465143,9.95273088 L40.9789011,9.95273088 L41.4600624,12.240715 L45.3093525,12.240715 L43.9460623,6.67328699 L39.1344496,2.24985104 L39.3750302,3.47010924 C39.3750302,3.47010924 40.1769657,6.9020854 40.3373528,7.66474677 L36.9692239,7.66474677 C37.2899981,6.9020854 38.5730948,3.62264151 38.5730948,3.62264151 C38.5730948,3.62264151 38.893869,2.783714 39.1344496,2.24985104" id="Path"></path>
                </g>
            </g>
        </g>
    </g>
</svg>