
<svg width="46px" height="48px" viewBox="0 0 46 48" version="1.1" xmlns="http://www.w3.org/2000/svg" xmlns:xlink="http://www.w3.org/1999/xlink">
    <g id="Page-1" stroke="none" stroke-width="1" fill="none" fill-rule="evenodd">
        <g id="Promotions-right" transform="translate(-589.000000, -1164.000000)" fill-rule="nonzero">
            <g id="196556" transform="translate(589.158273, 1164.000000)">
                <g id="Group" transform="translate(0.000000, 8.421053)" fill="#1476C6">
                    <path d="M25.7794592,35.8785897 C25.7013396,35.9538068 25.5451005,36.029024 25.4669809,36.029024 C25.1545026,36.1794584 24.8420243,36.1794584 24.6076656,36.1794584 C24.2951873,36.1794584 23.8264699,36.1794584 23.3577524,35.8033725 C22.7327958,35.3520695 22.4203175,34.5998978 22.4203175,33.9229433 C22.4203175,32.5690342 23.5921111,31.8920797 24.529546,31.8920797 C24.8420243,31.8920797 25.2326222,31.9672969 25.4669809,32.1177312 C25.9356983,32.4185999 26.0138179,32.7946857 26.0919375,33.0203373 L23.9045894,33.8477261 L23.2015133,33.9229433 C23.435872,35.0512008 24.2170677,35.7281553 25.076383,35.7281553 C25.5451005,35.7281553 25.8575788,35.577721 26.1700571,35.4272867 L25.7794592,35.8785897 Z M24.9201439,33.2459888 C25.076383,33.1707716 25.1545026,33.0955544 25.1545026,33.0203373 C25.1545026,32.6442514 24.7639047,32.2681656 24.2170677,32.2681656 C23.8264699,32.2681656 23.2015133,32.5690342 23.2015133,33.4716403 C23.2015133,33.6220746 23.2015133,33.7725089 23.2015133,33.9229433 L24.9201439,33.2459888" id="Shape"></path>
                    <path d="M22.2640784,36.029024 L20.6235674,36.029024 C20.8579261,35.8033725 20.8579261,35.7281553 20.8579261,35.577721 L20.8579261,34.1485948 C20.8579261,33.4716403 20.8579261,32.4938171 20.8579261,31.591211 C20.8579261,31.139908 20.9360456,30.6133878 20.9360456,30.1620848 L20.2329695,30.1620848 L20.9360456,29.8612161 L22.2640784,29.8612161 C21.9516001,30.0116505 21.8734805,30.0868677 21.8734805,30.3877363 C21.795361,31.0646909 21.795361,32.1177312 21.795361,33.3964231 L21.795361,35.4272867 C21.795361,35.8033725 21.8734805,35.8033725 22.1859588,35.8785897 C22.342198,35.8785897 22.4984371,35.8785897 22.6546763,35.9538068 L22.2640784,36.029024" id="Path"></path>
                    <path d="M19.217415,32.3433827 C19.4517738,32.4938171 19.8423716,32.8699029 19.8423716,33.5468574 C19.8423716,34.223812 19.4517738,34.5246806 19.0611759,34.8255493 C18.9049367,34.9759836 18.8268172,35.0512008 18.8268172,35.2768523 C18.8268172,35.5025038 18.9830563,35.577721 19.0611759,35.6529382 L19.3736542,35.8785897 C19.764252,36.1794584 20.1548499,36.480327 20.1548499,37.0820644 C20.1548499,37.9094532 19.2955346,38.7368421 17.7331431,38.7368421 C16.4051104,38.7368421 15.7801538,38.1351048 15.7801538,37.4581502 C15.7801538,37.1572816 15.936393,36.7059785 16.48323,36.4051099 C17.030067,36.1042412 17.8112627,36.029024 18.2018606,36.029024 C18.0456214,35.8785897 17.8893823,35.7281553 17.8893823,35.4272867 C17.8893823,35.2768523 17.9675019,35.2016352 17.9675019,35.0512008 C17.8893823,35.0512008 17.7331431,35.0512008 17.6550236,35.0512008 C16.7175887,35.0512008 16.1707517,34.3742463 16.1707517,33.6972918 C16.1707517,33.3212059 16.3269908,32.8699029 16.7175887,32.4938171 C17.2644257,32.1177312 17.8893823,32.0425141 18.3580997,32.0425141 L20.2329695,32.0425141 L19.6080129,32.3433827 L19.217415,32.3433827 L19.217415,32.3433827 Z M18.5924584,36.2546755 C18.5143389,36.2546755 18.4362193,36.2546755 18.3580997,36.2546755 C18.2799802,36.2546755 17.8112627,36.2546755 17.4206648,36.4051099 C17.1863061,36.480327 16.6394691,36.7059785 16.6394691,37.3077159 C16.6394691,37.9094532 17.2644257,38.3607563 18.2799802,38.3607563 C19.1392955,38.3607563 19.6080129,37.9846704 19.6080129,37.3829331 C19.6080129,37.0068472 19.2955346,36.7811957 18.5924584,36.2546755 M18.8268172,34.5998978 C19.0611759,34.3742463 19.0611759,34.1485948 19.0611759,33.9229433 C19.0611759,33.3212059 18.670578,32.2681656 17.8893823,32.2681656 C17.6550236,32.2681656 17.4206648,32.4185999 17.2644257,32.5690342 C17.1081866,32.7194686 17.030067,33.0203373 17.030067,33.2459888 C17.030067,33.8477261 17.4206648,34.8255493 18.2018606,34.8255493 C18.4362193,34.9007665 18.7486976,34.7503321 18.8268172,34.5998978" id="Shape"></path>
                    <path d="M13.5928058,36.1794584 C12.1085339,36.1794584 11.3273381,35.0512008 11.3273381,34.0733776 C11.3273381,32.9451201 12.3428926,31.9672969 13.6709253,31.9672969 C14.9989581,31.9672969 15.8582734,32.9451201 15.8582734,34.0733776 C15.936393,35.0512008 15.0770776,36.1794584 13.5928058,36.1794584 M14.7645994,35.4272867 C14.9989581,35.126418 14.9989581,34.8255493 14.9989581,34.4494635 C14.9989581,33.6972918 14.6083602,32.1929484 13.5146862,32.1929484 C13.2022079,32.1929484 12.8897296,32.3433827 12.6553709,32.4938171 C12.264773,32.7946857 12.264773,33.1707716 12.264773,33.5468574 C12.264773,34.4494635 12.7334904,35.8785897 13.8271645,35.8785897 C14.1396428,35.8785897 14.5302406,35.7281553 14.7645994,35.4272867" id="Shape"></path>
                    <path d="M8.74939221,36.1794584 C7.26512032,36.1794584 6.48392458,35.0512008 6.48392458,34.0733776 C6.48392458,32.9451201 7.49947904,31.9672969 8.82751178,31.9672969 C10.1555445,31.9672969 11.0148598,32.9451201 11.0148598,34.0733776 C11.0148598,35.0512008 10.2336641,36.1794584 8.74939221,36.1794584 M9.84306624,35.4272867 C10.077425,35.126418 10.1555445,34.8255493 10.1555445,34.4494635 C10.1555445,33.6972918 9.76494666,32.1929484 8.67127264,32.1929484 C8.35879434,32.1929484 8.04631605,32.3433827 7.81195733,32.4938171 C7.42135946,32.7946857 7.42135946,33.1707716 7.42135946,33.5468574 C7.42135946,34.4494635 7.8900769,35.8785897 8.98375093,35.8785897 C9.29622922,35.8785897 9.68682709,35.7281553 9.84306624,35.4272867" id="Shape"></path>
                    <path d="M5.93708757,35.8785897 L4.6871744,36.1042412 C4.21845696,36.1794584 3.74973952,36.2546755 3.28102208,36.2546755 C0.93743488,36.2546755 0,34.5998978 0,33.2459888 C0,31.6664282 1.24991317,30.1620848 3.43726123,30.1620848 C3.90597867,30.1620848 4.37469611,30.237302 4.76529397,30.3125192 C5.39025056,30.4629535 5.70272885,30.688605 5.858968,30.8390393 L5.15589184,31.5159939 L4.84341355,31.591211 L5.07777226,31.2903424 C4.76529397,30.9894737 4.21845696,30.5381707 3.28102208,30.5381707 C1.95298933,30.5381707 0.93743488,31.5159939 0.93743488,32.9451201 C0.93743488,34.5246806 2.10922848,35.9538068 3.98409824,35.9538068 C4.53093525,35.9538068 4.84341355,35.8785897 5.07777226,35.7281553 L5.07777226,34.3742463 L3.74973952,34.4494635 L4.45281568,34.0733776 L6.24956586,34.0733776 L6.01520714,34.2990291 C5.93708757,34.3742463 5.93708757,34.3742463 5.93708757,34.4494635 C5.93708757,34.5246806 5.93708757,34.7503321 5.93708757,34.8255493 L5.93708757,35.8785897" id="Path"></path>
                    <polyline id="Path" points="29.7635574 36.029024 29.1386008 36.029024 28.1230464 32.0425141 28.6698834 32.0425141 29.4510791 35.6529382 30.2322749 32.0425141 30.8572315 32.0425141 31.7165468 35.6529382 32.4977425 32.0425141 32.9664599 32.0425141 32.0290251 36.029024 31.4040685 36.029024 30.6228727 32.4938171 29.7635574 36.029024"></polyline>
                    <path d="M36.0131233,33.3212059 C36.0131233,32.6442514 35.700645,32.4185999 34.9975688,32.4185999 C34.4507318,32.4185999 34.1382535,32.7194686 34.060134,33.1707716 L33.5914165,33.0955544 C33.6695361,32.4185999 34.2163731,32.0425141 34.9975688,32.0425141 C35.9350037,32.0425141 36.4037212,32.4185999 36.4037212,33.3212059 L36.4037212,35.3520695 C36.4037212,35.7281553 36.4037212,35.9538068 36.4818407,36.1042412 L36.0131233,36.1042412 C35.9350037,36.029024 35.9350037,35.8033725 35.9350037,35.6529382 C35.700645,35.9538068 35.3100471,36.1794584 34.8413297,36.1794584 C34.060134,36.1794584 33.5132969,35.7281553 33.5132969,34.8255493 C33.5132969,33.9981604 34.1382535,33.5468574 34.9975688,33.5468574 C35.3881667,33.5468574 35.7787646,33.6220746 36.0131233,33.6972918 L36.0131233,33.3212059 L36.0131233,33.3212059 Z M36.0131233,34.1485948 C35.7787646,34.0733776 35.4662863,33.9229433 34.9975688,33.9229433 C34.4507318,33.9229433 33.9820144,34.223812 33.9820144,34.7503321 C33.9820144,35.3520695 34.3726123,35.6529382 34.9194493,35.6529382 C35.3881667,35.6529382 35.7787646,35.3520695 36.0131233,34.9759836 L36.0131233,34.1485948" id="Shape"></path>
                    <polygon id="Path" points="37.4192756 36.029024 37.8879931 36.029024 37.8879931 30.3125192 37.4192756 30.3125192"></polygon>
                    <polygon id="Path" points="38.9035475 36.029024 39.3722649 36.029024 39.3722649 30.3125192 38.9035475 30.3125192"></polygon>
                    <path d="M41.7158521,35.7281553 C42.1845696,35.7281553 42.5751675,35.4272867 42.653287,34.675115 L43.1220045,34.7503321 C42.9657653,35.7281553 42.4189283,36.1794584 41.7158521,36.1794584 C40.7002977,36.1794584 40.1534607,35.5025038 40.1534607,34.0733776 C40.1534607,32.7946857 40.6221781,32.0425141 41.6377326,32.0425141 C42.7314066,32.0425141 43.1220045,32.8699029 43.1220045,34.0733776 L43.1220045,34.223812 L40.6221781,34.223812 C40.6221781,35.2016352 41.012776,35.7281553 41.7158521,35.7281553 M42.653287,33.6972918 L42.653287,33.6972918 C42.653287,32.9451201 42.3408087,32.3433827 41.6377326,32.3433827 C41.012776,32.3433827 40.6221781,32.8699029 40.6221781,33.6972918 L42.653287,33.6972918" id="Shape"></path>
                    <path d="M45.3093525,36.029024 C45.2312329,36.1042412 44.9968742,36.1042412 44.8406351,36.1042412 C44.2156785,36.1042412 44.0594393,35.8033725 44.0594393,35.2016352 L44.0594393,32.4185999 L43.5126023,32.4185999 L43.5126023,32.0425141 L44.0594393,32.0425141 L44.0594393,30.7638222 L44.5281568,30.6133878 L44.5281568,32.0425141 L45.3093525,32.0425141 L45.3093525,32.4185999 L44.4500372,32.4185999 L44.4500372,35.126418 C44.4500372,35.5025038 44.5281568,35.577721 44.8406351,35.577721 C44.9968742,35.577721 45.1531134,35.577721 45.2312329,35.5025038 L45.2312329,36.029024" id="Path"></path>
                    <path d="M17.1863061,7.14563107 C15.1551972,4.43781298 12.3428926,2.10608074 9.13999008,0.451303015 C8.67127264,0.225651507 8.12443562,0.0752171691 7.57759861,0.0752171691 C6.32768544,0.0752171691 5.23401141,0.752171691 4.60905483,1.80521206 C3.74973952,3.38477261 4.37469611,5.34041901 6.01520714,6.16780787 C10.9367403,8.72519162 14.1396428,13.5390904 14.5302406,19.1803781 L14.5302406,19.1803781 C14.4521211,18.5786408 14.6083602,17.9769034 14.8427189,17.3751661 C14.9208385,17.2999489 14.9208385,17.2247317 14.9989581,17.1495146 C16.5613495,14.7425652 17.3425453,11.8843127 17.3425453,9.0260603 C17.2644257,8.34910577 17.2644257,7.74736842 17.1863061,7.14563107" id="Path"></path>
                </g>
                <path d="M36.4345182,9.36819072 C35.8038554,6.87504319 34.9366941,4.38189566 33.7542015,2.03984798 C33.1235387,0.831049177 31.7833804,0 30.3643892,0 C29.8125592,0 29.2607293,0.15109985 28.7877323,0.377749626 C26.895744,1.2087988 26.1074156,3.39974663 27.0534097,5.13739491 C28.945398,8.99044109 29.8913921,13.070137 29.8913921,17.3009329 C29.8913921,21.5317287 28.945398,25.6114246 27.0534097,29.3889209 C27.0534097,29.4644708 26.6592455,30.1444201 26.6592455,30.8999194 C26.6592455,31.1265692 26.6592455,31.4287689 26.7380783,31.7309686 C26.9745768,32.7131176 27.6840724,33.6952666 28.7877323,34.1485662 C29.2607293,34.3752159 29.8125592,34.5263158 30.3643892,34.5263158 C31.7045475,34.5263158 32.965873,33.7708165 33.6753686,32.6375677 C34.3848642,31.277669 35.1731927,29.5400207 35.8038554,27.273523 C36.0403539,26.5935736 36.1980196,25.9136243 36.3556853,25.233675 C36.9863481,22.6649775 37.3016795,20.0207302 37.3016795,17.3009329 C37.3805123,14.6566855 37.0651809,11.9368882 36.4345182,9.36819072" id="Path" fill="#47AE33"></path>
                <path d="M21.2212934,5.88522153 C21.1382382,5.80909902 21.055183,5.656854 20.9721277,5.58073149 C20.7229621,5.27624145 20.3907412,4.97175141 20.0585204,4.81950639 C19.4771338,4.36277134 18.7296369,4.21052632 17.9821399,4.21052632 C17.4007534,4.21052632 17.0685325,4.28664883 16.6532565,4.43889384 C16.2379804,4.59113886 15.7396491,4.81950639 15.324373,5.20011894 C14.9090969,5.58073149 14.6599313,6.03746655 14.4938208,6.49420161 C14.1615999,7.33154921 14.1615999,8.54950937 14.8260417,9.46297948 C16.1549252,11.3660422 16.9024221,13.573595 17.1515878,15.8572703 C17.234643,16.4662504 17.234643,17.0752304 17.234643,17.6842105 C17.234643,20.5768659 16.4040908,23.3933988 14.7429865,25.9054416 C14.6599313,25.9815641 14.6599313,26.0576866 14.576876,26.1338091 C14.2446552,26.7427892 14.1615999,27.3517693 14.2446552,27.9607493 C14.3277104,29.0264645 14.9921521,30.0160571 16.0718699,30.6250372 C16.3210356,30.7772822 16.6532565,30.8534047 16.9024221,31.0056497 C17.234643,31.0817722 17.6499191,31.1578947 17.9821399,31.1578947 C19.3110234,31.1578947 20.4737964,30.5489147 21.2212934,29.4831995 C23.2976738,26.3621766 24.4604469,22.8605412 24.7926677,19.2066607 C24.7926677,18.7499257 24.875723,18.2170681 24.875723,17.760333 C24.7926677,13.42135 23.5468395,9.38685697 21.2212934,5.88522153" id="Path" fill="#ED114C"></path>
                <path d="M27.2764879,29.0331609 C29.2296526,25.2607241 30.206235,21.1864922 30.206235,16.9613629 C30.206235,15.5278369 30.1248531,14.4715546 30.0434713,13.792516 C27.5206335,10.0200791 23.8584497,6.70033465 19.5452109,4.21052632 L19.6265928,4.28597505 C19.9521202,4.51232127 20.1962658,4.66321874 20.4404114,5.04046243 C20.5217933,5.11591117 20.6031751,5.1913599 20.684557,5.34225738 C22.9632492,8.8128993 24.1839771,12.8871311 24.1839771,16.9613629 C24.1839771,17.4895041 24.1839771,17.9421965 24.1025952,18.394889 C25.9743781,21.6391847 26.9509605,25.3361728 26.9509605,29.1840584 C26.9509605,29.4858534 26.9509605,30.0139945 26.9509605,30.3157895 C26.9509605,29.9385458 27.1137242,29.4858534 27.1951061,29.1086097 C27.2764879,29.1086097 27.2764879,29.0331609 27.2764879,29.0331609" id="Path" fill="#FBBF16"></path>
                <g id="Group" transform="translate(19.545211, 4.210526)" fill="#F98E19">
                    <path d="M0.1734022,0.0756674294 C0.250469844,0.151334859 0.404605132,0.227002288 0.481672777,0.302669718 C0.404605132,0.302669718 0.404605132,0.227002288 0.327537488,0.227002288 C0.250469844,0.151334859 0.1734022,0.0756674294 0.0192669111,0.0756674294 C0.0963345553,6.9388939e-18 0.1734022,0.0756674294 0.1734022,0.0756674294 Z" id="Path"></path>
                    <path d="M7.26362547,13.7714722 C6.10761081,8.4747521 3.79558148,3.93470633 1.02114629,0.832341724 C1.09821393,0.908009153 1.17528157,0.983676583 1.17528157,1.05934401 C3.33317561,4.54004577 4.48919028,8.62608696 4.48919028,12.7121281 C4.48919028,13.2418002 4.48919028,13.6958047 4.41212263,14.1498093 C6.18467845,17.4035088 7.10949018,21.1112128 7.10949018,24.9702517 C7.10949018,25.2729214 7.10949018,25.8025934 7.10949018,26.1052632 C7.10949018,25.726926 7.26362547,25.2729214 7.34069312,24.8945843 C7.34069312,24.8189169 7.41776076,24.7432494 7.41776076,24.7432494 L7.95723427,21.7165523 C8.03430191,19.2951945 7.88016663,16.571167 7.26362547,13.7714722 Z" id="Path"></path>
                </g>
                <g id="Group" transform="translate(12.437861, 10.947368)" fill="#0F51B2">
                    <path d="M2.41381678,16.7567122 C2.41381678,16.7567122 2.41381678,16.6732339 2.41381678,16.7567122 L2.41381678,16.7567122 C2.41381678,16.6732339 2.41381678,16.7567122 2.41381678,16.7567122 Z" id="Path"></path>
                    <path d="M5.22993636,4.83861588 L5.22993636,4.83861588 C3.86210685,3.05205001 2.01151399,1.41436464 0,0 C0.321842238,0.893282931 0.643684475,1.86100611 0.885066154,2.75428904 C2.1724351,7.44402443 2.65519846,11.9848793 2.33335622,15.7813318 C2.33335622,16.0790928 2.41381678,16.3768537 2.41381678,16.6001745 C2.33335622,16.0046525 2.49427734,15.4091306 2.73565902,14.8136086 C2.81611958,14.7391684 2.81611958,14.6647281 2.89658014,14.5902879 C4.50579133,12.2082001 5.31039692,9.37947078 5.31039692,6.55074149 C5.31039692,6.02965978 5.31039692,5.43413783 5.22993636,4.83861588 Z" id="Path"></path>
                </g>
                <path d="M27.8504528,29.4736842 C31.3355171,25.1549181 33.7599097,16.517386 33.7599097,6.59180084 C33.7599097,4.62183737 33.6841475,2.72764173 33.4568606,0.909213909 C32.7750002,0.303071303 31.9416153,0 31.1082303,0 C30.5778945,0 30.0475586,0.151535651 29.592985,0.378839129 C27.7746906,1.21228521 27.0170679,3.40955216 27.9262151,5.15221215 C29.7445095,9.01637126 30.6536567,13.1078339 30.6536567,17.3508321 C30.6536567,21.5938303 29.7445095,25.6852929 27.9262151,29.4736842 C27.8504528,29.3979164 27.8504528,29.3979164 27.8504528,29.4736842 Z" id="Path" fill="#48C92D"></path>
                <path d="M14.5427303,25.8898409 C14.3787146,26.1919916 14.2967067,26.56968 14.2146988,26.9473684 C17.3309982,23.5481728 19.5452109,16.5987061 19.5452109,8.59171184 C19.5452109,7.15649589 19.463203,5.79681763 19.3811951,4.43713936 C18.8891479,4.286064 18.3971006,4.21052632 17.9050533,4.21052632 C17.3309982,4.21052632 17.0029667,4.286064 16.5929273,4.43713936 C16.1828879,4.58821472 15.6908406,4.81482777 15.2808012,5.19251617 C14.8707619,5.57020458 14.6247382,6.02343067 14.4607225,6.47665676 C14.132691,7.30757125 14.132691,8.51617416 14.788754,9.42262633 C16.10088,11.3110684 16.8389509,13.5016611 17.0849746,15.7677916 C17.1669824,16.372093 17.1669824,16.9763945 17.1669824,17.5806959 C17.1669824,20.4511278 16.3469037,23.246022 14.7067461,25.7387655 C14.7067461,25.7387655 14.6247382,25.8143032 14.5427303,25.8898409 Z" id="Path" fill="#FF4382"></path>
            </g>
        </g>
    </g>
</svg>